SplineFontDB: 3.2
FontName: TractorFeedSans-SmCn
FullName: Tractor Feed Sans Semicondensed
FamilyName: Tractor Feed Sans
Weight: Medium

StartChar: exclam
Encoding: 33 33 1
Width: 500
Flags: HW
LayerCount: 2
Back
Fore
SplineSet
225 500 m 0
 239 500 267 519 267 542 c 0
 267 565 239 584 225 584 c 0
 211 584 183 565 183 542 c 0
 183 519 211 500 225 500 c 0
225 416 m 0
 239 416 267 435 267 458 c 0
 267 481 239 500 225 500 c 0
 211 500 183 481 183 458 c 0
 183 435 211 416 225 416 c 0
225 333 m 0
 239 333 267 352 267 375 c 0
 267 398 239 417 225 417 c 0
 211 417 183 398 183 375 c 0
 183 352 211 333 225 333 c 0
225 250 m 0
 239 250 267 269 267 292 c 0
 267 315 239 334 225 334 c 0
 211 334 183 315 183 292 c 0
 183 269 211 250 225 250 c 0
225 166 m 0
 239 166 267 185 267 208 c 0
 267 231 239 250 225 250 c 0
 211 250 183 231 183 208 c 0
 183 185 211 166 225 166 c 0
225 0 m 0
 239 0 267 19 267 42 c 0
 267 65 239 84 225 84 c 0
 211 84 183 65 183 42 c 0
 183 19 211 0 225 0 c 0
EndSplineSet
EndChar

StartChar: quotedbl
Encoding: 34 34 2
Width: 500
Flags: HW
LayerCount: 2
Back
Fore
SplineSet
175 500 m 0
 189 500 217 519 217 542 c 0
 217 565 189 584 175 584 c 0
 161 584 133 565 133 542 c 0
 133 519 161 500 175 500 c 0
275 500 m 0
 289 500 317 519 317 542 c 0
 317 565 289 584 275 584 c 0
 261 584 233 565 233 542 c 0
 233 519 261 500 275 500 c 0
175 416 m 0
 189 416 217 435 217 458 c 0
 217 481 189 500 175 500 c 0
 161 500 133 481 133 458 c 0
 133 435 161 416 175 416 c 0
275 416 m 0
 289 416 317 435 317 458 c 0
 317 481 289 500 275 500 c 0
 261 500 233 481 233 458 c 0
 233 435 261 416 275 416 c 0
175 333 m 0
 189 333 217 352 217 375 c 0
 217 398 189 417 175 417 c 0
 161 417 133 398 133 375 c 0
 133 352 161 333 175 333 c 0
275 333 m 0
 289 333 317 352 317 375 c 0
 317 398 289 417 275 417 c 0
 261 417 233 398 233 375 c 0
 233 352 261 333 275 333 c 0
EndSplineSet
EndChar

StartChar: numbersign
Encoding: 35 35 3
Width: 500
Flags: HW
LayerCount: 2
Back
Fore
SplineSet
175 500 m 0
 189 500 217 519 217 542 c 0
 217 565 189 584 175 584 c 0
 161 584 133 565 133 542 c 0
 133 519 161 500 175 500 c 0
275 500 m 0
 289 500 317 519 317 542 c 0
 317 565 289 584 275 584 c 0
 261 584 233 565 233 542 c 0
 233 519 261 500 275 500 c 0
175 416 m 0
 189 416 217 435 217 458 c 0
 217 481 189 500 175 500 c 0
 161 500 133 481 133 458 c 0
 133 435 161 416 175 416 c 0
275 416 m 0
 289 416 317 435 317 458 c 0
 317 481 289 500 275 500 c 0
 261 500 233 481 233 458 c 0
 233 435 261 416 275 416 c 0
75 333 m 0
 89 333 117 352 117 375 c 0
 117 398 89 417 75 417 c 0
 61 417 33 398 33 375 c 0
 33 352 61 333 75 333 c 0
175 333 m 0
 189 333 217 352 217 375 c 0
 217 398 189 417 175 417 c 0
 161 417 133 398 133 375 c 0
 133 352 161 333 175 333 c 0
275 333 m 0
 289 333 317 352 317 375 c 0
 317 398 289 417 275 417 c 0
 261 417 233 398 233 375 c 0
 233 352 261 333 275 333 c 0
375 333 m 0
 389 333 417 352 417 375 c 0
 417 398 389 417 375 417 c 0
 361 417 333 398 333 375 c 0
 333 352 361 333 375 333 c 0
175 250 m 0
 189 250 217 269 217 292 c 0
 217 315 189 334 175 334 c 0
 161 334 133 315 133 292 c 0
 133 269 161 250 175 250 c 0
275 250 m 0
 289 250 317 269 317 292 c 0
 317 315 289 334 275 334 c 0
 261 334 233 315 233 292 c 0
 233 269 261 250 275 250 c 0
75 166 m 0
 89 166 117 185 117 208 c 0
 117 231 89 250 75 250 c 0
 61 250 33 231 33 208 c 0
 33 185 61 166 75 166 c 0
175 166 m 0
 189 166 217 185 217 208 c 0
 217 231 189 250 175 250 c 0
 161 250 133 231 133 208 c 0
 133 185 161 166 175 166 c 0
275 166 m 0
 289 166 317 185 317 208 c 0
 317 231 289 250 275 250 c 0
 261 250 233 231 233 208 c 0
 233 185 261 166 275 166 c 0
375 166 m 0
 389 166 417 185 417 208 c 0
 417 231 389 250 375 250 c 0
 361 250 333 231 333 208 c 0
 333 185 361 166 375 166 c 0
175 83 m 0
 189 83 217 102 217 125 c 0
 217 148 189 167 175 167 c 0
 161 167 133 148 133 125 c 0
 133 102 161 83 175 83 c 0
275 83 m 0
 289 83 317 102 317 125 c 0
 317 148 289 167 275 167 c 0
 261 167 233 148 233 125 c 0
 233 102 261 83 275 83 c 0
175 0 m 0
 189 0 217 19 217 42 c 0
 217 65 189 84 175 84 c 0
 161 84 133 65 133 42 c 0
 133 19 161 0 175 0 c 0
275 0 m 0
 289 0 317 19 317 42 c 0
 317 65 289 84 275 84 c 0
 261 84 233 65 233 42 c 0
 233 19 261 0 275 0 c 0
EndSplineSet
EndChar

StartChar: dollar
Encoding: 36 36 4
Width: 500
Flags: HW
LayerCount: 2
Back
Fore
SplineSet
225 500 m 0
 239 500 267 519 267 542 c 0
 267 565 239 584 225 584 c 0
 211 584 183 565 183 542 c 0
 183 519 211 500 225 500 c 0
125 416 m 0
 139 416 167 435 167 458 c 0
 167 481 139 500 125 500 c 0
 111 500 83 481 83 458 c 0
 83 435 111 416 125 416 c 0
225 416 m 0
 239 416 267 435 267 458 c 0
 267 481 239 500 225 500 c 0
 211 500 183 481 183 458 c 0
 183 435 211 416 225 416 c 0
325 416 m 0
 339 416 367 435 367 458 c 0
 367 481 339 500 325 500 c 0
 311 500 283 481 283 458 c 0
 283 435 311 416 325 416 c 0
75 333 m 0
 89 333 117 352 117 375 c 0
 117 398 89 417 75 417 c 0
 61 417 33 398 33 375 c 0
 33 352 61 333 75 333 c 0
225 333 m 0
 239 333 267 352 267 375 c 0
 267 398 239 417 225 417 c 0
 211 417 183 398 183 375 c 0
 183 352 211 333 225 333 c 0
125 250 m 0
 139 250 167 269 167 292 c 0
 167 315 139 334 125 334 c 0
 111 334 83 315 83 292 c 0
 83 269 111 250 125 250 c 0
225 250 m 0
 239 250 267 269 267 292 c 0
 267 315 239 334 225 334 c 0
 211 334 183 315 183 292 c 0
 183 269 211 250 225 250 c 0
325 250 m 0
 339 250 367 269 367 292 c 0
 367 315 339 334 325 334 c 0
 311 334 283 315 283 292 c 0
 283 269 311 250 325 250 c 0
225 166 m 0
 239 166 267 185 267 208 c 0
 267 231 239 250 225 250 c 0
 211 250 183 231 183 208 c 0
 183 185 211 166 225 166 c 0
375 166 m 0
 389 166 417 185 417 208 c 0
 417 231 389 250 375 250 c 0
 361 250 333 231 333 208 c 0
 333 185 361 166 375 166 c 0
125 83 m 0
 139 83 167 102 167 125 c 0
 167 148 139 167 125 167 c 0
 111 167 83 148 83 125 c 0
 83 102 111 83 125 83 c 0
225 83 m 0
 239 83 267 102 267 125 c 0
 267 148 239 167 225 167 c 0
 211 167 183 148 183 125 c 0
 183 102 211 83 225 83 c 0
325 83 m 0
 339 83 367 102 367 125 c 0
 367 148 339 167 325 167 c 0
 311 167 283 148 283 125 c 0
 283 102 311 83 325 83 c 0
225 0 m 0
 239 0 267 19 267 42 c 0
 267 65 239 84 225 84 c 0
 211 84 183 65 183 42 c 0
 183 19 211 0 225 0 c 0
EndSplineSet
EndChar

StartChar: percent
Encoding: 37 37 5
Width: 500
Flags: HW
LayerCount: 2
Back
Fore
SplineSet
75 500 m 0
 89 500 117 519 117 542 c 0
 117 565 89 584 75 584 c 0
 61 584 33 565 33 542 c 0
 33 519 61 500 75 500 c 0
175 500 m 0
 189 500 217 519 217 542 c 0
 217 565 189 584 175 584 c 0
 161 584 133 565 133 542 c 0
 133 519 161 500 175 500 c 0
375 500 m 0
 389 500 417 519 417 542 c 0
 417 565 389 584 375 584 c 0
 361 584 333 565 333 542 c 0
 333 519 361 500 375 500 c 0
75 416 m 0
 89 416 117 435 117 458 c 0
 117 481 89 500 75 500 c 0
 61 500 33 481 33 458 c 0
 33 435 61 416 75 416 c 0
175 416 m 0
 189 416 217 435 217 458 c 0
 217 481 189 500 175 500 c 0
 161 500 133 481 133 458 c 0
 133 435 161 416 175 416 c 0
325 416 m 0
 339 416 367 435 367 458 c 0
 367 481 339 500 325 500 c 0
 311 500 283 481 283 458 c 0
 283 435 311 416 325 416 c 0
275 333 m 0
 289 333 317 352 317 375 c 0
 317 398 289 417 275 417 c 0
 261 417 233 398 233 375 c 0
 233 352 261 333 275 333 c 0
225 250 m 0
 239 250 267 269 267 292 c 0
 267 315 239 334 225 334 c 0
 211 334 183 315 183 292 c 0
 183 269 211 250 225 250 c 0
175 166 m 0
 189 166 217 185 217 208 c 0
 217 231 189 250 175 250 c 0
 161 250 133 231 133 208 c 0
 133 185 161 166 175 166 c 0
125 83 m 0
 139 83 167 102 167 125 c 0
 167 148 139 167 125 167 c 0
 111 167 83 148 83 125 c 0
 83 102 111 83 125 83 c 0
275 83 m 0
 289 83 317 102 317 125 c 0
 317 148 289 167 275 167 c 0
 261 167 233 148 233 125 c 0
 233 102 261 83 275 83 c 0
375 83 m 0
 389 83 417 102 417 125 c 0
 417 148 389 167 375 167 c 0
 361 167 333 148 333 125 c 0
 333 102 361 83 375 83 c 0
75 0 m 0
 89 0 117 19 117 42 c 0
 117 65 89 84 75 84 c 0
 61 84 33 65 33 42 c 0
 33 19 61 0 75 0 c 0
275 0 m 0
 289 0 317 19 317 42 c 0
 317 65 289 84 275 84 c 0
 261 84 233 65 233 42 c 0
 233 19 261 0 275 0 c 0
375 0 m 0
 389 0 417 19 417 42 c 0
 417 65 389 84 375 84 c 0
 361 84 333 65 333 42 c 0
 333 19 361 0 375 0 c 0
EndSplineSet
EndChar

StartChar: ampersand
Encoding: 38 38 6
Width: 500
Flags: HW
LayerCount: 2
Back
Fore
SplineSet
175 500 m 0
 189 500 217 519 217 542 c 0
 217 565 189 584 175 584 c 0
 161 584 133 565 133 542 c 0
 133 519 161 500 175 500 c 0
275 500 m 0
 289 500 317 519 317 542 c 0
 317 565 289 584 275 584 c 0
 261 584 233 565 233 542 c 0
 233 519 261 500 275 500 c 0
125 416 m 0
 139 416 167 435 167 458 c 0
 167 481 139 500 125 500 c 0
 111 500 83 481 83 458 c 0
 83 435 111 416 125 416 c 0
325 416 m 0
 339 416 367 435 367 458 c 0
 367 481 339 500 325 500 c 0
 311 500 283 481 283 458 c 0
 283 435 311 416 325 416 c 0
175 333 m 0
 189 333 217 352 217 375 c 0
 217 398 189 417 175 417 c 0
 161 417 133 398 133 375 c 0
 133 352 161 333 175 333 c 0
275 333 m 0
 289 333 317 352 317 375 c 0
 317 398 289 417 275 417 c 0
 261 417 233 398 233 375 c 0
 233 352 261 333 275 333 c 0
225 250 m 0
 239 250 267 269 267 292 c 0
 267 315 239 334 225 334 c 0
 211 334 183 315 183 292 c 0
 183 269 211 250 225 250 c 0
175 166 m 0
 189 166 217 185 217 208 c 0
 217 231 189 250 175 250 c 0
 161 250 133 231 133 208 c 0
 133 185 161 166 175 166 c 0
275 166 m 0
 289 166 317 185 317 208 c 0
 317 231 289 250 275 250 c 0
 261 250 233 231 233 208 c 0
 233 185 261 166 275 166 c 0
375 166 m 0
 389 166 417 185 417 208 c 0
 417 231 389 250 375 250 c 0
 361 250 333 231 333 208 c 0
 333 185 361 166 375 166 c 0
125 83 m 0
 139 83 167 102 167 125 c 0
 167 148 139 167 125 167 c 0
 111 167 83 148 83 125 c 0
 83 102 111 83 125 83 c 0
325 83 m 0
 339 83 367 102 367 125 c 0
 367 148 339 167 325 167 c 0
 311 167 283 148 283 125 c 0
 283 102 311 83 325 83 c 0
175 0 m 0
 189 0 217 19 217 42 c 0
 217 65 189 84 175 84 c 0
 161 84 133 65 133 42 c 0
 133 19 161 0 175 0 c 0
275 0 m 0
 289 0 317 19 317 42 c 0
 317 65 289 84 275 84 c 0
 261 84 233 65 233 42 c 0
 233 19 261 0 275 0 c 0
375 0 m 0
 389 0 417 19 417 42 c 0
 417 65 389 84 375 84 c 0
 361 84 333 65 333 42 c 0
 333 19 361 0 375 0 c 0
EndSplineSet
EndChar

StartChar: quotesingle
Encoding: 39 39 7
Width: 500
Flags: HW
LayerCount: 2
Back
Fore
SplineSet
275 500 m 0
 289 500 317 519 317 542 c 0
 317 565 289 584 275 584 c 0
 261 584 233 565 233 542 c 0
 233 519 261 500 275 500 c 0
225 416 m 0
 239 416 267 435 267 458 c 0
 267 481 239 500 225 500 c 0
 211 500 183 481 183 458 c 0
 183 435 211 416 225 416 c 0
175 333 m 0
 189 333 217 352 217 375 c 0
 217 398 189 417 175 417 c 0
 161 417 133 398 133 375 c 0
 133 352 161 333 175 333 c 0
EndSplineSet
EndChar

StartChar: parenleft
Encoding: 40 40 8
Width: 500
Flags: HW
LayerCount: 2
Back
Fore
SplineSet
275 500 m 0
 289 500 317 519 317 542 c 0
 317 565 289 584 275 584 c 0
 261 584 233 565 233 542 c 0
 233 519 261 500 275 500 c 0
225 416 m 0
 239 416 267 435 267 458 c 0
 267 481 239 500 225 500 c 0
 211 500 183 481 183 458 c 0
 183 435 211 416 225 416 c 0
175 333 m 0
 189 333 217 352 217 375 c 0
 217 398 189 417 175 417 c 0
 161 417 133 398 133 375 c 0
 133 352 161 333 175 333 c 0
175 250 m 0
 189 250 217 269 217 292 c 0
 217 315 189 334 175 334 c 0
 161 334 133 315 133 292 c 0
 133 269 161 250 175 250 c 0
175 166 m 0
 189 166 217 185 217 208 c 0
 217 231 189 250 175 250 c 0
 161 250 133 231 133 208 c 0
 133 185 161 166 175 166 c 0
225 83 m 0
 239 83 267 102 267 125 c 0
 267 148 239 167 225 167 c 0
 211 167 183 148 183 125 c 0
 183 102 211 83 225 83 c 0
275 0 m 0
 289 0 317 19 317 42 c 0
 317 65 289 84 275 84 c 0
 261 84 233 65 233 42 c 0
 233 19 261 0 275 0 c 0
EndSplineSet
EndChar

StartChar: parenright
Encoding: 41 41 9
Width: 500
Flags: HW
LayerCount: 2
Back
Fore
SplineSet
175 500 m 0
 189 500 217 519 217 542 c 0
 217 565 189 584 175 584 c 0
 161 584 133 565 133 542 c 0
 133 519 161 500 175 500 c 0
225 416 m 0
 239 416 267 435 267 458 c 0
 267 481 239 500 225 500 c 0
 211 500 183 481 183 458 c 0
 183 435 211 416 225 416 c 0
275 333 m 0
 289 333 317 352 317 375 c 0
 317 398 289 417 275 417 c 0
 261 417 233 398 233 375 c 0
 233 352 261 333 275 333 c 0
275 250 m 0
 289 250 317 269 317 292 c 0
 317 315 289 334 275 334 c 0
 261 334 233 315 233 292 c 0
 233 269 261 250 275 250 c 0
275 166 m 0
 289 166 317 185 317 208 c 0
 317 231 289 250 275 250 c 0
 261 250 233 231 233 208 c 0
 233 185 261 166 275 166 c 0
225 83 m 0
 239 83 267 102 267 125 c 0
 267 148 239 167 225 167 c 0
 211 167 183 148 183 125 c 0
 183 102 211 83 225 83 c 0
175 0 m 0
 189 0 217 19 217 42 c 0
 217 65 189 84 175 84 c 0
 161 84 133 65 133 42 c 0
 133 19 161 0 175 0 c 0
EndSplineSet
EndChar

StartChar: asterisk
Encoding: 42 42 10
Width: 500
Flags: HW
LayerCount: 2
Back
Fore
SplineSet
225 500 m 0
 239 500 267 519 267 542 c 0
 267 565 239 584 225 584 c 0
 211 584 183 565 183 542 c 0
 183 519 211 500 225 500 c 0
75 416 m 0
 89 416 117 435 117 458 c 0
 117 481 89 500 75 500 c 0
 61 500 33 481 33 458 c 0
 33 435 61 416 75 416 c 0
225 416 m 0
 239 416 267 435 267 458 c 0
 267 481 239 500 225 500 c 0
 211 500 183 481 183 458 c 0
 183 435 211 416 225 416 c 0
375 416 m 0
 389 416 417 435 417 458 c 0
 417 481 389 500 375 500 c 0
 361 500 333 481 333 458 c 0
 333 435 361 416 375 416 c 0
125 333 m 0
 139 333 167 352 167 375 c 0
 167 398 139 417 125 417 c 0
 111 417 83 398 83 375 c 0
 83 352 111 333 125 333 c 0
225 333 m 0
 239 333 267 352 267 375 c 0
 267 398 239 417 225 417 c 0
 211 417 183 398 183 375 c 0
 183 352 211 333 225 333 c 0
325 333 m 0
 339 333 367 352 367 375 c 0
 367 398 339 417 325 417 c 0
 311 417 283 398 283 375 c 0
 283 352 311 333 325 333 c 0
175 250 m 0
 189 250 217 269 217 292 c 0
 217 315 189 334 175 334 c 0
 161 334 133 315 133 292 c 0
 133 269 161 250 175 250 c 0
275 250 m 0
 289 250 317 269 317 292 c 0
 317 315 289 334 275 334 c 0
 261 334 233 315 233 292 c 0
 233 269 261 250 275 250 c 0
125 166 m 0
 139 166 167 185 167 208 c 0
 167 231 139 250 125 250 c 0
 111 250 83 231 83 208 c 0
 83 185 111 166 125 166 c 0
225 166 m 0
 239 166 267 185 267 208 c 0
 267 231 239 250 225 250 c 0
 211 250 183 231 183 208 c 0
 183 185 211 166 225 166 c 0
325 166 m 0
 339 166 367 185 367 208 c 0
 367 231 339 250 325 250 c 0
 311 250 283 231 283 208 c 0
 283 185 311 166 325 166 c 0
75 83 m 0
 89 83 117 102 117 125 c 0
 117 148 89 167 75 167 c 0
 61 167 33 148 33 125 c 0
 33 102 61 83 75 83 c 0
225 83 m 0
 239 83 267 102 267 125 c 0
 267 148 239 167 225 167 c 0
 211 167 183 148 183 125 c 0
 183 102 211 83 225 83 c 0
375 83 m 0
 389 83 417 102 417 125 c 0
 417 148 389 167 375 167 c 0
 361 167 333 148 333 125 c 0
 333 102 361 83 375 83 c 0
225 0 m 0
 239 0 267 19 267 42 c 0
 267 65 239 84 225 84 c 0
 211 84 183 65 183 42 c 0
 183 19 211 0 225 0 c 0
EndSplineSet
EndChar

StartChar: plus
Encoding: 43 43 11
Width: 500
Flags: HW
LayerCount: 2
Back
Fore
SplineSet
225 500 m 0
 239 500 267 519 267 542 c 0
 267 565 239 584 225 584 c 0
 211 584 183 565 183 542 c 0
 183 519 211 500 225 500 c 0
225 416 m 0
 239 416 267 435 267 458 c 0
 267 481 239 500 225 500 c 0
 211 500 183 481 183 458 c 0
 183 435 211 416 225 416 c 0
225 333 m 0
 239 333 267 352 267 375 c 0
 267 398 239 417 225 417 c 0
 211 417 183 398 183 375 c 0
 183 352 211 333 225 333 c 0
75 250 m 0
 89 250 117 269 117 292 c 0
 117 315 89 334 75 334 c 0
 61 334 33 315 33 292 c 0
 33 269 61 250 75 250 c 0
175 250 m 0
 189 250 217 269 217 292 c 0
 217 315 189 334 175 334 c 0
 161 334 133 315 133 292 c 0
 133 269 161 250 175 250 c 0
275 250 m 0
 289 250 317 269 317 292 c 0
 317 315 289 334 275 334 c 0
 261 334 233 315 233 292 c 0
 233 269 261 250 275 250 c 0
375 250 m 0
 389 250 417 269 417 292 c 0
 417 315 389 334 375 334 c 0
 361 334 333 315 333 292 c 0
 333 269 361 250 375 250 c 0
225 166 m 0
 239 166 267 185 267 208 c 0
 267 231 239 250 225 250 c 0
 211 250 183 231 183 208 c 0
 183 185 211 166 225 166 c 0
225 83 m 0
 239 83 267 102 267 125 c 0
 267 148 239 167 225 167 c 0
 211 167 183 148 183 125 c 0
 183 102 211 83 225 83 c 0
225 0 m 0
 239 0 267 19 267 42 c 0
 267 65 239 84 225 84 c 0
 211 84 183 65 183 42 c 0
 183 19 211 0 225 0 c 0
EndSplineSet
EndChar

StartChar: comma
Encoding: 44 44 12
Width: 500
Flags: HW
LayerCount: 2
Back
Fore
SplineSet
175 250 m 0
 189 250 217 269 217 292 c 0
 217 315 189 334 175 334 c 0
 161 334 133 315 133 292 c 0
 133 269 161 250 175 250 c 0
275 250 m 0
 289 250 317 269 317 292 c 0
 317 315 289 334 275 334 c 0
 261 334 233 315 233 292 c 0
 233 269 261 250 275 250 c 0
175 166 m 0
 189 166 217 185 217 208 c 0
 217 231 189 250 175 250 c 0
 161 250 133 231 133 208 c 0
 133 185 161 166 175 166 c 0
275 166 m 0
 289 166 317 185 317 208 c 0
 317 231 289 250 275 250 c 0
 261 250 233 231 233 208 c 0
 233 185 261 166 275 166 c 0
225 83 m 0
 239 83 267 102 267 125 c 0
 267 148 239 167 225 167 c 0
 211 167 183 148 183 125 c 0
 183 102 211 83 225 83 c 0
175 0 m 0
 189 0 217 19 217 42 c 0
 217 65 189 84 175 84 c 0
 161 84 133 65 133 42 c 0
 133 19 161 0 175 0 c 0
EndSplineSet
EndChar

StartChar: hyphen
Encoding: 45 45 13
Width: 500
Flags: HW
LayerCount: 2
Back
Fore
SplineSet
75 250 m 0
 89 250 117 269 117 292 c 0
 117 315 89 334 75 334 c 0
 61 334 33 315 33 292 c 0
 33 269 61 250 75 250 c 0
175 250 m 0
 189 250 217 269 217 292 c 0
 217 315 189 334 175 334 c 0
 161 334 133 315 133 292 c 0
 133 269 161 250 175 250 c 0
275 250 m 0
 289 250 317 269 317 292 c 0
 317 315 289 334 275 334 c 0
 261 334 233 315 233 292 c 0
 233 269 261 250 275 250 c 0
375 250 m 0
 389 250 417 269 417 292 c 0
 417 315 389 334 375 334 c 0
 361 334 333 315 333 292 c 0
 333 269 361 250 375 250 c 0
EndSplineSet
EndChar

StartChar: period
Encoding: 46 46 14
Width: 500
Flags: HW
LayerCount: 2
Back
Fore
SplineSet
225 166 m 0
 239 166 267 185 267 208 c 0
 267 231 239 250 225 250 c 0
 211 250 183 231 183 208 c 0
 183 185 211 166 225 166 c 0
175 83 m 0
 189 83 217 102 217 125 c 0
 217 148 189 167 175 167 c 0
 161 167 133 148 133 125 c 0
 133 102 161 83 175 83 c 0
275 83 m 0
 289 83 317 102 317 125 c 0
 317 148 289 167 275 167 c 0
 261 167 233 148 233 125 c 0
 233 102 261 83 275 83 c 0
225 0 m 0
 239 0 267 19 267 42 c 0
 267 65 239 84 225 84 c 0
 211 84 183 65 183 42 c 0
 183 19 211 0 225 0 c 0
EndSplineSet
EndChar

StartChar: slash
Encoding: 47 47 15
Width: 500
Flags: HW
LayerCount: 2
Back
Fore
SplineSet
375 500 m 0
 389 500 417 519 417 542 c 0
 417 565 389 584 375 584 c 0
 361 584 333 565 333 542 c 0
 333 519 361 500 375 500 c 0
325 416 m 0
 339 416 367 435 367 458 c 0
 367 481 339 500 325 500 c 0
 311 500 283 481 283 458 c 0
 283 435 311 416 325 416 c 0
275 333 m 0
 289 333 317 352 317 375 c 0
 317 398 289 417 275 417 c 0
 261 417 233 398 233 375 c 0
 233 352 261 333 275 333 c 0
225 250 m 0
 239 250 267 269 267 292 c 0
 267 315 239 334 225 334 c 0
 211 334 183 315 183 292 c 0
 183 269 211 250 225 250 c 0
175 166 m 0
 189 166 217 185 217 208 c 0
 217 231 189 250 175 250 c 0
 161 250 133 231 133 208 c 0
 133 185 161 166 175 166 c 0
125 83 m 0
 139 83 167 102 167 125 c 0
 167 148 139 167 125 167 c 0
 111 167 83 148 83 125 c 0
 83 102 111 83 125 83 c 0
75 0 m 0
 89 0 117 19 117 42 c 0
 117 65 89 84 75 84 c 0
 61 84 33 65 33 42 c 0
 33 19 61 0 75 0 c 0
EndSplineSet
EndChar

StartChar: zero
Encoding: 48 48 16
Width: 500
Flags: HW
LayerCount: 2
Back
Fore
SplineSet
175 500 m 0
 189 500 217 519 217 542 c 0
 217 565 189 584 175 584 c 0
 161 584 133 565 133 542 c 0
 133 519 161 500 175 500 c 0
275 500 m 0
 289 500 317 519 317 542 c 0
 317 565 289 584 275 584 c 0
 261 584 233 565 233 542 c 0
 233 519 261 500 275 500 c 0
125 416 m 0
 139 416 167 435 167 458 c 0
 167 481 139 500 125 500 c 0
 111 500 83 481 83 458 c 0
 83 435 111 416 125 416 c 0
325 416 m 0
 339 416 367 435 367 458 c 0
 367 481 339 500 325 500 c 0
 311 500 283 481 283 458 c 0
 283 435 311 416 325 416 c 0
75 333 m 0
 89 333 117 352 117 375 c 0
 117 398 89 417 75 417 c 0
 61 417 33 398 33 375 c 0
 33 352 61 333 75 333 c 0
375 333 m 0
 389 333 417 352 417 375 c 0
 417 398 389 417 375 417 c 0
 361 417 333 398 333 375 c 0
 333 352 361 333 375 333 c 0
75 250 m 0
 89 250 117 269 117 292 c 0
 117 315 89 334 75 334 c 0
 61 334 33 315 33 292 c 0
 33 269 61 250 75 250 c 0
375 250 m 0
 389 250 417 269 417 292 c 0
 417 315 389 334 375 334 c 0
 361 334 333 315 333 292 c 0
 333 269 361 250 375 250 c 0
75 166 m 0
 89 166 117 185 117 208 c 0
 117 231 89 250 75 250 c 0
 61 250 33 231 33 208 c 0
 33 185 61 166 75 166 c 0
375 166 m 0
 389 166 417 185 417 208 c 0
 417 231 389 250 375 250 c 0
 361 250 333 231 333 208 c 0
 333 185 361 166 375 166 c 0
125 83 m 0
 139 83 167 102 167 125 c 0
 167 148 139 167 125 167 c 0
 111 167 83 148 83 125 c 0
 83 102 111 83 125 83 c 0
325 83 m 0
 339 83 367 102 367 125 c 0
 367 148 339 167 325 167 c 0
 311 167 283 148 283 125 c 0
 283 102 311 83 325 83 c 0
175 0 m 0
 189 0 217 19 217 42 c 0
 217 65 189 84 175 84 c 0
 161 84 133 65 133 42 c 0
 133 19 161 0 175 0 c 0
275 0 m 0
 289 0 317 19 317 42 c 0
 317 65 289 84 275 84 c 0
 261 84 233 65 233 42 c 0
 233 19 261 0 275 0 c 0
EndSplineSet
EndChar

StartChar: one
Encoding: 49 49 17
Width: 500
Flags: HW
LayerCount: 2
Back
Fore
SplineSet
225 500 m 0
 239 500 267 519 267 542 c 0
 267 565 239 584 225 584 c 0
 211 584 183 565 183 542 c 0
 183 519 211 500 225 500 c 0
125 416 m 0
 139 416 167 435 167 458 c 0
 167 481 139 500 125 500 c 0
 111 500 83 481 83 458 c 0
 83 435 111 416 125 416 c 0
225 416 m 0
 239 416 267 435 267 458 c 0
 267 481 239 500 225 500 c 0
 211 500 183 481 183 458 c 0
 183 435 211 416 225 416 c 0
225 333 m 0
 239 333 267 352 267 375 c 0
 267 398 239 417 225 417 c 0
 211 417 183 398 183 375 c 0
 183 352 211 333 225 333 c 0
225 250 m 0
 239 250 267 269 267 292 c 0
 267 315 239 334 225 334 c 0
 211 334 183 315 183 292 c 0
 183 269 211 250 225 250 c 0
225 166 m 0
 239 166 267 185 267 208 c 0
 267 231 239 250 225 250 c 0
 211 250 183 231 183 208 c 0
 183 185 211 166 225 166 c 0
225 83 m 0
 239 83 267 102 267 125 c 0
 267 148 239 167 225 167 c 0
 211 167 183 148 183 125 c 0
 183 102 211 83 225 83 c 0
125 0 m 0
 139 0 167 19 167 42 c 0
 167 65 139 84 125 84 c 0
 111 84 83 65 83 42 c 0
 83 19 111 0 125 0 c 0
225 0 m 0
 239 0 267 19 267 42 c 0
 267 65 239 84 225 84 c 0
 211 84 183 65 183 42 c 0
 183 19 211 0 225 0 c 0
325 0 m 0
 339 0 367 19 367 42 c 0
 367 65 339 84 325 84 c 0
 311 84 283 65 283 42 c 0
 283 19 311 0 325 0 c 0
EndSplineSet
EndChar

StartChar: two
Encoding: 50 50 18
Width: 500
Flags: HW
LayerCount: 2
Back
Fore
SplineSet
125 500 m 0
 139 500 167 519 167 542 c 0
 167 565 139 584 125 584 c 0
 111 584 83 565 83 542 c 0
 83 519 111 500 125 500 c 0
225 500 m 0
 239 500 267 519 267 542 c 0
 267 565 239 584 225 584 c 0
 211 584 183 565 183 542 c 0
 183 519 211 500 225 500 c 0
325 500 m 0
 339 500 367 519 367 542 c 0
 367 565 339 584 325 584 c 0
 311 584 283 565 283 542 c 0
 283 519 311 500 325 500 c 0
75 416 m 0
 89 416 117 435 117 458 c 0
 117 481 89 500 75 500 c 0
 61 500 33 481 33 458 c 0
 33 435 61 416 75 416 c 0
375 416 m 0
 389 416 417 435 417 458 c 0
 417 481 389 500 375 500 c 0
 361 500 333 481 333 458 c 0
 333 435 361 416 375 416 c 0
375 333 m 0
 389 333 417 352 417 375 c 0
 417 398 389 417 375 417 c 0
 361 417 333 398 333 375 c 0
 333 352 361 333 375 333 c 0
325 250 m 0
 339 250 367 269 367 292 c 0
 367 315 339 334 325 334 c 0
 311 334 283 315 283 292 c 0
 283 269 311 250 325 250 c 0
225 166 m 0
 239 166 267 185 267 208 c 0
 267 231 239 250 225 250 c 0
 211 250 183 231 183 208 c 0
 183 185 211 166 225 166 c 0
125 83 m 0
 139 83 167 102 167 125 c 0
 167 148 139 167 125 167 c 0
 111 167 83 148 83 125 c 0
 83 102 111 83 125 83 c 0
75 0 m 0
 89 0 117 19 117 42 c 0
 117 65 89 84 75 84 c 0
 61 84 33 65 33 42 c 0
 33 19 61 0 75 0 c 0
175 0 m 0
 189 0 217 19 217 42 c 0
 217 65 189 84 175 84 c 0
 161 84 133 65 133 42 c 0
 133 19 161 0 175 0 c 0
275 0 m 0
 289 0 317 19 317 42 c 0
 317 65 289 84 275 84 c 0
 261 84 233 65 233 42 c 0
 233 19 261 0 275 0 c 0
375 0 m 0
 389 0 417 19 417 42 c 0
 417 65 389 84 375 84 c 0
 361 84 333 65 333 42 c 0
 333 19 361 0 375 0 c 0
EndSplineSet
EndChar

StartChar: three
Encoding: 51 51 19
Width: 500
Flags: HW
LayerCount: 2
Back
Fore
SplineSet
75 500 m 0
 89 500 117 519 117 542 c 0
 117 565 89 584 75 584 c 0
 61 584 33 565 33 542 c 0
 33 519 61 500 75 500 c 0
175 500 m 0
 189 500 217 519 217 542 c 0
 217 565 189 584 175 584 c 0
 161 584 133 565 133 542 c 0
 133 519 161 500 175 500 c 0
275 500 m 0
 289 500 317 519 317 542 c 0
 317 565 289 584 275 584 c 0
 261 584 233 565 233 542 c 0
 233 519 261 500 275 500 c 0
375 500 m 0
 389 500 417 519 417 542 c 0
 417 565 389 584 375 584 c 0
 361 584 333 565 333 542 c 0
 333 519 361 500 375 500 c 0
325 416 m 0
 339 416 367 435 367 458 c 0
 367 481 339 500 325 500 c 0
 311 500 283 481 283 458 c 0
 283 435 311 416 325 416 c 0
275 333 m 0
 289 333 317 352 317 375 c 0
 317 398 289 417 275 417 c 0
 261 417 233 398 233 375 c 0
 233 352 261 333 275 333 c 0
225 250 m 0
 239 250 267 269 267 292 c 0
 267 315 239 334 225 334 c 0
 211 334 183 315 183 292 c 0
 183 269 211 250 225 250 c 0
325 250 m 0
 339 250 367 269 367 292 c 0
 367 315 339 334 325 334 c 0
 311 334 283 315 283 292 c 0
 283 269 311 250 325 250 c 0
375 166 m 0
 389 166 417 185 417 208 c 0
 417 231 389 250 375 250 c 0
 361 250 333 231 333 208 c 0
 333 185 361 166 375 166 c 0
75 83 m 0
 89 83 117 102 117 125 c 0
 117 148 89 167 75 167 c 0
 61 167 33 148 33 125 c 0
 33 102 61 83 75 83 c 0
375 83 m 0
 389 83 417 102 417 125 c 0
 417 148 389 167 375 167 c 0
 361 167 333 148 333 125 c 0
 333 102 361 83 375 83 c 0
125 0 m 0
 139 0 167 19 167 42 c 0
 167 65 139 84 125 84 c 0
 111 84 83 65 83 42 c 0
 83 19 111 0 125 0 c 0
225 0 m 0
 239 0 267 19 267 42 c 0
 267 65 239 84 225 84 c 0
 211 84 183 65 183 42 c 0
 183 19 211 0 225 0 c 0
325 0 m 0
 339 0 367 19 367 42 c 0
 367 65 339 84 325 84 c 0
 311 84 283 65 283 42 c 0
 283 19 311 0 325 0 c 0
EndSplineSet
EndChar

StartChar: four
Encoding: 52 52 20
Width: 500
Flags: HW
LayerCount: 2
Back
Fore
SplineSet
275 500 m 0
 289 500 317 519 317 542 c 0
 317 565 289 584 275 584 c 0
 261 584 233 565 233 542 c 0
 233 519 261 500 275 500 c 0
225 416 m 0
 239 416 267 435 267 458 c 0
 267 481 239 500 225 500 c 0
 211 500 183 481 183 458 c 0
 183 435 211 416 225 416 c 0
325 416 m 0
 339 416 367 435 367 458 c 0
 367 481 339 500 325 500 c 0
 311 500 283 481 283 458 c 0
 283 435 311 416 325 416 c 0
175 333 m 0
 189 333 217 352 217 375 c 0
 217 398 189 417 175 417 c 0
 161 417 133 398 133 375 c 0
 133 352 161 333 175 333 c 0
325 333 m 0
 339 333 367 352 367 375 c 0
 367 398 339 417 325 417 c 0
 311 417 283 398 283 375 c 0
 283 352 311 333 325 333 c 0
125 250 m 0
 139 250 167 269 167 292 c 0
 167 315 139 334 125 334 c 0
 111 334 83 315 83 292 c 0
 83 269 111 250 125 250 c 0
325 250 m 0
 339 250 367 269 367 292 c 0
 367 315 339 334 325 334 c 0
 311 334 283 315 283 292 c 0
 283 269 311 250 325 250 c 0
75 166 m 0
 89 166 117 185 117 208 c 0
 117 231 89 250 75 250 c 0
 61 250 33 231 33 208 c 0
 33 185 61 166 75 166 c 0
175 166 m 0
 189 166 217 185 217 208 c 0
 217 231 189 250 175 250 c 0
 161 250 133 231 133 208 c 0
 133 185 161 166 175 166 c 0
275 166 m 0
 289 166 317 185 317 208 c 0
 317 231 289 250 275 250 c 0
 261 250 233 231 233 208 c 0
 233 185 261 166 275 166 c 0
375 166 m 0
 389 166 417 185 417 208 c 0
 417 231 389 250 375 250 c 0
 361 250 333 231 333 208 c 0
 333 185 361 166 375 166 c 0
325 83 m 0
 339 83 367 102 367 125 c 0
 367 148 339 167 325 167 c 0
 311 167 283 148 283 125 c 0
 283 102 311 83 325 83 c 0
325 0 m 0
 339 0 367 19 367 42 c 0
 367 65 339 84 325 84 c 0
 311 84 283 65 283 42 c 0
 283 19 311 0 325 0 c 0
EndSplineSet
EndChar

StartChar: five
Encoding: 53 53 21
Width: 500
Flags: HW
LayerCount: 2
Back
Fore
SplineSet
75 500 m 0
 89 500 117 519 117 542 c 0
 117 565 89 584 75 584 c 0
 61 584 33 565 33 542 c 0
 33 519 61 500 75 500 c 0
175 500 m 0
 189 500 217 519 217 542 c 0
 217 565 189 584 175 584 c 0
 161 584 133 565 133 542 c 0
 133 519 161 500 175 500 c 0
275 500 m 0
 289 500 317 519 317 542 c 0
 317 565 289 584 275 584 c 0
 261 584 233 565 233 542 c 0
 233 519 261 500 275 500 c 0
375 500 m 0
 389 500 417 519 417 542 c 0
 417 565 389 584 375 584 c 0
 361 584 333 565 333 542 c 0
 333 519 361 500 375 500 c 0
75 416 m 0
 89 416 117 435 117 458 c 0
 117 481 89 500 75 500 c 0
 61 500 33 481 33 458 c 0
 33 435 61 416 75 416 c 0
75 333 m 0
 89 333 117 352 117 375 c 0
 117 398 89 417 75 417 c 0
 61 417 33 398 33 375 c 0
 33 352 61 333 75 333 c 0
175 333 m 0
 189 333 217 352 217 375 c 0
 217 398 189 417 175 417 c 0
 161 417 133 398 133 375 c 0
 133 352 161 333 175 333 c 0
275 333 m 0
 289 333 317 352 317 375 c 0
 317 398 289 417 275 417 c 0
 261 417 233 398 233 375 c 0
 233 352 261 333 275 333 c 0
375 250 m 0
 389 250 417 269 417 292 c 0
 417 315 389 334 375 334 c 0
 361 334 333 315 333 292 c 0
 333 269 361 250 375 250 c 0
375 166 m 0
 389 166 417 185 417 208 c 0
 417 231 389 250 375 250 c 0
 361 250 333 231 333 208 c 0
 333 185 361 166 375 166 c 0
75 83 m 0
 89 83 117 102 117 125 c 0
 117 148 89 167 75 167 c 0
 61 167 33 148 33 125 c 0
 33 102 61 83 75 83 c 0
375 83 m 0
 389 83 417 102 417 125 c 0
 417 148 389 167 375 167 c 0
 361 167 333 148 333 125 c 0
 333 102 361 83 375 83 c 0
125 0 m 0
 139 0 167 19 167 42 c 0
 167 65 139 84 125 84 c 0
 111 84 83 65 83 42 c 0
 83 19 111 0 125 0 c 0
225 0 m 0
 239 0 267 19 267 42 c 0
 267 65 239 84 225 84 c 0
 211 84 183 65 183 42 c 0
 183 19 211 0 225 0 c 0
325 0 m 0
 339 0 367 19 367 42 c 0
 367 65 339 84 325 84 c 0
 311 84 283 65 283 42 c 0
 283 19 311 0 325 0 c 0
EndSplineSet
EndChar

StartChar: six
Encoding: 54 54 22
Width: 500
Flags: HW
LayerCount: 2
Back
Fore
SplineSet
275 500 m 0
 289 500 317 519 317 542 c 0
 317 565 289 584 275 584 c 0
 261 584 233 565 233 542 c 0
 233 519 261 500 275 500 c 0
225 416 m 0
 239 416 267 435 267 458 c 0
 267 481 239 500 225 500 c 0
 211 500 183 481 183 458 c 0
 183 435 211 416 225 416 c 0
175 333 m 0
 189 333 217 352 217 375 c 0
 217 398 189 417 175 417 c 0
 161 417 133 398 133 375 c 0
 133 352 161 333 175 333 c 0
125 250 m 0
 139 250 167 269 167 292 c 0
 167 315 139 334 125 334 c 0
 111 334 83 315 83 292 c 0
 83 269 111 250 125 250 c 0
225 250 m 0
 239 250 267 269 267 292 c 0
 267 315 239 334 225 334 c 0
 211 334 183 315 183 292 c 0
 183 269 211 250 225 250 c 0
325 250 m 0
 339 250 367 269 367 292 c 0
 367 315 339 334 325 334 c 0
 311 334 283 315 283 292 c 0
 283 269 311 250 325 250 c 0
75 166 m 0
 89 166 117 185 117 208 c 0
 117 231 89 250 75 250 c 0
 61 250 33 231 33 208 c 0
 33 185 61 166 75 166 c 0
375 166 m 0
 389 166 417 185 417 208 c 0
 417 231 389 250 375 250 c 0
 361 250 333 231 333 208 c 0
 333 185 361 166 375 166 c 0
75 83 m 0
 89 83 117 102 117 125 c 0
 117 148 89 167 75 167 c 0
 61 167 33 148 33 125 c 0
 33 102 61 83 75 83 c 0
375 83 m 0
 389 83 417 102 417 125 c 0
 417 148 389 167 375 167 c 0
 361 167 333 148 333 125 c 0
 333 102 361 83 375 83 c 0
125 0 m 0
 139 0 167 19 167 42 c 0
 167 65 139 84 125 84 c 0
 111 84 83 65 83 42 c 0
 83 19 111 0 125 0 c 0
225 0 m 0
 239 0 267 19 267 42 c 0
 267 65 239 84 225 84 c 0
 211 84 183 65 183 42 c 0
 183 19 211 0 225 0 c 0
325 0 m 0
 339 0 367 19 367 42 c 0
 367 65 339 84 325 84 c 0
 311 84 283 65 283 42 c 0
 283 19 311 0 325 0 c 0
EndSplineSet
EndChar

StartChar: seven
Encoding: 55 55 23
Width: 500
Flags: HW
LayerCount: 2
Back
Fore
SplineSet
75 500 m 0
 89 500 117 519 117 542 c 0
 117 565 89 584 75 584 c 0
 61 584 33 565 33 542 c 0
 33 519 61 500 75 500 c 0
175 500 m 0
 189 500 217 519 217 542 c 0
 217 565 189 584 175 584 c 0
 161 584 133 565 133 542 c 0
 133 519 161 500 175 500 c 0
275 500 m 0
 289 500 317 519 317 542 c 0
 317 565 289 584 275 584 c 0
 261 584 233 565 233 542 c 0
 233 519 261 500 275 500 c 0
375 500 m 0
 389 500 417 519 417 542 c 0
 417 565 389 584 375 584 c 0
 361 584 333 565 333 542 c 0
 333 519 361 500 375 500 c 0
375 416 m 0
 389 416 417 435 417 458 c 0
 417 481 389 500 375 500 c 0
 361 500 333 481 333 458 c 0
 333 435 361 416 375 416 c 0
325 333 m 0
 339 333 367 352 367 375 c 0
 367 398 339 417 325 417 c 0
 311 417 283 398 283 375 c 0
 283 352 311 333 325 333 c 0
275 250 m 0
 289 250 317 269 317 292 c 0
 317 315 289 334 275 334 c 0
 261 334 233 315 233 292 c 0
 233 269 261 250 275 250 c 0
225 166 m 0
 239 166 267 185 267 208 c 0
 267 231 239 250 225 250 c 0
 211 250 183 231 183 208 c 0
 183 185 211 166 225 166 c 0
175 83 m 0
 189 83 217 102 217 125 c 0
 217 148 189 167 175 167 c 0
 161 167 133 148 133 125 c 0
 133 102 161 83 175 83 c 0
125 0 m 0
 139 0 167 19 167 42 c 0
 167 65 139 84 125 84 c 0
 111 84 83 65 83 42 c 0
 83 19 111 0 125 0 c 0
EndSplineSet
EndChar

StartChar: eight
Encoding: 56 56 24
Width: 500
Flags: HW
LayerCount: 2
Back
Fore
SplineSet
125 500 m 0
 139 500 167 519 167 542 c 0
 167 565 139 584 125 584 c 0
 111 584 83 565 83 542 c 0
 83 519 111 500 125 500 c 0
225 500 m 0
 239 500 267 519 267 542 c 0
 267 565 239 584 225 584 c 0
 211 584 183 565 183 542 c 0
 183 519 211 500 225 500 c 0
325 500 m 0
 339 500 367 519 367 542 c 0
 367 565 339 584 325 584 c 0
 311 584 283 565 283 542 c 0
 283 519 311 500 325 500 c 0
75 416 m 0
 89 416 117 435 117 458 c 0
 117 481 89 500 75 500 c 0
 61 500 33 481 33 458 c 0
 33 435 61 416 75 416 c 0
375 416 m 0
 389 416 417 435 417 458 c 0
 417 481 389 500 375 500 c 0
 361 500 333 481 333 458 c 0
 333 435 361 416 375 416 c 0
75 333 m 0
 89 333 117 352 117 375 c 0
 117 398 89 417 75 417 c 0
 61 417 33 398 33 375 c 0
 33 352 61 333 75 333 c 0
375 333 m 0
 389 333 417 352 417 375 c 0
 417 398 389 417 375 417 c 0
 361 417 333 398 333 375 c 0
 333 352 361 333 375 333 c 0
125 250 m 0
 139 250 167 269 167 292 c 0
 167 315 139 334 125 334 c 0
 111 334 83 315 83 292 c 0
 83 269 111 250 125 250 c 0
225 250 m 0
 239 250 267 269 267 292 c 0
 267 315 239 334 225 334 c 0
 211 334 183 315 183 292 c 0
 183 269 211 250 225 250 c 0
325 250 m 0
 339 250 367 269 367 292 c 0
 367 315 339 334 325 334 c 0
 311 334 283 315 283 292 c 0
 283 269 311 250 325 250 c 0
75 166 m 0
 89 166 117 185 117 208 c 0
 117 231 89 250 75 250 c 0
 61 250 33 231 33 208 c 0
 33 185 61 166 75 166 c 0
375 166 m 0
 389 166 417 185 417 208 c 0
 417 231 389 250 375 250 c 0
 361 250 333 231 333 208 c 0
 333 185 361 166 375 166 c 0
75 83 m 0
 89 83 117 102 117 125 c 0
 117 148 89 167 75 167 c 0
 61 167 33 148 33 125 c 0
 33 102 61 83 75 83 c 0
375 83 m 0
 389 83 417 102 417 125 c 0
 417 148 389 167 375 167 c 0
 361 167 333 148 333 125 c 0
 333 102 361 83 375 83 c 0
125 0 m 0
 139 0 167 19 167 42 c 0
 167 65 139 84 125 84 c 0
 111 84 83 65 83 42 c 0
 83 19 111 0 125 0 c 0
225 0 m 0
 239 0 267 19 267 42 c 0
 267 65 239 84 225 84 c 0
 211 84 183 65 183 42 c 0
 183 19 211 0 225 0 c 0
325 0 m 0
 339 0 367 19 367 42 c 0
 367 65 339 84 325 84 c 0
 311 84 283 65 283 42 c 0
 283 19 311 0 325 0 c 0
EndSplineSet
EndChar

StartChar: nine
Encoding: 57 57 25
Width: 500
Flags: HW
LayerCount: 2
Back
Fore
SplineSet
125 500 m 0
 139 500 167 519 167 542 c 0
 167 565 139 584 125 584 c 0
 111 584 83 565 83 542 c 0
 83 519 111 500 125 500 c 0
225 500 m 0
 239 500 267 519 267 542 c 0
 267 565 239 584 225 584 c 0
 211 584 183 565 183 542 c 0
 183 519 211 500 225 500 c 0
325 500 m 0
 339 500 367 519 367 542 c 0
 367 565 339 584 325 584 c 0
 311 584 283 565 283 542 c 0
 283 519 311 500 325 500 c 0
75 416 m 0
 89 416 117 435 117 458 c 0
 117 481 89 500 75 500 c 0
 61 500 33 481 33 458 c 0
 33 435 61 416 75 416 c 0
375 416 m 0
 389 416 417 435 417 458 c 0
 417 481 389 500 375 500 c 0
 361 500 333 481 333 458 c 0
 333 435 361 416 375 416 c 0
75 333 m 0
 89 333 117 352 117 375 c 0
 117 398 89 417 75 417 c 0
 61 417 33 398 33 375 c 0
 33 352 61 333 75 333 c 0
375 333 m 0
 389 333 417 352 417 375 c 0
 417 398 389 417 375 417 c 0
 361 417 333 398 333 375 c 0
 333 352 361 333 375 333 c 0
125 250 m 0
 139 250 167 269 167 292 c 0
 167 315 139 334 125 334 c 0
 111 334 83 315 83 292 c 0
 83 269 111 250 125 250 c 0
225 250 m 0
 239 250 267 269 267 292 c 0
 267 315 239 334 225 334 c 0
 211 334 183 315 183 292 c 0
 183 269 211 250 225 250 c 0
325 250 m 0
 339 250 367 269 367 292 c 0
 367 315 339 334 325 334 c 0
 311 334 283 315 283 292 c 0
 283 269 311 250 325 250 c 0
275 166 m 0
 289 166 317 185 317 208 c 0
 317 231 289 250 275 250 c 0
 261 250 233 231 233 208 c 0
 233 185 261 166 275 166 c 0
225 83 m 0
 239 83 267 102 267 125 c 0
 267 148 239 167 225 167 c 0
 211 167 183 148 183 125 c 0
 183 102 211 83 225 83 c 0
175 0 m 0
 189 0 217 19 217 42 c 0
 217 65 189 84 175 84 c 0
 161 84 133 65 133 42 c 0
 133 19 161 0 175 0 c 0
EndSplineSet
EndChar

StartChar: colon
Encoding: 58 58 26
Width: 500
Flags: HW
LayerCount: 2
Back
Fore
SplineSet
225 500 m 0
 239 500 267 519 267 542 c 0
 267 565 239 584 225 584 c 0
 211 584 183 565 183 542 c 0
 183 519 211 500 225 500 c 0
175 416 m 0
 189 416 217 435 217 458 c 0
 217 481 189 500 175 500 c 0
 161 500 133 481 133 458 c 0
 133 435 161 416 175 416 c 0
275 416 m 0
 289 416 317 435 317 458 c 0
 317 481 289 500 275 500 c 0
 261 500 233 481 233 458 c 0
 233 435 261 416 275 416 c 0
225 333 m 0
 239 333 267 352 267 375 c 0
 267 398 239 417 225 417 c 0
 211 417 183 398 183 375 c 0
 183 352 211 333 225 333 c 0
225 166 m 0
 239 166 267 185 267 208 c 0
 267 231 239 250 225 250 c 0
 211 250 183 231 183 208 c 0
 183 185 211 166 225 166 c 0
175 83 m 0
 189 83 217 102 217 125 c 0
 217 148 189 167 175 167 c 0
 161 167 133 148 133 125 c 0
 133 102 161 83 175 83 c 0
275 83 m 0
 289 83 317 102 317 125 c 0
 317 148 289 167 275 167 c 0
 261 167 233 148 233 125 c 0
 233 102 261 83 275 83 c 0
225 0 m 0
 239 0 267 19 267 42 c 0
 267 65 239 84 225 84 c 0
 211 84 183 65 183 42 c 0
 183 19 211 0 225 0 c 0
EndSplineSet
EndChar

StartChar: semicolon
Encoding: 59 59 27
Width: 500
Flags: HW
LayerCount: 2
Back
Fore
SplineSet
225 500 m 0
 239 500 267 519 267 542 c 0
 267 565 239 584 225 584 c 0
 211 584 183 565 183 542 c 0
 183 519 211 500 225 500 c 0
175 416 m 0
 189 416 217 435 217 458 c 0
 217 481 189 500 175 500 c 0
 161 500 133 481 133 458 c 0
 133 435 161 416 175 416 c 0
275 416 m 0
 289 416 317 435 317 458 c 0
 317 481 289 500 275 500 c 0
 261 500 233 481 233 458 c 0
 233 435 261 416 275 416 c 0
175 250 m 0
 189 250 217 269 217 292 c 0
 217 315 189 334 175 334 c 0
 161 334 133 315 133 292 c 0
 133 269 161 250 175 250 c 0
275 250 m 0
 289 250 317 269 317 292 c 0
 317 315 289 334 275 334 c 0
 261 334 233 315 233 292 c 0
 233 269 261 250 275 250 c 0
175 166 m 0
 189 166 217 185 217 208 c 0
 217 231 189 250 175 250 c 0
 161 250 133 231 133 208 c 0
 133 185 161 166 175 166 c 0
275 166 m 0
 289 166 317 185 317 208 c 0
 317 231 289 250 275 250 c 0
 261 250 233 231 233 208 c 0
 233 185 261 166 275 166 c 0
225 83 m 0
 239 83 267 102 267 125 c 0
 267 148 239 167 225 167 c 0
 211 167 183 148 183 125 c 0
 183 102 211 83 225 83 c 0
175 0 m 0
 189 0 217 19 217 42 c 0
 217 65 189 84 175 84 c 0
 161 84 133 65 133 42 c 0
 133 19 161 0 175 0 c 0
EndSplineSet
EndChar

StartChar: less
Encoding: 60 60 28
Width: 500
Flags: HW
LayerCount: 2
Back
Fore
SplineSet
375 500 m 0
 389 500 417 519 417 542 c 0
 417 565 389 584 375 584 c 0
 361 584 333 565 333 542 c 0
 333 519 361 500 375 500 c 0
275 416 m 0
 289 416 317 435 317 458 c 0
 317 481 289 500 275 500 c 0
 261 500 233 481 233 458 c 0
 233 435 261 416 275 416 c 0
175 333 m 0
 189 333 217 352 217 375 c 0
 217 398 189 417 175 417 c 0
 161 417 133 398 133 375 c 0
 133 352 161 333 175 333 c 0
75 250 m 0
 89 250 117 269 117 292 c 0
 117 315 89 334 75 334 c 0
 61 334 33 315 33 292 c 0
 33 269 61 250 75 250 c 0
175 166 m 0
 189 166 217 185 217 208 c 0
 217 231 189 250 175 250 c 0
 161 250 133 231 133 208 c 0
 133 185 161 166 175 166 c 0
275 83 m 0
 289 83 317 102 317 125 c 0
 317 148 289 167 275 167 c 0
 261 167 233 148 233 125 c 0
 233 102 261 83 275 83 c 0
375 0 m 0
 389 0 417 19 417 42 c 0
 417 65 389 84 375 84 c 0
 361 84 333 65 333 42 c 0
 333 19 361 0 375 0 c 0
EndSplineSet
EndChar

StartChar: equal
Encoding: 61 61 29
Width: 500
Flags: HW
LayerCount: 2
Back
Fore
SplineSet
75 333 m 0
 89 333 117 352 117 375 c 0
 117 398 89 417 75 417 c 0
 61 417 33 398 33 375 c 0
 33 352 61 333 75 333 c 0
175 333 m 0
 189 333 217 352 217 375 c 0
 217 398 189 417 175 417 c 0
 161 417 133 398 133 375 c 0
 133 352 161 333 175 333 c 0
275 333 m 0
 289 333 317 352 317 375 c 0
 317 398 289 417 275 417 c 0
 261 417 233 398 233 375 c 0
 233 352 261 333 275 333 c 0
375 333 m 0
 389 333 417 352 417 375 c 0
 417 398 389 417 375 417 c 0
 361 417 333 398 333 375 c 0
 333 352 361 333 375 333 c 0
75 166 m 0
 89 166 117 185 117 208 c 0
 117 231 89 250 75 250 c 0
 61 250 33 231 33 208 c 0
 33 185 61 166 75 166 c 0
175 166 m 0
 189 166 217 185 217 208 c 0
 217 231 189 250 175 250 c 0
 161 250 133 231 133 208 c 0
 133 185 161 166 175 166 c 0
275 166 m 0
 289 166 317 185 317 208 c 0
 317 231 289 250 275 250 c 0
 261 250 233 231 233 208 c 0
 233 185 261 166 275 166 c 0
375 166 m 0
 389 166 417 185 417 208 c 0
 417 231 389 250 375 250 c 0
 361 250 333 231 333 208 c 0
 333 185 361 166 375 166 c 0
EndSplineSet
EndChar

StartChar: greater
Encoding: 62 62 30
Width: 500
Flags: HW
LayerCount: 2
Back
Fore
SplineSet
75 500 m 0
 89 500 117 519 117 542 c 0
 117 565 89 584 75 584 c 0
 61 584 33 565 33 542 c 0
 33 519 61 500 75 500 c 0
175 416 m 0
 189 416 217 435 217 458 c 0
 217 481 189 500 175 500 c 0
 161 500 133 481 133 458 c 0
 133 435 161 416 175 416 c 0
275 333 m 0
 289 333 317 352 317 375 c 0
 317 398 289 417 275 417 c 0
 261 417 233 398 233 375 c 0
 233 352 261 333 275 333 c 0
375 250 m 0
 389 250 417 269 417 292 c 0
 417 315 389 334 375 334 c 0
 361 334 333 315 333 292 c 0
 333 269 361 250 375 250 c 0
275 166 m 0
 289 166 317 185 317 208 c 0
 317 231 289 250 275 250 c 0
 261 250 233 231 233 208 c 0
 233 185 261 166 275 166 c 0
175 83 m 0
 189 83 217 102 217 125 c 0
 217 148 189 167 175 167 c 0
 161 167 133 148 133 125 c 0
 133 102 161 83 175 83 c 0
75 0 m 0
 89 0 117 19 117 42 c 0
 117 65 89 84 75 84 c 0
 61 84 33 65 33 42 c 0
 33 19 61 0 75 0 c 0
EndSplineSet
EndChar

StartChar: question
Encoding: 63 63 31
Width: 500
Flags: HW
LayerCount: 2
Back
Fore
SplineSet
125 500 m 0
 139 500 167 519 167 542 c 0
 167 565 139 584 125 584 c 0
 111 584 83 565 83 542 c 0
 83 519 111 500 125 500 c 0
225 500 m 0
 239 500 267 519 267 542 c 0
 267 565 239 584 225 584 c 0
 211 584 183 565 183 542 c 0
 183 519 211 500 225 500 c 0
325 500 m 0
 339 500 367 519 367 542 c 0
 367 565 339 584 325 584 c 0
 311 584 283 565 283 542 c 0
 283 519 311 500 325 500 c 0
75 416 m 0
 89 416 117 435 117 458 c 0
 117 481 89 500 75 500 c 0
 61 500 33 481 33 458 c 0
 33 435 61 416 75 416 c 0
375 416 m 0
 389 416 417 435 417 458 c 0
 417 481 389 500 375 500 c 0
 361 500 333 481 333 458 c 0
 333 435 361 416 375 416 c 0
225 333 m 0
 239 333 267 352 267 375 c 0
 267 398 239 417 225 417 c 0
 211 417 183 398 183 375 c 0
 183 352 211 333 225 333 c 0
325 333 m 0
 339 333 367 352 367 375 c 0
 367 398 339 417 325 417 c 0
 311 417 283 398 283 375 c 0
 283 352 311 333 325 333 c 0
225 250 m 0
 239 250 267 269 267 292 c 0
 267 315 239 334 225 334 c 0
 211 334 183 315 183 292 c 0
 183 269 211 250 225 250 c 0
225 166 m 0
 239 166 267 185 267 208 c 0
 267 231 239 250 225 250 c 0
 211 250 183 231 183 208 c 0
 183 185 211 166 225 166 c 0
225 0 m 0
 239 0 267 19 267 42 c 0
 267 65 239 84 225 84 c 0
 211 84 183 65 183 42 c 0
 183 19 211 0 225 0 c 0
EndSplineSet
EndChar

StartChar: at
Encoding: 64 64 32
Width: 500
Flags: HW
LayerCount: 2
Back
Fore
SplineSet
125 500 m 0
 139 500 167 519 167 542 c 0
 167 565 139 584 125 584 c 0
 111 584 83 565 83 542 c 0
 83 519 111 500 125 500 c 0
225 500 m 0
 239 500 267 519 267 542 c 0
 267 565 239 584 225 584 c 0
 211 584 183 565 183 542 c 0
 183 519 211 500 225 500 c 0
325 500 m 0
 339 500 367 519 367 542 c 0
 367 565 339 584 325 584 c 0
 311 584 283 565 283 542 c 0
 283 519 311 500 325 500 c 0
75 416 m 0
 89 416 117 435 117 458 c 0
 117 481 89 500 75 500 c 0
 61 500 33 481 33 458 c 0
 33 435 61 416 75 416 c 0
375 416 m 0
 389 416 417 435 417 458 c 0
 417 481 389 500 375 500 c 0
 361 500 333 481 333 458 c 0
 333 435 361 416 375 416 c 0
75 333 m 0
 89 333 117 352 117 375 c 0
 117 398 89 417 75 417 c 0
 61 417 33 398 33 375 c 0
 33 352 61 333 75 333 c 0
275 333 m 0
 289 333 317 352 317 375 c 0
 317 398 289 417 275 417 c 0
 261 417 233 398 233 375 c 0
 233 352 261 333 275 333 c 0
375 333 m 0
 389 333 417 352 417 375 c 0
 417 398 389 417 375 417 c 0
 361 417 333 398 333 375 c 0
 333 352 361 333 375 333 c 0
75 250 m 0
 89 250 117 269 117 292 c 0
 117 315 89 334 75 334 c 0
 61 334 33 315 33 292 c 0
 33 269 61 250 75 250 c 0
225 250 m 0
 239 250 267 269 267 292 c 0
 267 315 239 334 225 334 c 0
 211 334 183 315 183 292 c 0
 183 269 211 250 225 250 c 0
375 250 m 0
 389 250 417 269 417 292 c 0
 417 315 389 334 375 334 c 0
 361 334 333 315 333 292 c 0
 333 269 361 250 375 250 c 0
75 166 m 0
 89 166 117 185 117 208 c 0
 117 231 89 250 75 250 c 0
 61 250 33 231 33 208 c 0
 33 185 61 166 75 166 c 0
225 166 m 0
 239 166 267 185 267 208 c 0
 267 231 239 250 225 250 c 0
 211 250 183 231 183 208 c 0
 183 185 211 166 225 166 c 0
325 166 m 0
 339 166 367 185 367 208 c 0
 367 231 339 250 325 250 c 0
 311 250 283 231 283 208 c 0
 283 185 311 166 325 166 c 0
75 83 m 0
 89 83 117 102 117 125 c 0
 117 148 89 167 75 167 c 0
 61 167 33 148 33 125 c 0
 33 102 61 83 75 83 c 0
125 0 m 0
 139 0 167 19 167 42 c 0
 167 65 139 84 125 84 c 0
 111 84 83 65 83 42 c 0
 83 19 111 0 125 0 c 0
225 0 m 0
 239 0 267 19 267 42 c 0
 267 65 239 84 225 84 c 0
 211 84 183 65 183 42 c 0
 183 19 211 0 225 0 c 0
325 0 m 0
 339 0 367 19 367 42 c 0
 367 65 339 84 325 84 c 0
 311 84 283 65 283 42 c 0
 283 19 311 0 325 0 c 0
EndSplineSet
EndChar

StartChar: A
Encoding: 65 65 33
Width: 500
Flags: HW
LayerCount: 2
Back
Fore
SplineSet
225 500 m 0
 239 500 267 519 267 542 c 0
 267 565 239 584 225 584 c 0
 211 584 183 565 183 542 c 0
 183 519 211 500 225 500 c 0
175 416 m 0
 189 416 217 435 217 458 c 0
 217 481 189 500 175 500 c 0
 161 500 133 481 133 458 c 0
 133 435 161 416 175 416 c 0
275 416 m 0
 289 416 317 435 317 458 c 0
 317 481 289 500 275 500 c 0
 261 500 233 481 233 458 c 0
 233 435 261 416 275 416 c 0
125 333 m 0
 139 333 167 352 167 375 c 0
 167 398 139 417 125 417 c 0
 111 417 83 398 83 375 c 0
 83 352 111 333 125 333 c 0
325 333 m 0
 339 333 367 352 367 375 c 0
 367 398 339 417 325 417 c 0
 311 417 283 398 283 375 c 0
 283 352 311 333 325 333 c 0
75 250 m 0
 89 250 117 269 117 292 c 0
 117 315 89 334 75 334 c 0
 61 334 33 315 33 292 c 0
 33 269 61 250 75 250 c 0
375 250 m 0
 389 250 417 269 417 292 c 0
 417 315 389 334 375 334 c 0
 361 334 333 315 333 292 c 0
 333 269 361 250 375 250 c 0
75 166 m 0
 89 166 117 185 117 208 c 0
 117 231 89 250 75 250 c 0
 61 250 33 231 33 208 c 0
 33 185 61 166 75 166 c 0
175 166 m 0
 189 166 217 185 217 208 c 0
 217 231 189 250 175 250 c 0
 161 250 133 231 133 208 c 0
 133 185 161 166 175 166 c 0
275 166 m 0
 289 166 317 185 317 208 c 0
 317 231 289 250 275 250 c 0
 261 250 233 231 233 208 c 0
 233 185 261 166 275 166 c 0
375 166 m 0
 389 166 417 185 417 208 c 0
 417 231 389 250 375 250 c 0
 361 250 333 231 333 208 c 0
 333 185 361 166 375 166 c 0
75 83 m 0
 89 83 117 102 117 125 c 0
 117 148 89 167 75 167 c 0
 61 167 33 148 33 125 c 0
 33 102 61 83 75 83 c 0
375 83 m 0
 389 83 417 102 417 125 c 0
 417 148 389 167 375 167 c 0
 361 167 333 148 333 125 c 0
 333 102 361 83 375 83 c 0
75 0 m 0
 89 0 117 19 117 42 c 0
 117 65 89 84 75 84 c 0
 61 84 33 65 33 42 c 0
 33 19 61 0 75 0 c 0
375 0 m 0
 389 0 417 19 417 42 c 0
 417 65 389 84 375 84 c 0
 361 84 333 65 333 42 c 0
 333 19 361 0 375 0 c 0
EndSplineSet
EndChar

StartChar: B
Encoding: 66 66 34
Width: 500
Flags: HW
LayerCount: 2
Back
Fore
SplineSet
75 500 m 0
 89 500 117 519 117 542 c 0
 117 565 89 584 75 584 c 0
 61 584 33 565 33 542 c 0
 33 519 61 500 75 500 c 0
175 500 m 0
 189 500 217 519 217 542 c 0
 217 565 189 584 175 584 c 0
 161 584 133 565 133 542 c 0
 133 519 161 500 175 500 c 0
275 500 m 0
 289 500 317 519 317 542 c 0
 317 565 289 584 275 584 c 0
 261 584 233 565 233 542 c 0
 233 519 261 500 275 500 c 0
125 416 m 0
 139 416 167 435 167 458 c 0
 167 481 139 500 125 500 c 0
 111 500 83 481 83 458 c 0
 83 435 111 416 125 416 c 0
375 416 m 0
 389 416 417 435 417 458 c 0
 417 481 389 500 375 500 c 0
 361 500 333 481 333 458 c 0
 333 435 361 416 375 416 c 0
125 333 m 0
 139 333 167 352 167 375 c 0
 167 398 139 417 125 417 c 0
 111 417 83 398 83 375 c 0
 83 352 111 333 125 333 c 0
375 333 m 0
 389 333 417 352 417 375 c 0
 417 398 389 417 375 417 c 0
 361 417 333 398 333 375 c 0
 333 352 361 333 375 333 c 0
125 250 m 0
 139 250 167 269 167 292 c 0
 167 315 139 334 125 334 c 0
 111 334 83 315 83 292 c 0
 83 269 111 250 125 250 c 0
225 250 m 0
 239 250 267 269 267 292 c 0
 267 315 239 334 225 334 c 0
 211 334 183 315 183 292 c 0
 183 269 211 250 225 250 c 0
325 250 m 0
 339 250 367 269 367 292 c 0
 367 315 339 334 325 334 c 0
 311 334 283 315 283 292 c 0
 283 269 311 250 325 250 c 0
125 166 m 0
 139 166 167 185 167 208 c 0
 167 231 139 250 125 250 c 0
 111 250 83 231 83 208 c 0
 83 185 111 166 125 166 c 0
375 166 m 0
 389 166 417 185 417 208 c 0
 417 231 389 250 375 250 c 0
 361 250 333 231 333 208 c 0
 333 185 361 166 375 166 c 0
125 83 m 0
 139 83 167 102 167 125 c 0
 167 148 139 167 125 167 c 0
 111 167 83 148 83 125 c 0
 83 102 111 83 125 83 c 0
375 83 m 0
 389 83 417 102 417 125 c 0
 417 148 389 167 375 167 c 0
 361 167 333 148 333 125 c 0
 333 102 361 83 375 83 c 0
75 0 m 0
 89 0 117 19 117 42 c 0
 117 65 89 84 75 84 c 0
 61 84 33 65 33 42 c 0
 33 19 61 0 75 0 c 0
175 0 m 0
 189 0 217 19 217 42 c 0
 217 65 189 84 175 84 c 0
 161 84 133 65 133 42 c 0
 133 19 161 0 175 0 c 0
275 0 m 0
 289 0 317 19 317 42 c 0
 317 65 289 84 275 84 c 0
 261 84 233 65 233 42 c 0
 233 19 261 0 275 0 c 0
EndSplineSet
EndChar

StartChar: C
Encoding: 67 67 35
Width: 500
Flags: HW
LayerCount: 2
Back
Fore
SplineSet
125 500 m 0
 139 500 167 519 167 542 c 0
 167 565 139 584 125 584 c 0
 111 584 83 565 83 542 c 0
 83 519 111 500 125 500 c 0
225 500 m 0
 239 500 267 519 267 542 c 0
 267 565 239 584 225 584 c 0
 211 584 183 565 183 542 c 0
 183 519 211 500 225 500 c 0
325 500 m 0
 339 500 367 519 367 542 c 0
 367 565 339 584 325 584 c 0
 311 584 283 565 283 542 c 0
 283 519 311 500 325 500 c 0
75 416 m 0
 89 416 117 435 117 458 c 0
 117 481 89 500 75 500 c 0
 61 500 33 481 33 458 c 0
 33 435 61 416 75 416 c 0
375 416 m 0
 389 416 417 435 417 458 c 0
 417 481 389 500 375 500 c 0
 361 500 333 481 333 458 c 0
 333 435 361 416 375 416 c 0
75 333 m 0
 89 333 117 352 117 375 c 0
 117 398 89 417 75 417 c 0
 61 417 33 398 33 375 c 0
 33 352 61 333 75 333 c 0
75 250 m 0
 89 250 117 269 117 292 c 0
 117 315 89 334 75 334 c 0
 61 334 33 315 33 292 c 0
 33 269 61 250 75 250 c 0
75 166 m 0
 89 166 117 185 117 208 c 0
 117 231 89 250 75 250 c 0
 61 250 33 231 33 208 c 0
 33 185 61 166 75 166 c 0
75 83 m 0
 89 83 117 102 117 125 c 0
 117 148 89 167 75 167 c 0
 61 167 33 148 33 125 c 0
 33 102 61 83 75 83 c 0
375 83 m 0
 389 83 417 102 417 125 c 0
 417 148 389 167 375 167 c 0
 361 167 333 148 333 125 c 0
 333 102 361 83 375 83 c 0
125 0 m 0
 139 0 167 19 167 42 c 0
 167 65 139 84 125 84 c 0
 111 84 83 65 83 42 c 0
 83 19 111 0 125 0 c 0
225 0 m 0
 239 0 267 19 267 42 c 0
 267 65 239 84 225 84 c 0
 211 84 183 65 183 42 c 0
 183 19 211 0 225 0 c 0
325 0 m 0
 339 0 367 19 367 42 c 0
 367 65 339 84 325 84 c 0
 311 84 283 65 283 42 c 0
 283 19 311 0 325 0 c 0
EndSplineSet
EndChar

StartChar: D
Encoding: 68 68 36
Width: 500
Flags: HW
LayerCount: 2
Back
Fore
SplineSet
75 500 m 0
 89 500 117 519 117 542 c 0
 117 565 89 584 75 584 c 0
 61 584 33 565 33 542 c 0
 33 519 61 500 75 500 c 0
175 500 m 0
 189 500 217 519 217 542 c 0
 217 565 189 584 175 584 c 0
 161 584 133 565 133 542 c 0
 133 519 161 500 175 500 c 0
275 500 m 0
 289 500 317 519 317 542 c 0
 317 565 289 584 275 584 c 0
 261 584 233 565 233 542 c 0
 233 519 261 500 275 500 c 0
125 416 m 0
 139 416 167 435 167 458 c 0
 167 481 139 500 125 500 c 0
 111 500 83 481 83 458 c 0
 83 435 111 416 125 416 c 0
375 416 m 0
 389 416 417 435 417 458 c 0
 417 481 389 500 375 500 c 0
 361 500 333 481 333 458 c 0
 333 435 361 416 375 416 c 0
125 333 m 0
 139 333 167 352 167 375 c 0
 167 398 139 417 125 417 c 0
 111 417 83 398 83 375 c 0
 83 352 111 333 125 333 c 0
375 333 m 0
 389 333 417 352 417 375 c 0
 417 398 389 417 375 417 c 0
 361 417 333 398 333 375 c 0
 333 352 361 333 375 333 c 0
125 250 m 0
 139 250 167 269 167 292 c 0
 167 315 139 334 125 334 c 0
 111 334 83 315 83 292 c 0
 83 269 111 250 125 250 c 0
375 250 m 0
 389 250 417 269 417 292 c 0
 417 315 389 334 375 334 c 0
 361 334 333 315 333 292 c 0
 333 269 361 250 375 250 c 0
125 166 m 0
 139 166 167 185 167 208 c 0
 167 231 139 250 125 250 c 0
 111 250 83 231 83 208 c 0
 83 185 111 166 125 166 c 0
375 166 m 0
 389 166 417 185 417 208 c 0
 417 231 389 250 375 250 c 0
 361 250 333 231 333 208 c 0
 333 185 361 166 375 166 c 0
125 83 m 0
 139 83 167 102 167 125 c 0
 167 148 139 167 125 167 c 0
 111 167 83 148 83 125 c 0
 83 102 111 83 125 83 c 0
375 83 m 0
 389 83 417 102 417 125 c 0
 417 148 389 167 375 167 c 0
 361 167 333 148 333 125 c 0
 333 102 361 83 375 83 c 0
75 0 m 0
 89 0 117 19 117 42 c 0
 117 65 89 84 75 84 c 0
 61 84 33 65 33 42 c 0
 33 19 61 0 75 0 c 0
175 0 m 0
 189 0 217 19 217 42 c 0
 217 65 189 84 175 84 c 0
 161 84 133 65 133 42 c 0
 133 19 161 0 175 0 c 0
275 0 m 0
 289 0 317 19 317 42 c 0
 317 65 289 84 275 84 c 0
 261 84 233 65 233 42 c 0
 233 19 261 0 275 0 c 0
EndSplineSet
EndChar

StartChar: E
Encoding: 69 69 37
Width: 500
Flags: HW
LayerCount: 2
Back
Fore
SplineSet
75 500 m 0
 89 500 117 519 117 542 c 0
 117 565 89 584 75 584 c 0
 61 584 33 565 33 542 c 0
 33 519 61 500 75 500 c 0
175 500 m 0
 189 500 217 519 217 542 c 0
 217 565 189 584 175 584 c 0
 161 584 133 565 133 542 c 0
 133 519 161 500 175 500 c 0
275 500 m 0
 289 500 317 519 317 542 c 0
 317 565 289 584 275 584 c 0
 261 584 233 565 233 542 c 0
 233 519 261 500 275 500 c 0
375 500 m 0
 389 500 417 519 417 542 c 0
 417 565 389 584 375 584 c 0
 361 584 333 565 333 542 c 0
 333 519 361 500 375 500 c 0
75 416 m 0
 89 416 117 435 117 458 c 0
 117 481 89 500 75 500 c 0
 61 500 33 481 33 458 c 0
 33 435 61 416 75 416 c 0
75 333 m 0
 89 333 117 352 117 375 c 0
 117 398 89 417 75 417 c 0
 61 417 33 398 33 375 c 0
 33 352 61 333 75 333 c 0
75 250 m 0
 89 250 117 269 117 292 c 0
 117 315 89 334 75 334 c 0
 61 334 33 315 33 292 c 0
 33 269 61 250 75 250 c 0
175 250 m 0
 189 250 217 269 217 292 c 0
 217 315 189 334 175 334 c 0
 161 334 133 315 133 292 c 0
 133 269 161 250 175 250 c 0
275 250 m 0
 289 250 317 269 317 292 c 0
 317 315 289 334 275 334 c 0
 261 334 233 315 233 292 c 0
 233 269 261 250 275 250 c 0
75 166 m 0
 89 166 117 185 117 208 c 0
 117 231 89 250 75 250 c 0
 61 250 33 231 33 208 c 0
 33 185 61 166 75 166 c 0
75 83 m 0
 89 83 117 102 117 125 c 0
 117 148 89 167 75 167 c 0
 61 167 33 148 33 125 c 0
 33 102 61 83 75 83 c 0
75 0 m 0
 89 0 117 19 117 42 c 0
 117 65 89 84 75 84 c 0
 61 84 33 65 33 42 c 0
 33 19 61 0 75 0 c 0
175 0 m 0
 189 0 217 19 217 42 c 0
 217 65 189 84 175 84 c 0
 161 84 133 65 133 42 c 0
 133 19 161 0 175 0 c 0
275 0 m 0
 289 0 317 19 317 42 c 0
 317 65 289 84 275 84 c 0
 261 84 233 65 233 42 c 0
 233 19 261 0 275 0 c 0
375 0 m 0
 389 0 417 19 417 42 c 0
 417 65 389 84 375 84 c 0
 361 84 333 65 333 42 c 0
 333 19 361 0 375 0 c 0
EndSplineSet
EndChar

StartChar: F
Encoding: 70 70 38
Width: 500
Flags: HW
LayerCount: 2
Back
Fore
SplineSet
75 500 m 0
 89 500 117 519 117 542 c 0
 117 565 89 584 75 584 c 0
 61 584 33 565 33 542 c 0
 33 519 61 500 75 500 c 0
175 500 m 0
 189 500 217 519 217 542 c 0
 217 565 189 584 175 584 c 0
 161 584 133 565 133 542 c 0
 133 519 161 500 175 500 c 0
275 500 m 0
 289 500 317 519 317 542 c 0
 317 565 289 584 275 584 c 0
 261 584 233 565 233 542 c 0
 233 519 261 500 275 500 c 0
375 500 m 0
 389 500 417 519 417 542 c 0
 417 565 389 584 375 584 c 0
 361 584 333 565 333 542 c 0
 333 519 361 500 375 500 c 0
75 416 m 0
 89 416 117 435 117 458 c 0
 117 481 89 500 75 500 c 0
 61 500 33 481 33 458 c 0
 33 435 61 416 75 416 c 0
75 333 m 0
 89 333 117 352 117 375 c 0
 117 398 89 417 75 417 c 0
 61 417 33 398 33 375 c 0
 33 352 61 333 75 333 c 0
75 250 m 0
 89 250 117 269 117 292 c 0
 117 315 89 334 75 334 c 0
 61 334 33 315 33 292 c 0
 33 269 61 250 75 250 c 0
175 250 m 0
 189 250 217 269 217 292 c 0
 217 315 189 334 175 334 c 0
 161 334 133 315 133 292 c 0
 133 269 161 250 175 250 c 0
275 250 m 0
 289 250 317 269 317 292 c 0
 317 315 289 334 275 334 c 0
 261 334 233 315 233 292 c 0
 233 269 261 250 275 250 c 0
75 166 m 0
 89 166 117 185 117 208 c 0
 117 231 89 250 75 250 c 0
 61 250 33 231 33 208 c 0
 33 185 61 166 75 166 c 0
75 83 m 0
 89 83 117 102 117 125 c 0
 117 148 89 167 75 167 c 0
 61 167 33 148 33 125 c 0
 33 102 61 83 75 83 c 0
75 0 m 0
 89 0 117 19 117 42 c 0
 117 65 89 84 75 84 c 0
 61 84 33 65 33 42 c 0
 33 19 61 0 75 0 c 0
EndSplineSet
EndChar

StartChar: G
Encoding: 71 71 39
Width: 500
Flags: HW
LayerCount: 2
Back
Fore
SplineSet
125 500 m 0
 139 500 167 519 167 542 c 0
 167 565 139 584 125 584 c 0
 111 584 83 565 83 542 c 0
 83 519 111 500 125 500 c 0
225 500 m 0
 239 500 267 519 267 542 c 0
 267 565 239 584 225 584 c 0
 211 584 183 565 183 542 c 0
 183 519 211 500 225 500 c 0
325 500 m 0
 339 500 367 519 367 542 c 0
 367 565 339 584 325 584 c 0
 311 584 283 565 283 542 c 0
 283 519 311 500 325 500 c 0
75 416 m 0
 89 416 117 435 117 458 c 0
 117 481 89 500 75 500 c 0
 61 500 33 481 33 458 c 0
 33 435 61 416 75 416 c 0
375 416 m 0
 389 416 417 435 417 458 c 0
 417 481 389 500 375 500 c 0
 361 500 333 481 333 458 c 0
 333 435 361 416 375 416 c 0
75 333 m 0
 89 333 117 352 117 375 c 0
 117 398 89 417 75 417 c 0
 61 417 33 398 33 375 c 0
 33 352 61 333 75 333 c 0
75 250 m 0
 89 250 117 269 117 292 c 0
 117 315 89 334 75 334 c 0
 61 334 33 315 33 292 c 0
 33 269 61 250 75 250 c 0
275 250 m 0
 289 250 317 269 317 292 c 0
 317 315 289 334 275 334 c 0
 261 334 233 315 233 292 c 0
 233 269 261 250 275 250 c 0
375 250 m 0
 389 250 417 269 417 292 c 0
 417 315 389 334 375 334 c 0
 361 334 333 315 333 292 c 0
 333 269 361 250 375 250 c 0
75 166 m 0
 89 166 117 185 117 208 c 0
 117 231 89 250 75 250 c 0
 61 250 33 231 33 208 c 0
 33 185 61 166 75 166 c 0
375 166 m 0
 389 166 417 185 417 208 c 0
 417 231 389 250 375 250 c 0
 361 250 333 231 333 208 c 0
 333 185 361 166 375 166 c 0
75 83 m 0
 89 83 117 102 117 125 c 0
 117 148 89 167 75 167 c 0
 61 167 33 148 33 125 c 0
 33 102 61 83 75 83 c 0
375 83 m 0
 389 83 417 102 417 125 c 0
 417 148 389 167 375 167 c 0
 361 167 333 148 333 125 c 0
 333 102 361 83 375 83 c 0
125 0 m 0
 139 0 167 19 167 42 c 0
 167 65 139 84 125 84 c 0
 111 84 83 65 83 42 c 0
 83 19 111 0 125 0 c 0
225 0 m 0
 239 0 267 19 267 42 c 0
 267 65 239 84 225 84 c 0
 211 84 183 65 183 42 c 0
 183 19 211 0 225 0 c 0
325 0 m 0
 339 0 367 19 367 42 c 0
 367 65 339 84 325 84 c 0
 311 84 283 65 283 42 c 0
 283 19 311 0 325 0 c 0
EndSplineSet
EndChar

StartChar: H
Encoding: 72 72 40
Width: 500
Flags: HW
LayerCount: 2
Back
Fore
SplineSet
75 500 m 0
 89 500 117 519 117 542 c 0
 117 565 89 584 75 584 c 0
 61 584 33 565 33 542 c 0
 33 519 61 500 75 500 c 0
375 500 m 0
 389 500 417 519 417 542 c 0
 417 565 389 584 375 584 c 0
 361 584 333 565 333 542 c 0
 333 519 361 500 375 500 c 0
75 416 m 0
 89 416 117 435 117 458 c 0
 117 481 89 500 75 500 c 0
 61 500 33 481 33 458 c 0
 33 435 61 416 75 416 c 0
375 416 m 0
 389 416 417 435 417 458 c 0
 417 481 389 500 375 500 c 0
 361 500 333 481 333 458 c 0
 333 435 361 416 375 416 c 0
75 333 m 0
 89 333 117 352 117 375 c 0
 117 398 89 417 75 417 c 0
 61 417 33 398 33 375 c 0
 33 352 61 333 75 333 c 0
375 333 m 0
 389 333 417 352 417 375 c 0
 417 398 389 417 375 417 c 0
 361 417 333 398 333 375 c 0
 333 352 361 333 375 333 c 0
75 250 m 0
 89 250 117 269 117 292 c 0
 117 315 89 334 75 334 c 0
 61 334 33 315 33 292 c 0
 33 269 61 250 75 250 c 0
175 250 m 0
 189 250 217 269 217 292 c 0
 217 315 189 334 175 334 c 0
 161 334 133 315 133 292 c 0
 133 269 161 250 175 250 c 0
275 250 m 0
 289 250 317 269 317 292 c 0
 317 315 289 334 275 334 c 0
 261 334 233 315 233 292 c 0
 233 269 261 250 275 250 c 0
375 250 m 0
 389 250 417 269 417 292 c 0
 417 315 389 334 375 334 c 0
 361 334 333 315 333 292 c 0
 333 269 361 250 375 250 c 0
75 166 m 0
 89 166 117 185 117 208 c 0
 117 231 89 250 75 250 c 0
 61 250 33 231 33 208 c 0
 33 185 61 166 75 166 c 0
375 166 m 0
 389 166 417 185 417 208 c 0
 417 231 389 250 375 250 c 0
 361 250 333 231 333 208 c 0
 333 185 361 166 375 166 c 0
75 83 m 0
 89 83 117 102 117 125 c 0
 117 148 89 167 75 167 c 0
 61 167 33 148 33 125 c 0
 33 102 61 83 75 83 c 0
375 83 m 0
 389 83 417 102 417 125 c 0
 417 148 389 167 375 167 c 0
 361 167 333 148 333 125 c 0
 333 102 361 83 375 83 c 0
75 0 m 0
 89 0 117 19 117 42 c 0
 117 65 89 84 75 84 c 0
 61 84 33 65 33 42 c 0
 33 19 61 0 75 0 c 0
375 0 m 0
 389 0 417 19 417 42 c 0
 417 65 389 84 375 84 c 0
 361 84 333 65 333 42 c 0
 333 19 361 0 375 0 c 0
EndSplineSet
EndChar

StartChar: I
Encoding: 73 73 41
Width: 500
Flags: HW
LayerCount: 2
Back
Fore
SplineSet
125 500 m 0
 139 500 167 519 167 542 c 0
 167 565 139 584 125 584 c 0
 111 584 83 565 83 542 c 0
 83 519 111 500 125 500 c 0
225 500 m 0
 239 500 267 519 267 542 c 0
 267 565 239 584 225 584 c 0
 211 584 183 565 183 542 c 0
 183 519 211 500 225 500 c 0
325 500 m 0
 339 500 367 519 367 542 c 0
 367 565 339 584 325 584 c 0
 311 584 283 565 283 542 c 0
 283 519 311 500 325 500 c 0
225 416 m 0
 239 416 267 435 267 458 c 0
 267 481 239 500 225 500 c 0
 211 500 183 481 183 458 c 0
 183 435 211 416 225 416 c 0
225 333 m 0
 239 333 267 352 267 375 c 0
 267 398 239 417 225 417 c 0
 211 417 183 398 183 375 c 0
 183 352 211 333 225 333 c 0
225 250 m 0
 239 250 267 269 267 292 c 0
 267 315 239 334 225 334 c 0
 211 334 183 315 183 292 c 0
 183 269 211 250 225 250 c 0
225 166 m 0
 239 166 267 185 267 208 c 0
 267 231 239 250 225 250 c 0
 211 250 183 231 183 208 c 0
 183 185 211 166 225 166 c 0
225 83 m 0
 239 83 267 102 267 125 c 0
 267 148 239 167 225 167 c 0
 211 167 183 148 183 125 c 0
 183 102 211 83 225 83 c 0
125 0 m 0
 139 0 167 19 167 42 c 0
 167 65 139 84 125 84 c 0
 111 84 83 65 83 42 c 0
 83 19 111 0 125 0 c 0
225 0 m 0
 239 0 267 19 267 42 c 0
 267 65 239 84 225 84 c 0
 211 84 183 65 183 42 c 0
 183 19 211 0 225 0 c 0
325 0 m 0
 339 0 367 19 367 42 c 0
 367 65 339 84 325 84 c 0
 311 84 283 65 283 42 c 0
 283 19 311 0 325 0 c 0
EndSplineSet
EndChar

StartChar: J
Encoding: 74 74 42
Width: 500
Flags: HW
LayerCount: 2
Back
Fore
SplineSet
375 500 m 0
 389 500 417 519 417 542 c 0
 417 565 389 584 375 584 c 0
 361 584 333 565 333 542 c 0
 333 519 361 500 375 500 c 0
375 416 m 0
 389 416 417 435 417 458 c 0
 417 481 389 500 375 500 c 0
 361 500 333 481 333 458 c 0
 333 435 361 416 375 416 c 0
375 333 m 0
 389 333 417 352 417 375 c 0
 417 398 389 417 375 417 c 0
 361 417 333 398 333 375 c 0
 333 352 361 333 375 333 c 0
375 250 m 0
 389 250 417 269 417 292 c 0
 417 315 389 334 375 334 c 0
 361 334 333 315 333 292 c 0
 333 269 361 250 375 250 c 0
375 166 m 0
 389 166 417 185 417 208 c 0
 417 231 389 250 375 250 c 0
 361 250 333 231 333 208 c 0
 333 185 361 166 375 166 c 0
75 83 m 0
 89 83 117 102 117 125 c 0
 117 148 89 167 75 167 c 0
 61 167 33 148 33 125 c 0
 33 102 61 83 75 83 c 0
375 83 m 0
 389 83 417 102 417 125 c 0
 417 148 389 167 375 167 c 0
 361 167 333 148 333 125 c 0
 333 102 361 83 375 83 c 0
125 0 m 0
 139 0 167 19 167 42 c 0
 167 65 139 84 125 84 c 0
 111 84 83 65 83 42 c 0
 83 19 111 0 125 0 c 0
225 0 m 0
 239 0 267 19 267 42 c 0
 267 65 239 84 225 84 c 0
 211 84 183 65 183 42 c 0
 183 19 211 0 225 0 c 0
325 0 m 0
 339 0 367 19 367 42 c 0
 367 65 339 84 325 84 c 0
 311 84 283 65 283 42 c 0
 283 19 311 0 325 0 c 0
EndSplineSet
EndChar

StartChar: K
Encoding: 75 75 43
Width: 500
Flags: HW
LayerCount: 2
Back
Fore
SplineSet
75 500 m 0
 89 500 117 519 117 542 c 0
 117 565 89 584 75 584 c 0
 61 584 33 565 33 542 c 0
 33 519 61 500 75 500 c 0
375 500 m 0
 389 500 417 519 417 542 c 0
 417 565 389 584 375 584 c 0
 361 584 333 565 333 542 c 0
 333 519 361 500 375 500 c 0
75 416 m 0
 89 416 117 435 117 458 c 0
 117 481 89 500 75 500 c 0
 61 500 33 481 33 458 c 0
 33 435 61 416 75 416 c 0
275 416 m 0
 289 416 317 435 317 458 c 0
 317 481 289 500 275 500 c 0
 261 500 233 481 233 458 c 0
 233 435 261 416 275 416 c 0
75 333 m 0
 89 333 117 352 117 375 c 0
 117 398 89 417 75 417 c 0
 61 417 33 398 33 375 c 0
 33 352 61 333 75 333 c 0
175 333 m 0
 189 333 217 352 217 375 c 0
 217 398 189 417 175 417 c 0
 161 417 133 398 133 375 c 0
 133 352 161 333 175 333 c 0
75 250 m 0
 89 250 117 269 117 292 c 0
 117 315 89 334 75 334 c 0
 61 334 33 315 33 292 c 0
 33 269 61 250 75 250 c 0
225 250 m 0
 239 250 267 269 267 292 c 0
 267 315 239 334 225 334 c 0
 211 334 183 315 183 292 c 0
 183 269 211 250 225 250 c 0
75 166 m 0
 89 166 117 185 117 208 c 0
 117 231 89 250 75 250 c 0
 61 250 33 231 33 208 c 0
 33 185 61 166 75 166 c 0
275 166 m 0
 289 166 317 185 317 208 c 0
 317 231 289 250 275 250 c 0
 261 250 233 231 233 208 c 0
 233 185 261 166 275 166 c 0
75 83 m 0
 89 83 117 102 117 125 c 0
 117 148 89 167 75 167 c 0
 61 167 33 148 33 125 c 0
 33 102 61 83 75 83 c 0
325 83 m 0
 339 83 367 102 367 125 c 0
 367 148 339 167 325 167 c 0
 311 167 283 148 283 125 c 0
 283 102 311 83 325 83 c 0
75 0 m 0
 89 0 117 19 117 42 c 0
 117 65 89 84 75 84 c 0
 61 84 33 65 33 42 c 0
 33 19 61 0 75 0 c 0
375 0 m 0
 389 0 417 19 417 42 c 0
 417 65 389 84 375 84 c 0
 361 84 333 65 333 42 c 0
 333 19 361 0 375 0 c 0
EndSplineSet
EndChar

StartChar: L
Encoding: 76 76 44
Width: 500
Flags: HW
LayerCount: 2
Back
Fore
SplineSet
75 500 m 0
 89 500 117 519 117 542 c 0
 117 565 89 584 75 584 c 0
 61 584 33 565 33 542 c 0
 33 519 61 500 75 500 c 0
75 416 m 0
 89 416 117 435 117 458 c 0
 117 481 89 500 75 500 c 0
 61 500 33 481 33 458 c 0
 33 435 61 416 75 416 c 0
75 333 m 0
 89 333 117 352 117 375 c 0
 117 398 89 417 75 417 c 0
 61 417 33 398 33 375 c 0
 33 352 61 333 75 333 c 0
75 250 m 0
 89 250 117 269 117 292 c 0
 117 315 89 334 75 334 c 0
 61 334 33 315 33 292 c 0
 33 269 61 250 75 250 c 0
75 166 m 0
 89 166 117 185 117 208 c 0
 117 231 89 250 75 250 c 0
 61 250 33 231 33 208 c 0
 33 185 61 166 75 166 c 0
75 83 m 0
 89 83 117 102 117 125 c 0
 117 148 89 167 75 167 c 0
 61 167 33 148 33 125 c 0
 33 102 61 83 75 83 c 0
75 0 m 0
 89 0 117 19 117 42 c 0
 117 65 89 84 75 84 c 0
 61 84 33 65 33 42 c 0
 33 19 61 0 75 0 c 0
175 0 m 0
 189 0 217 19 217 42 c 0
 217 65 189 84 175 84 c 0
 161 84 133 65 133 42 c 0
 133 19 161 0 175 0 c 0
275 0 m 0
 289 0 317 19 317 42 c 0
 317 65 289 84 275 84 c 0
 261 84 233 65 233 42 c 0
 233 19 261 0 275 0 c 0
375 0 m 0
 389 0 417 19 417 42 c 0
 417 65 389 84 375 84 c 0
 361 84 333 65 333 42 c 0
 333 19 361 0 375 0 c 0
EndSplineSet
EndChar

StartChar: M
Encoding: 77 77 45
Width: 500
Flags: HW
LayerCount: 2
Back
Fore
SplineSet
75 500 m 0
 89 500 117 519 117 542 c 0
 117 565 89 584 75 584 c 0
 61 584 33 565 33 542 c 0
 33 519 61 500 75 500 c 0
375 500 m 0
 389 500 417 519 417 542 c 0
 417 565 389 584 375 584 c 0
 361 584 333 565 333 542 c 0
 333 519 361 500 375 500 c 0
125 416 m 0
 139 416 167 435 167 458 c 0
 167 481 139 500 125 500 c 0
 111 500 83 481 83 458 c 0
 83 435 111 416 125 416 c 0
325 416 m 0
 339 416 367 435 367 458 c 0
 367 481 339 500 325 500 c 0
 311 500 283 481 283 458 c 0
 283 435 311 416 325 416 c 0
75 333 m 0
 89 333 117 352 117 375 c 0
 117 398 89 417 75 417 c 0
 61 417 33 398 33 375 c 0
 33 352 61 333 75 333 c 0
175 333 m 0
 189 333 217 352 217 375 c 0
 217 398 189 417 175 417 c 0
 161 417 133 398 133 375 c 0
 133 352 161 333 175 333 c 0
275 333 m 0
 289 333 317 352 317 375 c 0
 317 398 289 417 275 417 c 0
 261 417 233 398 233 375 c 0
 233 352 261 333 275 333 c 0
375 333 m 0
 389 333 417 352 417 375 c 0
 417 398 389 417 375 417 c 0
 361 417 333 398 333 375 c 0
 333 352 361 333 375 333 c 0
75 250 m 0
 89 250 117 269 117 292 c 0
 117 315 89 334 75 334 c 0
 61 334 33 315 33 292 c 0
 33 269 61 250 75 250 c 0
225 250 m 0
 239 250 267 269 267 292 c 0
 267 315 239 334 225 334 c 0
 211 334 183 315 183 292 c 0
 183 269 211 250 225 250 c 0
375 250 m 0
 389 250 417 269 417 292 c 0
 417 315 389 334 375 334 c 0
 361 334 333 315 333 292 c 0
 333 269 361 250 375 250 c 0
75 166 m 0
 89 166 117 185 117 208 c 0
 117 231 89 250 75 250 c 0
 61 250 33 231 33 208 c 0
 33 185 61 166 75 166 c 0
375 166 m 0
 389 166 417 185 417 208 c 0
 417 231 389 250 375 250 c 0
 361 250 333 231 333 208 c 0
 333 185 361 166 375 166 c 0
75 83 m 0
 89 83 117 102 117 125 c 0
 117 148 89 167 75 167 c 0
 61 167 33 148 33 125 c 0
 33 102 61 83 75 83 c 0
375 83 m 0
 389 83 417 102 417 125 c 0
 417 148 389 167 375 167 c 0
 361 167 333 148 333 125 c 0
 333 102 361 83 375 83 c 0
75 0 m 0
 89 0 117 19 117 42 c 0
 117 65 89 84 75 84 c 0
 61 84 33 65 33 42 c 0
 33 19 61 0 75 0 c 0
375 0 m 0
 389 0 417 19 417 42 c 0
 417 65 389 84 375 84 c 0
 361 84 333 65 333 42 c 0
 333 19 361 0 375 0 c 0
EndSplineSet
EndChar

StartChar: N
Encoding: 78 78 46
Width: 500
Flags: HW
LayerCount: 2
Back
Fore
SplineSet
75 500 m 0
 89 500 117 519 117 542 c 0
 117 565 89 584 75 584 c 0
 61 584 33 565 33 542 c 0
 33 519 61 500 75 500 c 0
375 500 m 0
 389 500 417 519 417 542 c 0
 417 565 389 584 375 584 c 0
 361 584 333 565 333 542 c 0
 333 519 361 500 375 500 c 0
125 416 m 0
 139 416 167 435 167 458 c 0
 167 481 139 500 125 500 c 0
 111 500 83 481 83 458 c 0
 83 435 111 416 125 416 c 0
375 416 m 0
 389 416 417 435 417 458 c 0
 417 481 389 500 375 500 c 0
 361 500 333 481 333 458 c 0
 333 435 361 416 375 416 c 0
75 333 m 0
 89 333 117 352 117 375 c 0
 117 398 89 417 75 417 c 0
 61 417 33 398 33 375 c 0
 33 352 61 333 75 333 c 0
175 333 m 0
 189 333 217 352 217 375 c 0
 217 398 189 417 175 417 c 0
 161 417 133 398 133 375 c 0
 133 352 161 333 175 333 c 0
375 333 m 0
 389 333 417 352 417 375 c 0
 417 398 389 417 375 417 c 0
 361 417 333 398 333 375 c 0
 333 352 361 333 375 333 c 0
75 250 m 0
 89 250 117 269 117 292 c 0
 117 315 89 334 75 334 c 0
 61 334 33 315 33 292 c 0
 33 269 61 250 75 250 c 0
225 250 m 0
 239 250 267 269 267 292 c 0
 267 315 239 334 225 334 c 0
 211 334 183 315 183 292 c 0
 183 269 211 250 225 250 c 0
375 250 m 0
 389 250 417 269 417 292 c 0
 417 315 389 334 375 334 c 0
 361 334 333 315 333 292 c 0
 333 269 361 250 375 250 c 0
75 166 m 0
 89 166 117 185 117 208 c 0
 117 231 89 250 75 250 c 0
 61 250 33 231 33 208 c 0
 33 185 61 166 75 166 c 0
275 166 m 0
 289 166 317 185 317 208 c 0
 317 231 289 250 275 250 c 0
 261 250 233 231 233 208 c 0
 233 185 261 166 275 166 c 0
375 166 m 0
 389 166 417 185 417 208 c 0
 417 231 389 250 375 250 c 0
 361 250 333 231 333 208 c 0
 333 185 361 166 375 166 c 0
75 83 m 0
 89 83 117 102 117 125 c 0
 117 148 89 167 75 167 c 0
 61 167 33 148 33 125 c 0
 33 102 61 83 75 83 c 0
325 83 m 0
 339 83 367 102 367 125 c 0
 367 148 339 167 325 167 c 0
 311 167 283 148 283 125 c 0
 283 102 311 83 325 83 c 0
75 0 m 0
 89 0 117 19 117 42 c 0
 117 65 89 84 75 84 c 0
 61 84 33 65 33 42 c 0
 33 19 61 0 75 0 c 0
375 0 m 0
 389 0 417 19 417 42 c 0
 417 65 389 84 375 84 c 0
 361 84 333 65 333 42 c 0
 333 19 361 0 375 0 c 0
EndSplineSet
EndChar

StartChar: O
Encoding: 79 79 47
Width: 500
Flags: HW
LayerCount: 2
Back
Fore
SplineSet
125 500 m 0
 139 500 167 519 167 542 c 0
 167 565 139 584 125 584 c 0
 111 584 83 565 83 542 c 0
 83 519 111 500 125 500 c 0
225 500 m 0
 239 500 267 519 267 542 c 0
 267 565 239 584 225 584 c 0
 211 584 183 565 183 542 c 0
 183 519 211 500 225 500 c 0
325 500 m 0
 339 500 367 519 367 542 c 0
 367 565 339 584 325 584 c 0
 311 584 283 565 283 542 c 0
 283 519 311 500 325 500 c 0
75 416 m 0
 89 416 117 435 117 458 c 0
 117 481 89 500 75 500 c 0
 61 500 33 481 33 458 c 0
 33 435 61 416 75 416 c 0
375 416 m 0
 389 416 417 435 417 458 c 0
 417 481 389 500 375 500 c 0
 361 500 333 481 333 458 c 0
 333 435 361 416 375 416 c 0
75 333 m 0
 89 333 117 352 117 375 c 0
 117 398 89 417 75 417 c 0
 61 417 33 398 33 375 c 0
 33 352 61 333 75 333 c 0
375 333 m 0
 389 333 417 352 417 375 c 0
 417 398 389 417 375 417 c 0
 361 417 333 398 333 375 c 0
 333 352 361 333 375 333 c 0
75 250 m 0
 89 250 117 269 117 292 c 0
 117 315 89 334 75 334 c 0
 61 334 33 315 33 292 c 0
 33 269 61 250 75 250 c 0
375 250 m 0
 389 250 417 269 417 292 c 0
 417 315 389 334 375 334 c 0
 361 334 333 315 333 292 c 0
 333 269 361 250 375 250 c 0
75 166 m 0
 89 166 117 185 117 208 c 0
 117 231 89 250 75 250 c 0
 61 250 33 231 33 208 c 0
 33 185 61 166 75 166 c 0
375 166 m 0
 389 166 417 185 417 208 c 0
 417 231 389 250 375 250 c 0
 361 250 333 231 333 208 c 0
 333 185 361 166 375 166 c 0
75 83 m 0
 89 83 117 102 117 125 c 0
 117 148 89 167 75 167 c 0
 61 167 33 148 33 125 c 0
 33 102 61 83 75 83 c 0
375 83 m 0
 389 83 417 102 417 125 c 0
 417 148 389 167 375 167 c 0
 361 167 333 148 333 125 c 0
 333 102 361 83 375 83 c 0
125 0 m 0
 139 0 167 19 167 42 c 0
 167 65 139 84 125 84 c 0
 111 84 83 65 83 42 c 0
 83 19 111 0 125 0 c 0
225 0 m 0
 239 0 267 19 267 42 c 0
 267 65 239 84 225 84 c 0
 211 84 183 65 183 42 c 0
 183 19 211 0 225 0 c 0
325 0 m 0
 339 0 367 19 367 42 c 0
 367 65 339 84 325 84 c 0
 311 84 283 65 283 42 c 0
 283 19 311 0 325 0 c 0
EndSplineSet
EndChar

StartChar: P
Encoding: 80 80 48
Width: 500
Flags: HW
LayerCount: 2
Back
Fore
SplineSet
75 500 m 0
 89 500 117 519 117 542 c 0
 117 565 89 584 75 584 c 0
 61 584 33 565 33 542 c 0
 33 519 61 500 75 500 c 0
175 500 m 0
 189 500 217 519 217 542 c 0
 217 565 189 584 175 584 c 0
 161 584 133 565 133 542 c 0
 133 519 161 500 175 500 c 0
275 500 m 0
 289 500 317 519 317 542 c 0
 317 565 289 584 275 584 c 0
 261 584 233 565 233 542 c 0
 233 519 261 500 275 500 c 0
75 416 m 0
 89 416 117 435 117 458 c 0
 117 481 89 500 75 500 c 0
 61 500 33 481 33 458 c 0
 33 435 61 416 75 416 c 0
375 416 m 0
 389 416 417 435 417 458 c 0
 417 481 389 500 375 500 c 0
 361 500 333 481 333 458 c 0
 333 435 361 416 375 416 c 0
75 333 m 0
 89 333 117 352 117 375 c 0
 117 398 89 417 75 417 c 0
 61 417 33 398 33 375 c 0
 33 352 61 333 75 333 c 0
375 333 m 0
 389 333 417 352 417 375 c 0
 417 398 389 417 375 417 c 0
 361 417 333 398 333 375 c 0
 333 352 361 333 375 333 c 0
75 250 m 0
 89 250 117 269 117 292 c 0
 117 315 89 334 75 334 c 0
 61 334 33 315 33 292 c 0
 33 269 61 250 75 250 c 0
175 250 m 0
 189 250 217 269 217 292 c 0
 217 315 189 334 175 334 c 0
 161 334 133 315 133 292 c 0
 133 269 161 250 175 250 c 0
275 250 m 0
 289 250 317 269 317 292 c 0
 317 315 289 334 275 334 c 0
 261 334 233 315 233 292 c 0
 233 269 261 250 275 250 c 0
75 166 m 0
 89 166 117 185 117 208 c 0
 117 231 89 250 75 250 c 0
 61 250 33 231 33 208 c 0
 33 185 61 166 75 166 c 0
75 83 m 0
 89 83 117 102 117 125 c 0
 117 148 89 167 75 167 c 0
 61 167 33 148 33 125 c 0
 33 102 61 83 75 83 c 0
75 0 m 0
 89 0 117 19 117 42 c 0
 117 65 89 84 75 84 c 0
 61 84 33 65 33 42 c 0
 33 19 61 0 75 0 c 0
EndSplineSet
EndChar

StartChar: Q
Encoding: 81 81 49
Width: 500
Flags: HW
LayerCount: 2
Back
Fore
SplineSet
125 500 m 0
 139 500 167 519 167 542 c 0
 167 565 139 584 125 584 c 0
 111 584 83 565 83 542 c 0
 83 519 111 500 125 500 c 0
225 500 m 0
 239 500 267 519 267 542 c 0
 267 565 239 584 225 584 c 0
 211 584 183 565 183 542 c 0
 183 519 211 500 225 500 c 0
325 500 m 0
 339 500 367 519 367 542 c 0
 367 565 339 584 325 584 c 0
 311 584 283 565 283 542 c 0
 283 519 311 500 325 500 c 0
75 416 m 0
 89 416 117 435 117 458 c 0
 117 481 89 500 75 500 c 0
 61 500 33 481 33 458 c 0
 33 435 61 416 75 416 c 0
375 416 m 0
 389 416 417 435 417 458 c 0
 417 481 389 500 375 500 c 0
 361 500 333 481 333 458 c 0
 333 435 361 416 375 416 c 0
75 333 m 0
 89 333 117 352 117 375 c 0
 117 398 89 417 75 417 c 0
 61 417 33 398 33 375 c 0
 33 352 61 333 75 333 c 0
375 333 m 0
 389 333 417 352 417 375 c 0
 417 398 389 417 375 417 c 0
 361 417 333 398 333 375 c 0
 333 352 361 333 375 333 c 0
75 250 m 0
 89 250 117 269 117 292 c 0
 117 315 89 334 75 334 c 0
 61 334 33 315 33 292 c 0
 33 269 61 250 75 250 c 0
375 250 m 0
 389 250 417 269 417 292 c 0
 417 315 389 334 375 334 c 0
 361 334 333 315 333 292 c 0
 333 269 361 250 375 250 c 0
75 166 m 0
 89 166 117 185 117 208 c 0
 117 231 89 250 75 250 c 0
 61 250 33 231 33 208 c 0
 33 185 61 166 75 166 c 0
275 166 m 0
 289 166 317 185 317 208 c 0
 317 231 289 250 275 250 c 0
 261 250 233 231 233 208 c 0
 233 185 261 166 275 166 c 0
375 166 m 0
 389 166 417 185 417 208 c 0
 417 231 389 250 375 250 c 0
 361 250 333 231 333 208 c 0
 333 185 361 166 375 166 c 0
75 83 m 0
 89 83 117 102 117 125 c 0
 117 148 89 167 75 167 c 0
 61 167 33 148 33 125 c 0
 33 102 61 83 75 83 c 0
325 83 m 0
 339 83 367 102 367 125 c 0
 367 148 339 167 325 167 c 0
 311 167 283 148 283 125 c 0
 283 102 311 83 325 83 c 0
125 0 m 0
 139 0 167 19 167 42 c 0
 167 65 139 84 125 84 c 0
 111 84 83 65 83 42 c 0
 83 19 111 0 125 0 c 0
225 0 m 0
 239 0 267 19 267 42 c 0
 267 65 239 84 225 84 c 0
 211 84 183 65 183 42 c 0
 183 19 211 0 225 0 c 0
375 0 m 0
 389 0 417 19 417 42 c 0
 417 65 389 84 375 84 c 0
 361 84 333 65 333 42 c 0
 333 19 361 0 375 0 c 0
EndSplineSet
EndChar

StartChar: R
Encoding: 82 82 50
Width: 500
Flags: HW
LayerCount: 2
Back
Fore
SplineSet
75 500 m 0
 89 500 117 519 117 542 c 0
 117 565 89 584 75 584 c 0
 61 584 33 565 33 542 c 0
 33 519 61 500 75 500 c 0
175 500 m 0
 189 500 217 519 217 542 c 0
 217 565 189 584 175 584 c 0
 161 584 133 565 133 542 c 0
 133 519 161 500 175 500 c 0
275 500 m 0
 289 500 317 519 317 542 c 0
 317 565 289 584 275 584 c 0
 261 584 233 565 233 542 c 0
 233 519 261 500 275 500 c 0
75 416 m 0
 89 416 117 435 117 458 c 0
 117 481 89 500 75 500 c 0
 61 500 33 481 33 458 c 0
 33 435 61 416 75 416 c 0
375 416 m 0
 389 416 417 435 417 458 c 0
 417 481 389 500 375 500 c 0
 361 500 333 481 333 458 c 0
 333 435 361 416 375 416 c 0
75 333 m 0
 89 333 117 352 117 375 c 0
 117 398 89 417 75 417 c 0
 61 417 33 398 33 375 c 0
 33 352 61 333 75 333 c 0
375 333 m 0
 389 333 417 352 417 375 c 0
 417 398 389 417 375 417 c 0
 361 417 333 398 333 375 c 0
 333 352 361 333 375 333 c 0
75 250 m 0
 89 250 117 269 117 292 c 0
 117 315 89 334 75 334 c 0
 61 334 33 315 33 292 c 0
 33 269 61 250 75 250 c 0
175 250 m 0
 189 250 217 269 217 292 c 0
 217 315 189 334 175 334 c 0
 161 334 133 315 133 292 c 0
 133 269 161 250 175 250 c 0
275 250 m 0
 289 250 317 269 317 292 c 0
 317 315 289 334 275 334 c 0
 261 334 233 315 233 292 c 0
 233 269 261 250 275 250 c 0
75 166 m 0
 89 166 117 185 117 208 c 0
 117 231 89 250 75 250 c 0
 61 250 33 231 33 208 c 0
 33 185 61 166 75 166 c 0
275 166 m 0
 289 166 317 185 317 208 c 0
 317 231 289 250 275 250 c 0
 261 250 233 231 233 208 c 0
 233 185 261 166 275 166 c 0
75 83 m 0
 89 83 117 102 117 125 c 0
 117 148 89 167 75 167 c 0
 61 167 33 148 33 125 c 0
 33 102 61 83 75 83 c 0
325 83 m 0
 339 83 367 102 367 125 c 0
 367 148 339 167 325 167 c 0
 311 167 283 148 283 125 c 0
 283 102 311 83 325 83 c 0
75 0 m 0
 89 0 117 19 117 42 c 0
 117 65 89 84 75 84 c 0
 61 84 33 65 33 42 c 0
 33 19 61 0 75 0 c 0
375 0 m 0
 389 0 417 19 417 42 c 0
 417 65 389 84 375 84 c 0
 361 84 333 65 333 42 c 0
 333 19 361 0 375 0 c 0
EndSplineSet
EndChar

StartChar: S
Encoding: 83 83 51
Width: 500
Flags: HW
LayerCount: 2
Back
Fore
SplineSet
125 500 m 0
 139 500 167 519 167 542 c 0
 167 565 139 584 125 584 c 0
 111 584 83 565 83 542 c 0
 83 519 111 500 125 500 c 0
225 500 m 0
 239 500 267 519 267 542 c 0
 267 565 239 584 225 584 c 0
 211 584 183 565 183 542 c 0
 183 519 211 500 225 500 c 0
325 500 m 0
 339 500 367 519 367 542 c 0
 367 565 339 584 325 584 c 0
 311 584 283 565 283 542 c 0
 283 519 311 500 325 500 c 0
75 416 m 0
 89 416 117 435 117 458 c 0
 117 481 89 500 75 500 c 0
 61 500 33 481 33 458 c 0
 33 435 61 416 75 416 c 0
375 416 m 0
 389 416 417 435 417 458 c 0
 417 481 389 500 375 500 c 0
 361 500 333 481 333 458 c 0
 333 435 361 416 375 416 c 0
75 333 m 0
 89 333 117 352 117 375 c 0
 117 398 89 417 75 417 c 0
 61 417 33 398 33 375 c 0
 33 352 61 333 75 333 c 0
125 250 m 0
 139 250 167 269 167 292 c 0
 167 315 139 334 125 334 c 0
 111 334 83 315 83 292 c 0
 83 269 111 250 125 250 c 0
225 250 m 0
 239 250 267 269 267 292 c 0
 267 315 239 334 225 334 c 0
 211 334 183 315 183 292 c 0
 183 269 211 250 225 250 c 0
325 250 m 0
 339 250 367 269 367 292 c 0
 367 315 339 334 325 334 c 0
 311 334 283 315 283 292 c 0
 283 269 311 250 325 250 c 0
375 166 m 0
 389 166 417 185 417 208 c 0
 417 231 389 250 375 250 c 0
 361 250 333 231 333 208 c 0
 333 185 361 166 375 166 c 0
75 83 m 0
 89 83 117 102 117 125 c 0
 117 148 89 167 75 167 c 0
 61 167 33 148 33 125 c 0
 33 102 61 83 75 83 c 0
375 83 m 0
 389 83 417 102 417 125 c 0
 417 148 389 167 375 167 c 0
 361 167 333 148 333 125 c 0
 333 102 361 83 375 83 c 0
125 0 m 0
 139 0 167 19 167 42 c 0
 167 65 139 84 125 84 c 0
 111 84 83 65 83 42 c 0
 83 19 111 0 125 0 c 0
225 0 m 0
 239 0 267 19 267 42 c 0
 267 65 239 84 225 84 c 0
 211 84 183 65 183 42 c 0
 183 19 211 0 225 0 c 0
325 0 m 0
 339 0 367 19 367 42 c 0
 367 65 339 84 325 84 c 0
 311 84 283 65 283 42 c 0
 283 19 311 0 325 0 c 0
EndSplineSet
EndChar

StartChar: T
Encoding: 84 84 52
Width: 500
Flags: HW
LayerCount: 2
Back
Fore
SplineSet
75 500 m 0
 89 500 117 519 117 542 c 0
 117 565 89 584 75 584 c 0
 61 584 33 565 33 542 c 0
 33 519 61 500 75 500 c 0
175 500 m 0
 189 500 217 519 217 542 c 0
 217 565 189 584 175 584 c 0
 161 584 133 565 133 542 c 0
 133 519 161 500 175 500 c 0
275 500 m 0
 289 500 317 519 317 542 c 0
 317 565 289 584 275 584 c 0
 261 584 233 565 233 542 c 0
 233 519 261 500 275 500 c 0
375 500 m 0
 389 500 417 519 417 542 c 0
 417 565 389 584 375 584 c 0
 361 584 333 565 333 542 c 0
 333 519 361 500 375 500 c 0
225 416 m 0
 239 416 267 435 267 458 c 0
 267 481 239 500 225 500 c 0
 211 500 183 481 183 458 c 0
 183 435 211 416 225 416 c 0
225 333 m 0
 239 333 267 352 267 375 c 0
 267 398 239 417 225 417 c 0
 211 417 183 398 183 375 c 0
 183 352 211 333 225 333 c 0
225 250 m 0
 239 250 267 269 267 292 c 0
 267 315 239 334 225 334 c 0
 211 334 183 315 183 292 c 0
 183 269 211 250 225 250 c 0
225 166 m 0
 239 166 267 185 267 208 c 0
 267 231 239 250 225 250 c 0
 211 250 183 231 183 208 c 0
 183 185 211 166 225 166 c 0
225 83 m 0
 239 83 267 102 267 125 c 0
 267 148 239 167 225 167 c 0
 211 167 183 148 183 125 c 0
 183 102 211 83 225 83 c 0
225 0 m 0
 239 0 267 19 267 42 c 0
 267 65 239 84 225 84 c 0
 211 84 183 65 183 42 c 0
 183 19 211 0 225 0 c 0
EndSplineSet
EndChar

StartChar: U
Encoding: 85 85 53
Width: 500
Flags: HW
LayerCount: 2
Back
Fore
SplineSet
75 500 m 0
 89 500 117 519 117 542 c 0
 117 565 89 584 75 584 c 0
 61 584 33 565 33 542 c 0
 33 519 61 500 75 500 c 0
375 500 m 0
 389 500 417 519 417 542 c 0
 417 565 389 584 375 584 c 0
 361 584 333 565 333 542 c 0
 333 519 361 500 375 500 c 0
75 416 m 0
 89 416 117 435 117 458 c 0
 117 481 89 500 75 500 c 0
 61 500 33 481 33 458 c 0
 33 435 61 416 75 416 c 0
375 416 m 0
 389 416 417 435 417 458 c 0
 417 481 389 500 375 500 c 0
 361 500 333 481 333 458 c 0
 333 435 361 416 375 416 c 0
75 333 m 0
 89 333 117 352 117 375 c 0
 117 398 89 417 75 417 c 0
 61 417 33 398 33 375 c 0
 33 352 61 333 75 333 c 0
375 333 m 0
 389 333 417 352 417 375 c 0
 417 398 389 417 375 417 c 0
 361 417 333 398 333 375 c 0
 333 352 361 333 375 333 c 0
75 250 m 0
 89 250 117 269 117 292 c 0
 117 315 89 334 75 334 c 0
 61 334 33 315 33 292 c 0
 33 269 61 250 75 250 c 0
375 250 m 0
 389 250 417 269 417 292 c 0
 417 315 389 334 375 334 c 0
 361 334 333 315 333 292 c 0
 333 269 361 250 375 250 c 0
75 166 m 0
 89 166 117 185 117 208 c 0
 117 231 89 250 75 250 c 0
 61 250 33 231 33 208 c 0
 33 185 61 166 75 166 c 0
375 166 m 0
 389 166 417 185 417 208 c 0
 417 231 389 250 375 250 c 0
 361 250 333 231 333 208 c 0
 333 185 361 166 375 166 c 0
75 83 m 0
 89 83 117 102 117 125 c 0
 117 148 89 167 75 167 c 0
 61 167 33 148 33 125 c 0
 33 102 61 83 75 83 c 0
375 83 m 0
 389 83 417 102 417 125 c 0
 417 148 389 167 375 167 c 0
 361 167 333 148 333 125 c 0
 333 102 361 83 375 83 c 0
125 0 m 0
 139 0 167 19 167 42 c 0
 167 65 139 84 125 84 c 0
 111 84 83 65 83 42 c 0
 83 19 111 0 125 0 c 0
225 0 m 0
 239 0 267 19 267 42 c 0
 267 65 239 84 225 84 c 0
 211 84 183 65 183 42 c 0
 183 19 211 0 225 0 c 0
325 0 m 0
 339 0 367 19 367 42 c 0
 367 65 339 84 325 84 c 0
 311 84 283 65 283 42 c 0
 283 19 311 0 325 0 c 0
EndSplineSet
EndChar

StartChar: V
Encoding: 86 86 54
Width: 500
Flags: HW
LayerCount: 2
Back
Fore
SplineSet
75 500 m 0
 89 500 117 519 117 542 c 0
 117 565 89 584 75 584 c 0
 61 584 33 565 33 542 c 0
 33 519 61 500 75 500 c 0
375 500 m 0
 389 500 417 519 417 542 c 0
 417 565 389 584 375 584 c 0
 361 584 333 565 333 542 c 0
 333 519 361 500 375 500 c 0
75 416 m 0
 89 416 117 435 117 458 c 0
 117 481 89 500 75 500 c 0
 61 500 33 481 33 458 c 0
 33 435 61 416 75 416 c 0
375 416 m 0
 389 416 417 435 417 458 c 0
 417 481 389 500 375 500 c 0
 361 500 333 481 333 458 c 0
 333 435 361 416 375 416 c 0
75 333 m 0
 89 333 117 352 117 375 c 0
 117 398 89 417 75 417 c 0
 61 417 33 398 33 375 c 0
 33 352 61 333 75 333 c 0
375 333 m 0
 389 333 417 352 417 375 c 0
 417 398 389 417 375 417 c 0
 361 417 333 398 333 375 c 0
 333 352 361 333 375 333 c 0
75 250 m 0
 89 250 117 269 117 292 c 0
 117 315 89 334 75 334 c 0
 61 334 33 315 33 292 c 0
 33 269 61 250 75 250 c 0
375 250 m 0
 389 250 417 269 417 292 c 0
 417 315 389 334 375 334 c 0
 361 334 333 315 333 292 c 0
 333 269 361 250 375 250 c 0
125 166 m 0
 139 166 167 185 167 208 c 0
 167 231 139 250 125 250 c 0
 111 250 83 231 83 208 c 0
 83 185 111 166 125 166 c 0
325 166 m 0
 339 166 367 185 367 208 c 0
 367 231 339 250 325 250 c 0
 311 250 283 231 283 208 c 0
 283 185 311 166 325 166 c 0
175 83 m 0
 189 83 217 102 217 125 c 0
 217 148 189 167 175 167 c 0
 161 167 133 148 133 125 c 0
 133 102 161 83 175 83 c 0
275 83 m 0
 289 83 317 102 317 125 c 0
 317 148 289 167 275 167 c 0
 261 167 233 148 233 125 c 0
 233 102 261 83 275 83 c 0
225 0 m 0
 239 0 267 19 267 42 c 0
 267 65 239 84 225 84 c 0
 211 84 183 65 183 42 c 0
 183 19 211 0 225 0 c 0
EndSplineSet
EndChar

StartChar: W
Encoding: 87 87 55
Width: 500
Flags: HW
LayerCount: 2
Back
Fore
SplineSet
75 500 m 0
 89 500 117 519 117 542 c 0
 117 565 89 584 75 584 c 0
 61 584 33 565 33 542 c 0
 33 519 61 500 75 500 c 0
375 500 m 0
 389 500 417 519 417 542 c 0
 417 565 389 584 375 584 c 0
 361 584 333 565 333 542 c 0
 333 519 361 500 375 500 c 0
75 416 m 0
 89 416 117 435 117 458 c 0
 117 481 89 500 75 500 c 0
 61 500 33 481 33 458 c 0
 33 435 61 416 75 416 c 0
375 416 m 0
 389 416 417 435 417 458 c 0
 417 481 389 500 375 500 c 0
 361 500 333 481 333 458 c 0
 333 435 361 416 375 416 c 0
75 333 m 0
 89 333 117 352 117 375 c 0
 117 398 89 417 75 417 c 0
 61 417 33 398 33 375 c 0
 33 352 61 333 75 333 c 0
375 333 m 0
 389 333 417 352 417 375 c 0
 417 398 389 417 375 417 c 0
 361 417 333 398 333 375 c 0
 333 352 361 333 375 333 c 0
75 250 m 0
 89 250 117 269 117 292 c 0
 117 315 89 334 75 334 c 0
 61 334 33 315 33 292 c 0
 33 269 61 250 75 250 c 0
225 250 m 0
 239 250 267 269 267 292 c 0
 267 315 239 334 225 334 c 0
 211 334 183 315 183 292 c 0
 183 269 211 250 225 250 c 0
375 250 m 0
 389 250 417 269 417 292 c 0
 417 315 389 334 375 334 c 0
 361 334 333 315 333 292 c 0
 333 269 361 250 375 250 c 0
75 166 m 0
 89 166 117 185 117 208 c 0
 117 231 89 250 75 250 c 0
 61 250 33 231 33 208 c 0
 33 185 61 166 75 166 c 0
225 166 m 0
 239 166 267 185 267 208 c 0
 267 231 239 250 225 250 c 0
 211 250 183 231 183 208 c 0
 183 185 211 166 225 166 c 0
375 166 m 0
 389 166 417 185 417 208 c 0
 417 231 389 250 375 250 c 0
 361 250 333 231 333 208 c 0
 333 185 361 166 375 166 c 0
75 83 m 0
 89 83 117 102 117 125 c 0
 117 148 89 167 75 167 c 0
 61 167 33 148 33 125 c 0
 33 102 61 83 75 83 c 0
175 83 m 0
 189 83 217 102 217 125 c 0
 217 148 189 167 175 167 c 0
 161 167 133 148 133 125 c 0
 133 102 161 83 175 83 c 0
275 83 m 0
 289 83 317 102 317 125 c 0
 317 148 289 167 275 167 c 0
 261 167 233 148 233 125 c 0
 233 102 261 83 275 83 c 0
375 83 m 0
 389 83 417 102 417 125 c 0
 417 148 389 167 375 167 c 0
 361 167 333 148 333 125 c 0
 333 102 361 83 375 83 c 0
125 0 m 0
 139 0 167 19 167 42 c 0
 167 65 139 84 125 84 c 0
 111 84 83 65 83 42 c 0
 83 19 111 0 125 0 c 0
325 0 m 0
 339 0 367 19 367 42 c 0
 367 65 339 84 325 84 c 0
 311 84 283 65 283 42 c 0
 283 19 311 0 325 0 c 0
EndSplineSet
EndChar

StartChar: X
Encoding: 88 88 56
Width: 500
Flags: HW
LayerCount: 2
Back
Fore
SplineSet
75 500 m 0
 89 500 117 519 117 542 c 0
 117 565 89 584 75 584 c 0
 61 584 33 565 33 542 c 0
 33 519 61 500 75 500 c 0
375 500 m 0
 389 500 417 519 417 542 c 0
 417 565 389 584 375 584 c 0
 361 584 333 565 333 542 c 0
 333 519 361 500 375 500 c 0
125 416 m 0
 139 416 167 435 167 458 c 0
 167 481 139 500 125 500 c 0
 111 500 83 481 83 458 c 0
 83 435 111 416 125 416 c 0
325 416 m 0
 339 416 367 435 367 458 c 0
 367 481 339 500 325 500 c 0
 311 500 283 481 283 458 c 0
 283 435 311 416 325 416 c 0
175 333 m 0
 189 333 217 352 217 375 c 0
 217 398 189 417 175 417 c 0
 161 417 133 398 133 375 c 0
 133 352 161 333 175 333 c 0
275 333 m 0
 289 333 317 352 317 375 c 0
 317 398 289 417 275 417 c 0
 261 417 233 398 233 375 c 0
 233 352 261 333 275 333 c 0
225 250 m 0
 239 250 267 269 267 292 c 0
 267 315 239 334 225 334 c 0
 211 334 183 315 183 292 c 0
 183 269 211 250 225 250 c 0
175 166 m 0
 189 166 217 185 217 208 c 0
 217 231 189 250 175 250 c 0
 161 250 133 231 133 208 c 0
 133 185 161 166 175 166 c 0
275 166 m 0
 289 166 317 185 317 208 c 0
 317 231 289 250 275 250 c 0
 261 250 233 231 233 208 c 0
 233 185 261 166 275 166 c 0
125 83 m 0
 139 83 167 102 167 125 c 0
 167 148 139 167 125 167 c 0
 111 167 83 148 83 125 c 0
 83 102 111 83 125 83 c 0
325 83 m 0
 339 83 367 102 367 125 c 0
 367 148 339 167 325 167 c 0
 311 167 283 148 283 125 c 0
 283 102 311 83 325 83 c 0
75 0 m 0
 89 0 117 19 117 42 c 0
 117 65 89 84 75 84 c 0
 61 84 33 65 33 42 c 0
 33 19 61 0 75 0 c 0
375 0 m 0
 389 0 417 19 417 42 c 0
 417 65 389 84 375 84 c 0
 361 84 333 65 333 42 c 0
 333 19 361 0 375 0 c 0
EndSplineSet
EndChar

StartChar: Y
Encoding: 89 89 57
Width: 500
Flags: HW
LayerCount: 2
Back
Fore
SplineSet
75 500 m 0
 89 500 117 519 117 542 c 0
 117 565 89 584 75 584 c 0
 61 584 33 565 33 542 c 0
 33 519 61 500 75 500 c 0
375 500 m 0
 389 500 417 519 417 542 c 0
 417 565 389 584 375 584 c 0
 361 584 333 565 333 542 c 0
 333 519 361 500 375 500 c 0
125 416 m 0
 139 416 167 435 167 458 c 0
 167 481 139 500 125 500 c 0
 111 500 83 481 83 458 c 0
 83 435 111 416 125 416 c 0
325 416 m 0
 339 416 367 435 367 458 c 0
 367 481 339 500 325 500 c 0
 311 500 283 481 283 458 c 0
 283 435 311 416 325 416 c 0
175 333 m 0
 189 333 217 352 217 375 c 0
 217 398 189 417 175 417 c 0
 161 417 133 398 133 375 c 0
 133 352 161 333 175 333 c 0
275 333 m 0
 289 333 317 352 317 375 c 0
 317 398 289 417 275 417 c 0
 261 417 233 398 233 375 c 0
 233 352 261 333 275 333 c 0
225 250 m 0
 239 250 267 269 267 292 c 0
 267 315 239 334 225 334 c 0
 211 334 183 315 183 292 c 0
 183 269 211 250 225 250 c 0
225 166 m 0
 239 166 267 185 267 208 c 0
 267 231 239 250 225 250 c 0
 211 250 183 231 183 208 c 0
 183 185 211 166 225 166 c 0
225 83 m 0
 239 83 267 102 267 125 c 0
 267 148 239 167 225 167 c 0
 211 167 183 148 183 125 c 0
 183 102 211 83 225 83 c 0
225 0 m 0
 239 0 267 19 267 42 c 0
 267 65 239 84 225 84 c 0
 211 84 183 65 183 42 c 0
 183 19 211 0 225 0 c 0
EndSplineSet
EndChar

StartChar: Z
Encoding: 90 90 58
Width: 500
Flags: HW
LayerCount: 2
Back
Fore
SplineSet
75 500 m 0
 89 500 117 519 117 542 c 0
 117 565 89 584 75 584 c 0
 61 584 33 565 33 542 c 0
 33 519 61 500 75 500 c 0
175 500 m 0
 189 500 217 519 217 542 c 0
 217 565 189 584 175 584 c 0
 161 584 133 565 133 542 c 0
 133 519 161 500 175 500 c 0
275 500 m 0
 289 500 317 519 317 542 c 0
 317 565 289 584 275 584 c 0
 261 584 233 565 233 542 c 0
 233 519 261 500 275 500 c 0
375 500 m 0
 389 500 417 519 417 542 c 0
 417 565 389 584 375 584 c 0
 361 584 333 565 333 542 c 0
 333 519 361 500 375 500 c 0
325 416 m 0
 339 416 367 435 367 458 c 0
 367 481 339 500 325 500 c 0
 311 500 283 481 283 458 c 0
 283 435 311 416 325 416 c 0
275 333 m 0
 289 333 317 352 317 375 c 0
 317 398 289 417 275 417 c 0
 261 417 233 398 233 375 c 0
 233 352 261 333 275 333 c 0
225 250 m 0
 239 250 267 269 267 292 c 0
 267 315 239 334 225 334 c 0
 211 334 183 315 183 292 c 0
 183 269 211 250 225 250 c 0
175 166 m 0
 189 166 217 185 217 208 c 0
 217 231 189 250 175 250 c 0
 161 250 133 231 133 208 c 0
 133 185 161 166 175 166 c 0
125 83 m 0
 139 83 167 102 167 125 c 0
 167 148 139 167 125 167 c 0
 111 167 83 148 83 125 c 0
 83 102 111 83 125 83 c 0
75 0 m 0
 89 0 117 19 117 42 c 0
 117 65 89 84 75 84 c 0
 61 84 33 65 33 42 c 0
 33 19 61 0 75 0 c 0
175 0 m 0
 189 0 217 19 217 42 c 0
 217 65 189 84 175 84 c 0
 161 84 133 65 133 42 c 0
 133 19 161 0 175 0 c 0
275 0 m 0
 289 0 317 19 317 42 c 0
 317 65 289 84 275 84 c 0
 261 84 233 65 233 42 c 0
 233 19 261 0 275 0 c 0
375 0 m 0
 389 0 417 19 417 42 c 0
 417 65 389 84 375 84 c 0
 361 84 333 65 333 42 c 0
 333 19 361 0 375 0 c 0
EndSplineSet
EndChar

StartChar: bracketleft
Encoding: 91 91 59
Width: 500
Flags: HW
LayerCount: 2
Back
Fore
SplineSet
175 500 m 0
 189 500 217 519 217 542 c 0
 217 565 189 584 175 584 c 0
 161 584 133 565 133 542 c 0
 133 519 161 500 175 500 c 0
275 500 m 0
 289 500 317 519 317 542 c 0
 317 565 289 584 275 584 c 0
 261 584 233 565 233 542 c 0
 233 519 261 500 275 500 c 0
375 500 m 0
 389 500 417 519 417 542 c 0
 417 565 389 584 375 584 c 0
 361 584 333 565 333 542 c 0
 333 519 361 500 375 500 c 0
175 416 m 0
 189 416 217 435 217 458 c 0
 217 481 189 500 175 500 c 0
 161 500 133 481 133 458 c 0
 133 435 161 416 175 416 c 0
175 333 m 0
 189 333 217 352 217 375 c 0
 217 398 189 417 175 417 c 0
 161 417 133 398 133 375 c 0
 133 352 161 333 175 333 c 0
175 250 m 0
 189 250 217 269 217 292 c 0
 217 315 189 334 175 334 c 0
 161 334 133 315 133 292 c 0
 133 269 161 250 175 250 c 0
175 166 m 0
 189 166 217 185 217 208 c 0
 217 231 189 250 175 250 c 0
 161 250 133 231 133 208 c 0
 133 185 161 166 175 166 c 0
175 83 m 0
 189 83 217 102 217 125 c 0
 217 148 189 167 175 167 c 0
 161 167 133 148 133 125 c 0
 133 102 161 83 175 83 c 0
175 0 m 0
 189 0 217 19 217 42 c 0
 217 65 189 84 175 84 c 0
 161 84 133 65 133 42 c 0
 133 19 161 0 175 0 c 0
275 0 m 0
 289 0 317 19 317 42 c 0
 317 65 289 84 275 84 c 0
 261 84 233 65 233 42 c 0
 233 19 261 0 275 0 c 0
375 0 m 0
 389 0 417 19 417 42 c 0
 417 65 389 84 375 84 c 0
 361 84 333 65 333 42 c 0
 333 19 361 0 375 0 c 0
EndSplineSet
EndChar

StartChar: backslash
Encoding: 92 92 60
Width: 500
Flags: HW
LayerCount: 2
Back
Fore
SplineSet
75 500 m 0
 89 500 117 519 117 542 c 0
 117 565 89 584 75 584 c 0
 61 584 33 565 33 542 c 0
 33 519 61 500 75 500 c 0
125 416 m 0
 139 416 167 435 167 458 c 0
 167 481 139 500 125 500 c 0
 111 500 83 481 83 458 c 0
 83 435 111 416 125 416 c 0
175 333 m 0
 189 333 217 352 217 375 c 0
 217 398 189 417 175 417 c 0
 161 417 133 398 133 375 c 0
 133 352 161 333 175 333 c 0
225 250 m 0
 239 250 267 269 267 292 c 0
 267 315 239 334 225 334 c 0
 211 334 183 315 183 292 c 0
 183 269 211 250 225 250 c 0
275 166 m 0
 289 166 317 185 317 208 c 0
 317 231 289 250 275 250 c 0
 261 250 233 231 233 208 c 0
 233 185 261 166 275 166 c 0
325 83 m 0
 339 83 367 102 367 125 c 0
 367 148 339 167 325 167 c 0
 311 167 283 148 283 125 c 0
 283 102 311 83 325 83 c 0
375 0 m 0
 389 0 417 19 417 42 c 0
 417 65 389 84 375 84 c 0
 361 84 333 65 333 42 c 0
 333 19 361 0 375 0 c 0
EndSplineSet
EndChar

StartChar: bracketright
Encoding: 93 93 61
Width: 500
Flags: HW
LayerCount: 2
Back
Fore
SplineSet
75 500 m 0
 89 500 117 519 117 542 c 0
 117 565 89 584 75 584 c 0
 61 584 33 565 33 542 c 0
 33 519 61 500 75 500 c 0
175 500 m 0
 189 500 217 519 217 542 c 0
 217 565 189 584 175 584 c 0
 161 584 133 565 133 542 c 0
 133 519 161 500 175 500 c 0
275 500 m 0
 289 500 317 519 317 542 c 0
 317 565 289 584 275 584 c 0
 261 584 233 565 233 542 c 0
 233 519 261 500 275 500 c 0
275 416 m 0
 289 416 317 435 317 458 c 0
 317 481 289 500 275 500 c 0
 261 500 233 481 233 458 c 0
 233 435 261 416 275 416 c 0
275 333 m 0
 289 333 317 352 317 375 c 0
 317 398 289 417 275 417 c 0
 261 417 233 398 233 375 c 0
 233 352 261 333 275 333 c 0
275 250 m 0
 289 250 317 269 317 292 c 0
 317 315 289 334 275 334 c 0
 261 334 233 315 233 292 c 0
 233 269 261 250 275 250 c 0
275 166 m 0
 289 166 317 185 317 208 c 0
 317 231 289 250 275 250 c 0
 261 250 233 231 233 208 c 0
 233 185 261 166 275 166 c 0
275 83 m 0
 289 83 317 102 317 125 c 0
 317 148 289 167 275 167 c 0
 261 167 233 148 233 125 c 0
 233 102 261 83 275 83 c 0
75 0 m 0
 89 0 117 19 117 42 c 0
 117 65 89 84 75 84 c 0
 61 84 33 65 33 42 c 0
 33 19 61 0 75 0 c 0
175 0 m 0
 189 0 217 19 217 42 c 0
 217 65 189 84 175 84 c 0
 161 84 133 65 133 42 c 0
 133 19 161 0 175 0 c 0
275 0 m 0
 289 0 317 19 317 42 c 0
 317 65 289 84 275 84 c 0
 261 84 233 65 233 42 c 0
 233 19 261 0 275 0 c 0
EndSplineSet
EndChar

StartChar: asciicircum
Encoding: 94 94 62
Width: 500
Flags: HW
LayerCount: 2
Back
Fore
SplineSet
125 500 m 0
 139 500 167 519 167 542 c 0
 167 565 139 584 125 584 c 0
 111 584 83 565 83 542 c 0
 83 519 111 500 125 500 c 0
225 500 m 0
 239 500 267 519 267 542 c 0
 267 565 239 584 225 584 c 0
 211 584 183 565 183 542 c 0
 183 519 211 500 225 500 c 0
325 500 m 0
 339 500 367 519 367 542 c 0
 367 565 339 584 325 584 c 0
 311 584 283 565 283 542 c 0
 283 519 311 500 325 500 c 0
75 416 m 0
 89 416 117 435 117 458 c 0
 117 481 89 500 75 500 c 0
 61 500 33 481 33 458 c 0
 33 435 61 416 75 416 c 0
375 416 m 0
 389 416 417 435 417 458 c 0
 417 481 389 500 375 500 c 0
 361 500 333 481 333 458 c 0
 333 435 361 416 375 416 c 0
EndSplineSet
EndChar

StartChar: underscore
Encoding: 95 95 63
Width: 500
Flags: HW
LayerCount: 2
Back
Fore
SplineSet
75 0 m 0
 89 0 117 19 117 42 c 0
 117 65 89 84 75 84 c 0
 61 84 33 65 33 42 c 0
 33 19 61 0 75 0 c 0
175 0 m 0
 189 0 217 19 217 42 c 0
 217 65 189 84 175 84 c 0
 161 84 133 65 133 42 c 0
 133 19 161 0 175 0 c 0
275 0 m 0
 289 0 317 19 317 42 c 0
 317 65 289 84 275 84 c 0
 261 84 233 65 233 42 c 0
 233 19 261 0 275 0 c 0
375 0 m 0
 389 0 417 19 417 42 c 0
 417 65 389 84 375 84 c 0
 361 84 333 65 333 42 c 0
 333 19 361 0 375 0 c 0
EndSplineSet
EndChar

StartChar: grave
Encoding: 96 96 64
Width: 500
Flags: HW
LayerCount: 2
Back
Fore
SplineSet
175 500 m 0
 189 500 217 519 217 542 c 0
 217 565 189 584 175 584 c 0
 161 584 133 565 133 542 c 0
 133 519 161 500 175 500 c 0
225 416 m 0
 239 416 267 435 267 458 c 0
 267 481 239 500 225 500 c 0
 211 500 183 481 183 458 c 0
 183 435 211 416 225 416 c 0
275 333 m 0
 289 333 317 352 317 375 c 0
 317 398 289 417 275 417 c 0
 261 417 233 398 233 375 c 0
 233 352 261 333 275 333 c 0
EndSplineSet
EndChar

StartChar: a
Encoding: 97 97 65
Width: 500
Flags: HW
LayerCount: 2
Back
Fore
SplineSet
125 333 m 0
 139 333 167 352 167 375 c 0
 167 398 139 417 125 417 c 0
 111 417 83 398 83 375 c 0
 83 352 111 333 125 333 c 0
225 333 m 0
 239 333 267 352 267 375 c 0
 267 398 239 417 225 417 c 0
 211 417 183 398 183 375 c 0
 183 352 211 333 225 333 c 0
325 333 m 0
 339 333 367 352 367 375 c 0
 367 398 339 417 325 417 c 0
 311 417 283 398 283 375 c 0
 283 352 311 333 325 333 c 0
375 250 m 0
 389 250 417 269 417 292 c 0
 417 315 389 334 375 334 c 0
 361 334 333 315 333 292 c 0
 333 269 361 250 375 250 c 0
125 166 m 0
 139 166 167 185 167 208 c 0
 167 231 139 250 125 250 c 0
 111 250 83 231 83 208 c 0
 83 185 111 166 125 166 c 0
225 166 m 0
 239 166 267 185 267 208 c 0
 267 231 239 250 225 250 c 0
 211 250 183 231 183 208 c 0
 183 185 211 166 225 166 c 0
325 166 m 0
 339 166 367 185 367 208 c 0
 367 231 339 250 325 250 c 0
 311 250 283 231 283 208 c 0
 283 185 311 166 325 166 c 0
75 83 m 0
 89 83 117 102 117 125 c 0
 117 148 89 167 75 167 c 0
 61 167 33 148 33 125 c 0
 33 102 61 83 75 83 c 0
375 83 m 0
 389 83 417 102 417 125 c 0
 417 148 389 167 375 167 c 0
 361 167 333 148 333 125 c 0
 333 102 361 83 375 83 c 0
125 0 m 0
 139 0 167 19 167 42 c 0
 167 65 139 84 125 84 c 0
 111 84 83 65 83 42 c 0
 83 19 111 0 125 0 c 0
225 0 m 0
 239 0 267 19 267 42 c 0
 267 65 239 84 225 84 c 0
 211 84 183 65 183 42 c 0
 183 19 211 0 225 0 c 0
325 0 m 0
 339 0 367 19 367 42 c 0
 367 65 339 84 325 84 c 0
 311 84 283 65 283 42 c 0
 283 19 311 0 325 0 c 0
EndSplineSet
EndChar

StartChar: b
Encoding: 98 98 66
Width: 500
Flags: HW
LayerCount: 2
Back
Fore
SplineSet
75 500 m 0
 89 500 117 519 117 542 c 0
 117 565 89 584 75 584 c 0
 61 584 33 565 33 542 c 0
 33 519 61 500 75 500 c 0
75 416 m 0
 89 416 117 435 117 458 c 0
 117 481 89 500 75 500 c 0
 61 500 33 481 33 458 c 0
 33 435 61 416 75 416 c 0
125 333 m 0
 139 333 167 352 167 375 c 0
 167 398 139 417 125 417 c 0
 111 417 83 398 83 375 c 0
 83 352 111 333 125 333 c 0
225 333 m 0
 239 333 267 352 267 375 c 0
 267 398 239 417 225 417 c 0
 211 417 183 398 183 375 c 0
 183 352 211 333 225 333 c 0
325 333 m 0
 339 333 367 352 367 375 c 0
 367 398 339 417 325 417 c 0
 311 417 283 398 283 375 c 0
 283 352 311 333 325 333 c 0
75 250 m 0
 89 250 117 269 117 292 c 0
 117 315 89 334 75 334 c 0
 61 334 33 315 33 292 c 0
 33 269 61 250 75 250 c 0
375 250 m 0
 389 250 417 269 417 292 c 0
 417 315 389 334 375 334 c 0
 361 334 333 315 333 292 c 0
 333 269 361 250 375 250 c 0
75 166 m 0
 89 166 117 185 117 208 c 0
 117 231 89 250 75 250 c 0
 61 250 33 231 33 208 c 0
 33 185 61 166 75 166 c 0
375 166 m 0
 389 166 417 185 417 208 c 0
 417 231 389 250 375 250 c 0
 361 250 333 231 333 208 c 0
 333 185 361 166 375 166 c 0
75 83 m 0
 89 83 117 102 117 125 c 0
 117 148 89 167 75 167 c 0
 61 167 33 148 33 125 c 0
 33 102 61 83 75 83 c 0
375 83 m 0
 389 83 417 102 417 125 c 0
 417 148 389 167 375 167 c 0
 361 167 333 148 333 125 c 0
 333 102 361 83 375 83 c 0
75 0 m 0
 89 0 117 19 117 42 c 0
 117 65 89 84 75 84 c 0
 61 84 33 65 33 42 c 0
 33 19 61 0 75 0 c 0
175 0 m 0
 189 0 217 19 217 42 c 0
 217 65 189 84 175 84 c 0
 161 84 133 65 133 42 c 0
 133 19 161 0 175 0 c 0
275 0 m 0
 289 0 317 19 317 42 c 0
 317 65 289 84 275 84 c 0
 261 84 233 65 233 42 c 0
 233 19 261 0 275 0 c 0
EndSplineSet
EndChar

StartChar: c
Encoding: 99 99 67
Width: 500
Flags: HW
LayerCount: 2
Back
Fore
SplineSet
125 333 m 0
 139 333 167 352 167 375 c 0
 167 398 139 417 125 417 c 0
 111 417 83 398 83 375 c 0
 83 352 111 333 125 333 c 0
225 333 m 0
 239 333 267 352 267 375 c 0
 267 398 239 417 225 417 c 0
 211 417 183 398 183 375 c 0
 183 352 211 333 225 333 c 0
325 333 m 0
 339 333 367 352 367 375 c 0
 367 398 339 417 325 417 c 0
 311 417 283 398 283 375 c 0
 283 352 311 333 325 333 c 0
75 250 m 0
 89 250 117 269 117 292 c 0
 117 315 89 334 75 334 c 0
 61 334 33 315 33 292 c 0
 33 269 61 250 75 250 c 0
375 250 m 0
 389 250 417 269 417 292 c 0
 417 315 389 334 375 334 c 0
 361 334 333 315 333 292 c 0
 333 269 361 250 375 250 c 0
75 166 m 0
 89 166 117 185 117 208 c 0
 117 231 89 250 75 250 c 0
 61 250 33 231 33 208 c 0
 33 185 61 166 75 166 c 0
75 83 m 0
 89 83 117 102 117 125 c 0
 117 148 89 167 75 167 c 0
 61 167 33 148 33 125 c 0
 33 102 61 83 75 83 c 0
125 0 m 0
 139 0 167 19 167 42 c 0
 167 65 139 84 125 84 c 0
 111 84 83 65 83 42 c 0
 83 19 111 0 125 0 c 0
225 0 m 0
 239 0 267 19 267 42 c 0
 267 65 239 84 225 84 c 0
 211 84 183 65 183 42 c 0
 183 19 211 0 225 0 c 0
325 0 m 0
 339 0 367 19 367 42 c 0
 367 65 339 84 325 84 c 0
 311 84 283 65 283 42 c 0
 283 19 311 0 325 0 c 0
EndSplineSet
EndChar

StartChar: d
Encoding: 100 100 68
Width: 500
Flags: HW
LayerCount: 2
Back
Fore
SplineSet
375 500 m 0
 389 500 417 519 417 542 c 0
 417 565 389 584 375 584 c 0
 361 584 333 565 333 542 c 0
 333 519 361 500 375 500 c 0
375 416 m 0
 389 416 417 435 417 458 c 0
 417 481 389 500 375 500 c 0
 361 500 333 481 333 458 c 0
 333 435 361 416 375 416 c 0
125 333 m 0
 139 333 167 352 167 375 c 0
 167 398 139 417 125 417 c 0
 111 417 83 398 83 375 c 0
 83 352 111 333 125 333 c 0
225 333 m 0
 239 333 267 352 267 375 c 0
 267 398 239 417 225 417 c 0
 211 417 183 398 183 375 c 0
 183 352 211 333 225 333 c 0
325 333 m 0
 339 333 367 352 367 375 c 0
 367 398 339 417 325 417 c 0
 311 417 283 398 283 375 c 0
 283 352 311 333 325 333 c 0
75 250 m 0
 89 250 117 269 117 292 c 0
 117 315 89 334 75 334 c 0
 61 334 33 315 33 292 c 0
 33 269 61 250 75 250 c 0
375 250 m 0
 389 250 417 269 417 292 c 0
 417 315 389 334 375 334 c 0
 361 334 333 315 333 292 c 0
 333 269 361 250 375 250 c 0
75 166 m 0
 89 166 117 185 117 208 c 0
 117 231 89 250 75 250 c 0
 61 250 33 231 33 208 c 0
 33 185 61 166 75 166 c 0
375 166 m 0
 389 166 417 185 417 208 c 0
 417 231 389 250 375 250 c 0
 361 250 333 231 333 208 c 0
 333 185 361 166 375 166 c 0
75 83 m 0
 89 83 117 102 117 125 c 0
 117 148 89 167 75 167 c 0
 61 167 33 148 33 125 c 0
 33 102 61 83 75 83 c 0
375 83 m 0
 389 83 417 102 417 125 c 0
 417 148 389 167 375 167 c 0
 361 167 333 148 333 125 c 0
 333 102 361 83 375 83 c 0
175 0 m 0
 189 0 217 19 217 42 c 0
 217 65 189 84 175 84 c 0
 161 84 133 65 133 42 c 0
 133 19 161 0 175 0 c 0
275 0 m 0
 289 0 317 19 317 42 c 0
 317 65 289 84 275 84 c 0
 261 84 233 65 233 42 c 0
 233 19 261 0 275 0 c 0
375 0 m 0
 389 0 417 19 417 42 c 0
 417 65 389 84 375 84 c 0
 361 84 333 65 333 42 c 0
 333 19 361 0 375 0 c 0
EndSplineSet
EndChar

StartChar: e
Encoding: 101 101 69
Width: 500
Flags: HW
LayerCount: 2
Back
Fore
SplineSet
125 333 m 0
 139 333 167 352 167 375 c 0
 167 398 139 417 125 417 c 0
 111 417 83 398 83 375 c 0
 83 352 111 333 125 333 c 0
225 333 m 0
 239 333 267 352 267 375 c 0
 267 398 239 417 225 417 c 0
 211 417 183 398 183 375 c 0
 183 352 211 333 225 333 c 0
325 333 m 0
 339 333 367 352 367 375 c 0
 367 398 339 417 325 417 c 0
 311 417 283 398 283 375 c 0
 283 352 311 333 325 333 c 0
75 250 m 0
 89 250 117 269 117 292 c 0
 117 315 89 334 75 334 c 0
 61 334 33 315 33 292 c 0
 33 269 61 250 75 250 c 0
375 250 m 0
 389 250 417 269 417 292 c 0
 417 315 389 334 375 334 c 0
 361 334 333 315 333 292 c 0
 333 269 361 250 375 250 c 0
75 166 m 0
 89 166 117 185 117 208 c 0
 117 231 89 250 75 250 c 0
 61 250 33 231 33 208 c 0
 33 185 61 166 75 166 c 0
175 166 m 0
 189 166 217 185 217 208 c 0
 217 231 189 250 175 250 c 0
 161 250 133 231 133 208 c 0
 133 185 161 166 175 166 c 0
275 166 m 0
 289 166 317 185 317 208 c 0
 317 231 289 250 275 250 c 0
 261 250 233 231 233 208 c 0
 233 185 261 166 275 166 c 0
375 166 m 0
 389 166 417 185 417 208 c 0
 417 231 389 250 375 250 c 0
 361 250 333 231 333 208 c 0
 333 185 361 166 375 166 c 0
75 83 m 0
 89 83 117 102 117 125 c 0
 117 148 89 167 75 167 c 0
 61 167 33 148 33 125 c 0
 33 102 61 83 75 83 c 0
125 0 m 0
 139 0 167 19 167 42 c 0
 167 65 139 84 125 84 c 0
 111 84 83 65 83 42 c 0
 83 19 111 0 125 0 c 0
225 0 m 0
 239 0 267 19 267 42 c 0
 267 65 239 84 225 84 c 0
 211 84 183 65 183 42 c 0
 183 19 211 0 225 0 c 0
325 0 m 0
 339 0 367 19 367 42 c 0
 367 65 339 84 325 84 c 0
 311 84 283 65 283 42 c 0
 283 19 311 0 325 0 c 0
EndSplineSet
EndChar

StartChar: f
Encoding: 102 102 70
Width: 500
Flags: HW
LayerCount: 2
Back
Fore
SplineSet
225 500 m 0
 239 500 267 519 267 542 c 0
 267 565 239 584 225 584 c 0
 211 584 183 565 183 542 c 0
 183 519 211 500 225 500 c 0
325 500 m 0
 339 500 367 519 367 542 c 0
 367 565 339 584 325 584 c 0
 311 584 283 565 283 542 c 0
 283 519 311 500 325 500 c 0
175 416 m 0
 189 416 217 435 217 458 c 0
 217 481 189 500 175 500 c 0
 161 500 133 481 133 458 c 0
 133 435 161 416 175 416 c 0
375 416 m 0
 389 416 417 435 417 458 c 0
 417 481 389 500 375 500 c 0
 361 500 333 481 333 458 c 0
 333 435 361 416 375 416 c 0
75 333 m 0
 89 333 117 352 117 375 c 0
 117 398 89 417 75 417 c 0
 61 417 33 398 33 375 c 0
 33 352 61 333 75 333 c 0
175 333 m 0
 189 333 217 352 217 375 c 0
 217 398 189 417 175 417 c 0
 161 417 133 398 133 375 c 0
 133 352 161 333 175 333 c 0
275 333 m 0
 289 333 317 352 317 375 c 0
 317 398 289 417 275 417 c 0
 261 417 233 398 233 375 c 0
 233 352 261 333 275 333 c 0
175 250 m 0
 189 250 217 269 217 292 c 0
 217 315 189 334 175 334 c 0
 161 334 133 315 133 292 c 0
 133 269 161 250 175 250 c 0
175 166 m 0
 189 166 217 185 217 208 c 0
 217 231 189 250 175 250 c 0
 161 250 133 231 133 208 c 0
 133 185 161 166 175 166 c 0
175 83 m 0
 189 83 217 102 217 125 c 0
 217 148 189 167 175 167 c 0
 161 167 133 148 133 125 c 0
 133 102 161 83 175 83 c 0
175 0 m 0
 189 0 217 19 217 42 c 0
 217 65 189 84 175 84 c 0
 161 84 133 65 133 42 c 0
 133 19 161 0 175 0 c 0
EndSplineSet
EndChar

StartChar: g
Encoding: 103 103 71
Width: 500
Flags: HW
LayerCount: 2
Back
Fore
SplineSet
375 416 m 0
 389 416 417 435 417 458 c 0
 417 481 389 500 375 500 c 0
 361 500 333 481 333 458 c 0
 333 435 361 416 375 416 c 0
125 333 m 0
 139 333 167 352 167 375 c 0
 167 398 139 417 125 417 c 0
 111 417 83 398 83 375 c 0
 83 352 111 333 125 333 c 0
225 333 m 0
 239 333 267 352 267 375 c 0
 267 398 239 417 225 417 c 0
 211 417 183 398 183 375 c 0
 183 352 211 333 225 333 c 0
325 333 m 0
 339 333 367 352 367 375 c 0
 367 398 339 417 325 417 c 0
 311 417 283 398 283 375 c 0
 283 352 311 333 325 333 c 0
75 250 m 0
 89 250 117 269 117 292 c 0
 117 315 89 334 75 334 c 0
 61 334 33 315 33 292 c 0
 33 269 61 250 75 250 c 0
375 250 m 0
 389 250 417 269 417 292 c 0
 417 315 389 334 375 334 c 0
 361 334 333 315 333 292 c 0
 333 269 361 250 375 250 c 0
125 166 m 0
 139 166 167 185 167 208 c 0
 167 231 139 250 125 250 c 0
 111 250 83 231 83 208 c 0
 83 185 111 166 125 166 c 0
225 166 m 0
 239 166 267 185 267 208 c 0
 267 231 239 250 225 250 c 0
 211 250 183 231 183 208 c 0
 183 185 211 166 225 166 c 0
325 166 m 0
 339 166 367 185 367 208 c 0
 367 231 339 250 325 250 c 0
 311 250 283 231 283 208 c 0
 283 185 311 166 325 166 c 0
375 83 m 0
 389 83 417 102 417 125 c 0
 417 148 389 167 375 167 c 0
 361 167 333 148 333 125 c 0
 333 102 361 83 375 83 c 0
75 0 m 0
 89 0 117 19 117 42 c 0
 117 65 89 84 75 84 c 0
 61 84 33 65 33 42 c 0
 33 19 61 0 75 0 c 0
175 0 m 0
 189 0 217 19 217 42 c 0
 217 65 189 84 175 84 c 0
 161 84 133 65 133 42 c 0
 133 19 161 0 175 0 c 0
275 0 m 0
 289 0 317 19 317 42 c 0
 317 65 289 84 275 84 c 0
 261 84 233 65 233 42 c 0
 233 19 261 0 275 0 c 0
375 0 m 0
 389 0 417 19 417 42 c 0
 417 65 389 84 375 84 c 0
 361 84 333 65 333 42 c 0
 333 19 361 0 375 0 c 0
EndSplineSet
EndChar

StartChar: h
Encoding: 104 104 72
Width: 500
Flags: HW
LayerCount: 2
Back
Fore
SplineSet
75 500 m 0
 89 500 117 519 117 542 c 0
 117 565 89 584 75 584 c 0
 61 584 33 565 33 542 c 0
 33 519 61 500 75 500 c 0
75 416 m 0
 89 416 117 435 117 458 c 0
 117 481 89 500 75 500 c 0
 61 500 33 481 33 458 c 0
 33 435 61 416 75 416 c 0
125 333 m 0
 139 333 167 352 167 375 c 0
 167 398 139 417 125 417 c 0
 111 417 83 398 83 375 c 0
 83 352 111 333 125 333 c 0
225 333 m 0
 239 333 267 352 267 375 c 0
 267 398 239 417 225 417 c 0
 211 417 183 398 183 375 c 0
 183 352 211 333 225 333 c 0
325 333 m 0
 339 333 367 352 367 375 c 0
 367 398 339 417 325 417 c 0
 311 417 283 398 283 375 c 0
 283 352 311 333 325 333 c 0
75 250 m 0
 89 250 117 269 117 292 c 0
 117 315 89 334 75 334 c 0
 61 334 33 315 33 292 c 0
 33 269 61 250 75 250 c 0
375 250 m 0
 389 250 417 269 417 292 c 0
 417 315 389 334 375 334 c 0
 361 334 333 315 333 292 c 0
 333 269 361 250 375 250 c 0
75 166 m 0
 89 166 117 185 117 208 c 0
 117 231 89 250 75 250 c 0
 61 250 33 231 33 208 c 0
 33 185 61 166 75 166 c 0
375 166 m 0
 389 166 417 185 417 208 c 0
 417 231 389 250 375 250 c 0
 361 250 333 231 333 208 c 0
 333 185 361 166 375 166 c 0
75 83 m 0
 89 83 117 102 117 125 c 0
 117 148 89 167 75 167 c 0
 61 167 33 148 33 125 c 0
 33 102 61 83 75 83 c 0
375 83 m 0
 389 83 417 102 417 125 c 0
 417 148 389 167 375 167 c 0
 361 167 333 148 333 125 c 0
 333 102 361 83 375 83 c 0
75 0 m 0
 89 0 117 19 117 42 c 0
 117 65 89 84 75 84 c 0
 61 84 33 65 33 42 c 0
 33 19 61 0 75 0 c 0
375 0 m 0
 389 0 417 19 417 42 c 0
 417 65 389 84 375 84 c 0
 361 84 333 65 333 42 c 0
 333 19 361 0 375 0 c 0
EndSplineSet
EndChar

StartChar: i
Encoding: 105 105 73
Width: 500
Flags: HW
LayerCount: 2
Back
Fore
SplineSet
225 500 m 0
 239 500 267 519 267 542 c 0
 267 565 239 584 225 584 c 0
 211 584 183 565 183 542 c 0
 183 519 211 500 225 500 c 0
125 333 m 0
 139 333 167 352 167 375 c 0
 167 398 139 417 125 417 c 0
 111 417 83 398 83 375 c 0
 83 352 111 333 125 333 c 0
225 333 m 0
 239 333 267 352 267 375 c 0
 267 398 239 417 225 417 c 0
 211 417 183 398 183 375 c 0
 183 352 211 333 225 333 c 0
225 250 m 0
 239 250 267 269 267 292 c 0
 267 315 239 334 225 334 c 0
 211 334 183 315 183 292 c 0
 183 269 211 250 225 250 c 0
225 166 m 0
 239 166 267 185 267 208 c 0
 267 231 239 250 225 250 c 0
 211 250 183 231 183 208 c 0
 183 185 211 166 225 166 c 0
225 83 m 0
 239 83 267 102 267 125 c 0
 267 148 239 167 225 167 c 0
 211 167 183 148 183 125 c 0
 183 102 211 83 225 83 c 0
125 0 m 0
 139 0 167 19 167 42 c 0
 167 65 139 84 125 84 c 0
 111 84 83 65 83 42 c 0
 83 19 111 0 125 0 c 0
225 0 m 0
 239 0 267 19 267 42 c 0
 267 65 239 84 225 84 c 0
 211 84 183 65 183 42 c 0
 183 19 211 0 225 0 c 0
325 0 m 0
 339 0 367 19 367 42 c 0
 367 65 339 84 325 84 c 0
 311 84 283 65 283 42 c 0
 283 19 311 0 325 0 c 0
EndSplineSet
EndChar

StartChar: j
Encoding: 106 106 74
Width: 500
Flags: HW
LayerCount: 2
Back
Fore
SplineSet
375 500 m 0
 389 500 417 519 417 542 c 0
 417 565 389 584 375 584 c 0
 361 584 333 565 333 542 c 0
 333 519 361 500 375 500 c 0
375 333 m 0
 389 333 417 352 417 375 c 0
 417 398 389 417 375 417 c 0
 361 417 333 398 333 375 c 0
 333 352 361 333 375 333 c 0
375 250 m 0
 389 250 417 269 417 292 c 0
 417 315 389 334 375 334 c 0
 361 334 333 315 333 292 c 0
 333 269 361 250 375 250 c 0
375 166 m 0
 389 166 417 185 417 208 c 0
 417 231 389 250 375 250 c 0
 361 250 333 231 333 208 c 0
 333 185 361 166 375 166 c 0
75 83 m 0
 89 83 117 102 117 125 c 0
 117 148 89 167 75 167 c 0
 61 167 33 148 33 125 c 0
 33 102 61 83 75 83 c 0
375 83 m 0
 389 83 417 102 417 125 c 0
 417 148 389 167 375 167 c 0
 361 167 333 148 333 125 c 0
 333 102 361 83 375 83 c 0
125 0 m 0
 139 0 167 19 167 42 c 0
 167 65 139 84 125 84 c 0
 111 84 83 65 83 42 c 0
 83 19 111 0 125 0 c 0
225 0 m 0
 239 0 267 19 267 42 c 0
 267 65 239 84 225 84 c 0
 211 84 183 65 183 42 c 0
 183 19 211 0 225 0 c 0
325 0 m 0
 339 0 367 19 367 42 c 0
 367 65 339 84 325 84 c 0
 311 84 283 65 283 42 c 0
 283 19 311 0 325 0 c 0
EndSplineSet
EndChar

StartChar: k
Encoding: 107 107 75
Width: 500
Flags: HW
LayerCount: 2
Back
Fore
SplineSet
75 500 m 0
 89 500 117 519 117 542 c 0
 117 565 89 584 75 584 c 0
 61 584 33 565 33 542 c 0
 33 519 61 500 75 500 c 0
75 416 m 0
 89 416 117 435 117 458 c 0
 117 481 89 500 75 500 c 0
 61 500 33 481 33 458 c 0
 33 435 61 416 75 416 c 0
75 333 m 0
 89 333 117 352 117 375 c 0
 117 398 89 417 75 417 c 0
 61 417 33 398 33 375 c 0
 33 352 61 333 75 333 c 0
275 333 m 0
 289 333 317 352 317 375 c 0
 317 398 289 417 275 417 c 0
 261 417 233 398 233 375 c 0
 233 352 261 333 275 333 c 0
75 250 m 0
 89 250 117 269 117 292 c 0
 117 315 89 334 75 334 c 0
 61 334 33 315 33 292 c 0
 33 269 61 250 75 250 c 0
225 250 m 0
 239 250 267 269 267 292 c 0
 267 315 239 334 225 334 c 0
 211 334 183 315 183 292 c 0
 183 269 211 250 225 250 c 0
75 166 m 0
 89 166 117 185 117 208 c 0
 117 231 89 250 75 250 c 0
 61 250 33 231 33 208 c 0
 33 185 61 166 75 166 c 0
175 166 m 0
 189 166 217 185 217 208 c 0
 217 231 189 250 175 250 c 0
 161 250 133 231 133 208 c 0
 133 185 161 166 175 166 c 0
75 83 m 0
 89 83 117 102 117 125 c 0
 117 148 89 167 75 167 c 0
 61 167 33 148 33 125 c 0
 33 102 61 83 75 83 c 0
275 83 m 0
 289 83 317 102 317 125 c 0
 317 148 289 167 275 167 c 0
 261 167 233 148 233 125 c 0
 233 102 261 83 275 83 c 0
75 0 m 0
 89 0 117 19 117 42 c 0
 117 65 89 84 75 84 c 0
 61 84 33 65 33 42 c 0
 33 19 61 0 75 0 c 0
375 0 m 0
 389 0 417 19 417 42 c 0
 417 65 389 84 375 84 c 0
 361 84 333 65 333 42 c 0
 333 19 361 0 375 0 c 0
EndSplineSet
EndChar

StartChar: l
Encoding: 108 108 76
Width: 500
Flags: HW
LayerCount: 2
Back
Fore
SplineSet
125 500 m 0
 139 500 167 519 167 542 c 0
 167 565 139 584 125 584 c 0
 111 584 83 565 83 542 c 0
 83 519 111 500 125 500 c 0
225 500 m 0
 239 500 267 519 267 542 c 0
 267 565 239 584 225 584 c 0
 211 584 183 565 183 542 c 0
 183 519 211 500 225 500 c 0
225 416 m 0
 239 416 267 435 267 458 c 0
 267 481 239 500 225 500 c 0
 211 500 183 481 183 458 c 0
 183 435 211 416 225 416 c 0
225 333 m 0
 239 333 267 352 267 375 c 0
 267 398 239 417 225 417 c 0
 211 417 183 398 183 375 c 0
 183 352 211 333 225 333 c 0
225 250 m 0
 239 250 267 269 267 292 c 0
 267 315 239 334 225 334 c 0
 211 334 183 315 183 292 c 0
 183 269 211 250 225 250 c 0
225 166 m 0
 239 166 267 185 267 208 c 0
 267 231 239 250 225 250 c 0
 211 250 183 231 183 208 c 0
 183 185 211 166 225 166 c 0
225 83 m 0
 239 83 267 102 267 125 c 0
 267 148 239 167 225 167 c 0
 211 167 183 148 183 125 c 0
 183 102 211 83 225 83 c 0
125 0 m 0
 139 0 167 19 167 42 c 0
 167 65 139 84 125 84 c 0
 111 84 83 65 83 42 c 0
 83 19 111 0 125 0 c 0
225 0 m 0
 239 0 267 19 267 42 c 0
 267 65 239 84 225 84 c 0
 211 84 183 65 183 42 c 0
 183 19 211 0 225 0 c 0
325 0 m 0
 339 0 367 19 367 42 c 0
 367 65 339 84 325 84 c 0
 311 84 283 65 283 42 c 0
 283 19 311 0 325 0 c 0
EndSplineSet
EndChar

StartChar: m
Encoding: 109 109 77
Width: 500
Flags: HW
LayerCount: 2
Back
Fore
SplineSet
75 333 m 0
 89 333 117 352 117 375 c 0
 117 398 89 417 75 417 c 0
 61 417 33 398 33 375 c 0
 33 352 61 333 75 333 c 0
175 333 m 0
 189 333 217 352 217 375 c 0
 217 398 189 417 175 417 c 0
 161 417 133 398 133 375 c 0
 133 352 161 333 175 333 c 0
275 333 m 0
 289 333 317 352 317 375 c 0
 317 398 289 417 275 417 c 0
 261 417 233 398 233 375 c 0
 233 352 261 333 275 333 c 0
75 250 m 0
 89 250 117 269 117 292 c 0
 117 315 89 334 75 334 c 0
 61 334 33 315 33 292 c 0
 33 269 61 250 75 250 c 0
225 250 m 0
 239 250 267 269 267 292 c 0
 267 315 239 334 225 334 c 0
 211 334 183 315 183 292 c 0
 183 269 211 250 225 250 c 0
375 250 m 0
 389 250 417 269 417 292 c 0
 417 315 389 334 375 334 c 0
 361 334 333 315 333 292 c 0
 333 269 361 250 375 250 c 0
75 166 m 0
 89 166 117 185 117 208 c 0
 117 231 89 250 75 250 c 0
 61 250 33 231 33 208 c 0
 33 185 61 166 75 166 c 0
225 166 m 0
 239 166 267 185 267 208 c 0
 267 231 239 250 225 250 c 0
 211 250 183 231 183 208 c 0
 183 185 211 166 225 166 c 0
375 166 m 0
 389 166 417 185 417 208 c 0
 417 231 389 250 375 250 c 0
 361 250 333 231 333 208 c 0
 333 185 361 166 375 166 c 0
75 83 m 0
 89 83 117 102 117 125 c 0
 117 148 89 167 75 167 c 0
 61 167 33 148 33 125 c 0
 33 102 61 83 75 83 c 0
225 83 m 0
 239 83 267 102 267 125 c 0
 267 148 239 167 225 167 c 0
 211 167 183 148 183 125 c 0
 183 102 211 83 225 83 c 0
375 83 m 0
 389 83 417 102 417 125 c 0
 417 148 389 167 375 167 c 0
 361 167 333 148 333 125 c 0
 333 102 361 83 375 83 c 0
75 0 m 0
 89 0 117 19 117 42 c 0
 117 65 89 84 75 84 c 0
 61 84 33 65 33 42 c 0
 33 19 61 0 75 0 c 0
225 0 m 0
 239 0 267 19 267 42 c 0
 267 65 239 84 225 84 c 0
 211 84 183 65 183 42 c 0
 183 19 211 0 225 0 c 0
375 0 m 0
 389 0 417 19 417 42 c 0
 417 65 389 84 375 84 c 0
 361 84 333 65 333 42 c 0
 333 19 361 0 375 0 c 0
EndSplineSet
EndChar

StartChar: n
Encoding: 110 110 78
Width: 500
Flags: HW
LayerCount: 2
Back
Fore
SplineSet
75 333 m 0
 89 333 117 352 117 375 c 0
 117 398 89 417 75 417 c 0
 61 417 33 398 33 375 c 0
 33 352 61 333 75 333 c 0
175 333 m 0
 189 333 217 352 217 375 c 0
 217 398 189 417 175 417 c 0
 161 417 133 398 133 375 c 0
 133 352 161 333 175 333 c 0
275 333 m 0
 289 333 317 352 317 375 c 0
 317 398 289 417 275 417 c 0
 261 417 233 398 233 375 c 0
 233 352 261 333 275 333 c 0
75 250 m 0
 89 250 117 269 117 292 c 0
 117 315 89 334 75 334 c 0
 61 334 33 315 33 292 c 0
 33 269 61 250 75 250 c 0
375 250 m 0
 389 250 417 269 417 292 c 0
 417 315 389 334 375 334 c 0
 361 334 333 315 333 292 c 0
 333 269 361 250 375 250 c 0
75 166 m 0
 89 166 117 185 117 208 c 0
 117 231 89 250 75 250 c 0
 61 250 33 231 33 208 c 0
 33 185 61 166 75 166 c 0
375 166 m 0
 389 166 417 185 417 208 c 0
 417 231 389 250 375 250 c 0
 361 250 333 231 333 208 c 0
 333 185 361 166 375 166 c 0
75 83 m 0
 89 83 117 102 117 125 c 0
 117 148 89 167 75 167 c 0
 61 167 33 148 33 125 c 0
 33 102 61 83 75 83 c 0
375 83 m 0
 389 83 417 102 417 125 c 0
 417 148 389 167 375 167 c 0
 361 167 333 148 333 125 c 0
 333 102 361 83 375 83 c 0
75 0 m 0
 89 0 117 19 117 42 c 0
 117 65 89 84 75 84 c 0
 61 84 33 65 33 42 c 0
 33 19 61 0 75 0 c 0
375 0 m 0
 389 0 417 19 417 42 c 0
 417 65 389 84 375 84 c 0
 361 84 333 65 333 42 c 0
 333 19 361 0 375 0 c 0
EndSplineSet
EndChar

StartChar: o
Encoding: 111 111 79
Width: 500
Flags: HW
LayerCount: 2
Back
Fore
SplineSet
125 333 m 0
 139 333 167 352 167 375 c 0
 167 398 139 417 125 417 c 0
 111 417 83 398 83 375 c 0
 83 352 111 333 125 333 c 0
225 333 m 0
 239 333 267 352 267 375 c 0
 267 398 239 417 225 417 c 0
 211 417 183 398 183 375 c 0
 183 352 211 333 225 333 c 0
325 333 m 0
 339 333 367 352 367 375 c 0
 367 398 339 417 325 417 c 0
 311 417 283 398 283 375 c 0
 283 352 311 333 325 333 c 0
75 250 m 0
 89 250 117 269 117 292 c 0
 117 315 89 334 75 334 c 0
 61 334 33 315 33 292 c 0
 33 269 61 250 75 250 c 0
375 250 m 0
 389 250 417 269 417 292 c 0
 417 315 389 334 375 334 c 0
 361 334 333 315 333 292 c 0
 333 269 361 250 375 250 c 0
75 166 m 0
 89 166 117 185 117 208 c 0
 117 231 89 250 75 250 c 0
 61 250 33 231 33 208 c 0
 33 185 61 166 75 166 c 0
375 166 m 0
 389 166 417 185 417 208 c 0
 417 231 389 250 375 250 c 0
 361 250 333 231 333 208 c 0
 333 185 361 166 375 166 c 0
75 83 m 0
 89 83 117 102 117 125 c 0
 117 148 89 167 75 167 c 0
 61 167 33 148 33 125 c 0
 33 102 61 83 75 83 c 0
375 83 m 0
 389 83 417 102 417 125 c 0
 417 148 389 167 375 167 c 0
 361 167 333 148 333 125 c 0
 333 102 361 83 375 83 c 0
125 0 m 0
 139 0 167 19 167 42 c 0
 167 65 139 84 125 84 c 0
 111 84 83 65 83 42 c 0
 83 19 111 0 125 0 c 0
225 0 m 0
 239 0 267 19 267 42 c 0
 267 65 239 84 225 84 c 0
 211 84 183 65 183 42 c 0
 183 19 211 0 225 0 c 0
325 0 m 0
 339 0 367 19 367 42 c 0
 367 65 339 84 325 84 c 0
 311 84 283 65 283 42 c 0
 283 19 311 0 325 0 c 0
EndSplineSet
EndChar

StartChar: p
Encoding: 112 112 80
Width: 500
Flags: HW
LayerCount: 2
Back
Fore
SplineSet
75 333 m 0
 89 333 117 352 117 375 c 0
 117 398 89 417 75 417 c 0
 61 417 33 398 33 375 c 0
 33 352 61 333 75 333 c 0
175 333 m 0
 189 333 217 352 217 375 c 0
 217 398 189 417 175 417 c 0
 161 417 133 398 133 375 c 0
 133 352 161 333 175 333 c 0
275 333 m 0
 289 333 317 352 317 375 c 0
 317 398 289 417 275 417 c 0
 261 417 233 398 233 375 c 0
 233 352 261 333 275 333 c 0
75 250 m 0
 89 250 117 269 117 292 c 0
 117 315 89 334 75 334 c 0
 61 334 33 315 33 292 c 0
 33 269 61 250 75 250 c 0
375 250 m 0
 389 250 417 269 417 292 c 0
 417 315 389 334 375 334 c 0
 361 334 333 315 333 292 c 0
 333 269 361 250 375 250 c 0
75 166 m 0
 89 166 117 185 117 208 c 0
 117 231 89 250 75 250 c 0
 61 250 33 231 33 208 c 0
 33 185 61 166 75 166 c 0
175 166 m 0
 189 166 217 185 217 208 c 0
 217 231 189 250 175 250 c 0
 161 250 133 231 133 208 c 0
 133 185 161 166 175 166 c 0
275 166 m 0
 289 166 317 185 317 208 c 0
 317 231 289 250 275 250 c 0
 261 250 233 231 233 208 c 0
 233 185 261 166 275 166 c 0
75 83 m 0
 89 83 117 102 117 125 c 0
 117 148 89 167 75 167 c 0
 61 167 33 148 33 125 c 0
 33 102 61 83 75 83 c 0
75 0 m 0
 89 0 117 19 117 42 c 0
 117 65 89 84 75 84 c 0
 61 84 33 65 33 42 c 0
 33 19 61 0 75 0 c 0
EndSplineSet
EndChar

StartChar: q
Encoding: 113 113 81
Width: 500
Flags: HW
LayerCount: 2
Back
Fore
SplineSet
125 333 m 0
 139 333 167 352 167 375 c 0
 167 398 139 417 125 417 c 0
 111 417 83 398 83 375 c 0
 83 352 111 333 125 333 c 0
225 333 m 0
 239 333 267 352 267 375 c 0
 267 398 239 417 225 417 c 0
 211 417 183 398 183 375 c 0
 183 352 211 333 225 333 c 0
325 333 m 0
 339 333 367 352 367 375 c 0
 367 398 339 417 325 417 c 0
 311 417 283 398 283 375 c 0
 283 352 311 333 325 333 c 0
75 250 m 0
 89 250 117 269 117 292 c 0
 117 315 89 334 75 334 c 0
 61 334 33 315 33 292 c 0
 33 269 61 250 75 250 c 0
375 250 m 0
 389 250 417 269 417 292 c 0
 417 315 389 334 375 334 c 0
 361 334 333 315 333 292 c 0
 333 269 361 250 375 250 c 0
75 166 m 0
 89 166 117 185 117 208 c 0
 117 231 89 250 75 250 c 0
 61 250 33 231 33 208 c 0
 33 185 61 166 75 166 c 0
275 166 m 0
 289 166 317 185 317 208 c 0
 317 231 289 250 275 250 c 0
 261 250 233 231 233 208 c 0
 233 185 261 166 275 166 c 0
375 166 m 0
 389 166 417 185 417 208 c 0
 417 231 389 250 375 250 c 0
 361 250 333 231 333 208 c 0
 333 185 361 166 375 166 c 0
75 83 m 0
 89 83 117 102 117 125 c 0
 117 148 89 167 75 167 c 0
 61 167 33 148 33 125 c 0
 33 102 61 83 75 83 c 0
325 83 m 0
 339 83 367 102 367 125 c 0
 367 148 339 167 325 167 c 0
 311 167 283 148 283 125 c 0
 283 102 311 83 325 83 c 0
125 0 m 0
 139 0 167 19 167 42 c 0
 167 65 139 84 125 84 c 0
 111 84 83 65 83 42 c 0
 83 19 111 0 125 0 c 0
225 0 m 0
 239 0 267 19 267 42 c 0
 267 65 239 84 225 84 c 0
 211 84 183 65 183 42 c 0
 183 19 211 0 225 0 c 0
375 0 m 0
 389 0 417 19 417 42 c 0
 417 65 389 84 375 84 c 0
 361 84 333 65 333 42 c 0
 333 19 361 0 375 0 c 0
EndSplineSet
EndChar

StartChar: r
Encoding: 114 114 82
Width: 500
Flags: HW
LayerCount: 2
Back
Fore
SplineSet
125 333 m 0
 139 333 167 352 167 375 c 0
 167 398 139 417 125 417 c 0
 111 417 83 398 83 375 c 0
 83 352 111 333 125 333 c 0
225 333 m 0
 239 333 267 352 267 375 c 0
 267 398 239 417 225 417 c 0
 211 417 183 398 183 375 c 0
 183 352 211 333 225 333 c 0
325 333 m 0
 339 333 367 352 367 375 c 0
 367 398 339 417 325 417 c 0
 311 417 283 398 283 375 c 0
 283 352 311 333 325 333 c 0
175 250 m 0
 189 250 217 269 217 292 c 0
 217 315 189 334 175 334 c 0
 161 334 133 315 133 292 c 0
 133 269 161 250 175 250 c 0
375 250 m 0
 389 250 417 269 417 292 c 0
 417 315 389 334 375 334 c 0
 361 334 333 315 333 292 c 0
 333 269 361 250 375 250 c 0
175 166 m 0
 189 166 217 185 217 208 c 0
 217 231 189 250 175 250 c 0
 161 250 133 231 133 208 c 0
 133 185 161 166 175 166 c 0
175 83 m 0
 189 83 217 102 217 125 c 0
 217 148 189 167 175 167 c 0
 161 167 133 148 133 125 c 0
 133 102 161 83 175 83 c 0
175 0 m 0
 189 0 217 19 217 42 c 0
 217 65 189 84 175 84 c 0
 161 84 133 65 133 42 c 0
 133 19 161 0 175 0 c 0
EndSplineSet
EndChar

StartChar: s
Encoding: 115 115 83
Width: 500
Flags: HW
LayerCount: 2
Back
Fore
SplineSet
125 333 m 0
 139 333 167 352 167 375 c 0
 167 398 139 417 125 417 c 0
 111 417 83 398 83 375 c 0
 83 352 111 333 125 333 c 0
225 333 m 0
 239 333 267 352 267 375 c 0
 267 398 239 417 225 417 c 0
 211 417 183 398 183 375 c 0
 183 352 211 333 225 333 c 0
325 333 m 0
 339 333 367 352 367 375 c 0
 367 398 339 417 325 417 c 0
 311 417 283 398 283 375 c 0
 283 352 311 333 325 333 c 0
75 250 m 0
 89 250 117 269 117 292 c 0
 117 315 89 334 75 334 c 0
 61 334 33 315 33 292 c 0
 33 269 61 250 75 250 c 0
125 166 m 0
 139 166 167 185 167 208 c 0
 167 231 139 250 125 250 c 0
 111 250 83 231 83 208 c 0
 83 185 111 166 125 166 c 0
225 166 m 0
 239 166 267 185 267 208 c 0
 267 231 239 250 225 250 c 0
 211 250 183 231 183 208 c 0
 183 185 211 166 225 166 c 0
325 166 m 0
 339 166 367 185 367 208 c 0
 367 231 339 250 325 250 c 0
 311 250 283 231 283 208 c 0
 283 185 311 166 325 166 c 0
375 83 m 0
 389 83 417 102 417 125 c 0
 417 148 389 167 375 167 c 0
 361 167 333 148 333 125 c 0
 333 102 361 83 375 83 c 0
125 0 m 0
 139 0 167 19 167 42 c 0
 167 65 139 84 125 84 c 0
 111 84 83 65 83 42 c 0
 83 19 111 0 125 0 c 0
225 0 m 0
 239 0 267 19 267 42 c 0
 267 65 239 84 225 84 c 0
 211 84 183 65 183 42 c 0
 183 19 211 0 225 0 c 0
325 0 m 0
 339 0 367 19 367 42 c 0
 367 65 339 84 325 84 c 0
 311 84 283 65 283 42 c 0
 283 19 311 0 325 0 c 0
EndSplineSet
EndChar

StartChar: t
Encoding: 116 116 84
Width: 500
Flags: HW
LayerCount: 2
Back
Fore
SplineSet
175 500 m 0
 189 500 217 519 217 542 c 0
 217 565 189 584 175 584 c 0
 161 584 133 565 133 542 c 0
 133 519 161 500 175 500 c 0
175 416 m 0
 189 416 217 435 217 458 c 0
 217 481 189 500 175 500 c 0
 161 500 133 481 133 458 c 0
 133 435 161 416 175 416 c 0
75 333 m 0
 89 333 117 352 117 375 c 0
 117 398 89 417 75 417 c 0
 61 417 33 398 33 375 c 0
 33 352 61 333 75 333 c 0
175 333 m 0
 189 333 217 352 217 375 c 0
 217 398 189 417 175 417 c 0
 161 417 133 398 133 375 c 0
 133 352 161 333 175 333 c 0
275 333 m 0
 289 333 317 352 317 375 c 0
 317 398 289 417 275 417 c 0
 261 417 233 398 233 375 c 0
 233 352 261 333 275 333 c 0
175 250 m 0
 189 250 217 269 217 292 c 0
 217 315 189 334 175 334 c 0
 161 334 133 315 133 292 c 0
 133 269 161 250 175 250 c 0
175 166 m 0
 189 166 217 185 217 208 c 0
 217 231 189 250 175 250 c 0
 161 250 133 231 133 208 c 0
 133 185 161 166 175 166 c 0
175 83 m 0
 189 83 217 102 217 125 c 0
 217 148 189 167 175 167 c 0
 161 167 133 148 133 125 c 0
 133 102 161 83 175 83 c 0
375 83 m 0
 389 83 417 102 417 125 c 0
 417 148 389 167 375 167 c 0
 361 167 333 148 333 125 c 0
 333 102 361 83 375 83 c 0
225 0 m 0
 239 0 267 19 267 42 c 0
 267 65 239 84 225 84 c 0
 211 84 183 65 183 42 c 0
 183 19 211 0 225 0 c 0
325 0 m 0
 339 0 367 19 367 42 c 0
 367 65 339 84 325 84 c 0
 311 84 283 65 283 42 c 0
 283 19 311 0 325 0 c 0
EndSplineSet
EndChar

StartChar: u
Encoding: 117 117 85
Width: 500
Flags: HW
LayerCount: 2
Back
Fore
SplineSet
75 333 m 0
 89 333 117 352 117 375 c 0
 117 398 89 417 75 417 c 0
 61 417 33 398 33 375 c 0
 33 352 61 333 75 333 c 0
375 333 m 0
 389 333 417 352 417 375 c 0
 417 398 389 417 375 417 c 0
 361 417 333 398 333 375 c 0
 333 352 361 333 375 333 c 0
75 250 m 0
 89 250 117 269 117 292 c 0
 117 315 89 334 75 334 c 0
 61 334 33 315 33 292 c 0
 33 269 61 250 75 250 c 0
375 250 m 0
 389 250 417 269 417 292 c 0
 417 315 389 334 375 334 c 0
 361 334 333 315 333 292 c 0
 333 269 361 250 375 250 c 0
75 166 m 0
 89 166 117 185 117 208 c 0
 117 231 89 250 75 250 c 0
 61 250 33 231 33 208 c 0
 33 185 61 166 75 166 c 0
375 166 m 0
 389 166 417 185 417 208 c 0
 417 231 389 250 375 250 c 0
 361 250 333 231 333 208 c 0
 333 185 361 166 375 166 c 0
75 83 m 0
 89 83 117 102 117 125 c 0
 117 148 89 167 75 167 c 0
 61 167 33 148 33 125 c 0
 33 102 61 83 75 83 c 0
375 83 m 0
 389 83 417 102 417 125 c 0
 417 148 389 167 375 167 c 0
 361 167 333 148 333 125 c 0
 333 102 361 83 375 83 c 0
175 0 m 0
 189 0 217 19 217 42 c 0
 217 65 189 84 175 84 c 0
 161 84 133 65 133 42 c 0
 133 19 161 0 175 0 c 0
275 0 m 0
 289 0 317 19 317 42 c 0
 317 65 289 84 275 84 c 0
 261 84 233 65 233 42 c 0
 233 19 261 0 275 0 c 0
375 0 m 0
 389 0 417 19 417 42 c 0
 417 65 389 84 375 84 c 0
 361 84 333 65 333 42 c 0
 333 19 361 0 375 0 c 0
EndSplineSet
EndChar

StartChar: v
Encoding: 118 118 86
Width: 500
Flags: HW
LayerCount: 2
Back
Fore
SplineSet
75 333 m 0
 89 333 117 352 117 375 c 0
 117 398 89 417 75 417 c 0
 61 417 33 398 33 375 c 0
 33 352 61 333 75 333 c 0
375 333 m 0
 389 333 417 352 417 375 c 0
 417 398 389 417 375 417 c 0
 361 417 333 398 333 375 c 0
 333 352 361 333 375 333 c 0
75 250 m 0
 89 250 117 269 117 292 c 0
 117 315 89 334 75 334 c 0
 61 334 33 315 33 292 c 0
 33 269 61 250 75 250 c 0
375 250 m 0
 389 250 417 269 417 292 c 0
 417 315 389 334 375 334 c 0
 361 334 333 315 333 292 c 0
 333 269 361 250 375 250 c 0
125 166 m 0
 139 166 167 185 167 208 c 0
 167 231 139 250 125 250 c 0
 111 250 83 231 83 208 c 0
 83 185 111 166 125 166 c 0
325 166 m 0
 339 166 367 185 367 208 c 0
 367 231 339 250 325 250 c 0
 311 250 283 231 283 208 c 0
 283 185 311 166 325 166 c 0
175 83 m 0
 189 83 217 102 217 125 c 0
 217 148 189 167 175 167 c 0
 161 167 133 148 133 125 c 0
 133 102 161 83 175 83 c 0
275 83 m 0
 289 83 317 102 317 125 c 0
 317 148 289 167 275 167 c 0
 261 167 233 148 233 125 c 0
 233 102 261 83 275 83 c 0
225 0 m 0
 239 0 267 19 267 42 c 0
 267 65 239 84 225 84 c 0
 211 84 183 65 183 42 c 0
 183 19 211 0 225 0 c 0
EndSplineSet
EndChar

StartChar: w
Encoding: 119 119 87
Width: 500
Flags: HW
LayerCount: 2
Back
Fore
SplineSet
75 333 m 0
 89 333 117 352 117 375 c 0
 117 398 89 417 75 417 c 0
 61 417 33 398 33 375 c 0
 33 352 61 333 75 333 c 0
375 333 m 0
 389 333 417 352 417 375 c 0
 417 398 389 417 375 417 c 0
 361 417 333 398 333 375 c 0
 333 352 361 333 375 333 c 0
75 250 m 0
 89 250 117 269 117 292 c 0
 117 315 89 334 75 334 c 0
 61 334 33 315 33 292 c 0
 33 269 61 250 75 250 c 0
375 250 m 0
 389 250 417 269 417 292 c 0
 417 315 389 334 375 334 c 0
 361 334 333 315 333 292 c 0
 333 269 361 250 375 250 c 0
75 166 m 0
 89 166 117 185 117 208 c 0
 117 231 89 250 75 250 c 0
 61 250 33 231 33 208 c 0
 33 185 61 166 75 166 c 0
225 166 m 0
 239 166 267 185 267 208 c 0
 267 231 239 250 225 250 c 0
 211 250 183 231 183 208 c 0
 183 185 211 166 225 166 c 0
375 166 m 0
 389 166 417 185 417 208 c 0
 417 231 389 250 375 250 c 0
 361 250 333 231 333 208 c 0
 333 185 361 166 375 166 c 0
75 83 m 0
 89 83 117 102 117 125 c 0
 117 148 89 167 75 167 c 0
 61 167 33 148 33 125 c 0
 33 102 61 83 75 83 c 0
175 83 m 0
 189 83 217 102 217 125 c 0
 217 148 189 167 175 167 c 0
 161 167 133 148 133 125 c 0
 133 102 161 83 175 83 c 0
275 83 m 0
 289 83 317 102 317 125 c 0
 317 148 289 167 275 167 c 0
 261 167 233 148 233 125 c 0
 233 102 261 83 275 83 c 0
375 83 m 0
 389 83 417 102 417 125 c 0
 417 148 389 167 375 167 c 0
 361 167 333 148 333 125 c 0
 333 102 361 83 375 83 c 0
125 0 m 0
 139 0 167 19 167 42 c 0
 167 65 139 84 125 84 c 0
 111 84 83 65 83 42 c 0
 83 19 111 0 125 0 c 0
325 0 m 0
 339 0 367 19 367 42 c 0
 367 65 339 84 325 84 c 0
 311 84 283 65 283 42 c 0
 283 19 311 0 325 0 c 0
EndSplineSet
EndChar

StartChar: x
Encoding: 120 120 88
Width: 500
Flags: HW
LayerCount: 2
Back
Fore
SplineSet
75 333 m 0
 89 333 117 352 117 375 c 0
 117 398 89 417 75 417 c 0
 61 417 33 398 33 375 c 0
 33 352 61 333 75 333 c 0
375 333 m 0
 389 333 417 352 417 375 c 0
 417 398 389 417 375 417 c 0
 361 417 333 398 333 375 c 0
 333 352 361 333 375 333 c 0
125 250 m 0
 139 250 167 269 167 292 c 0
 167 315 139 334 125 334 c 0
 111 334 83 315 83 292 c 0
 83 269 111 250 125 250 c 0
325 250 m 0
 339 250 367 269 367 292 c 0
 367 315 339 334 325 334 c 0
 311 334 283 315 283 292 c 0
 283 269 311 250 325 250 c 0
225 166 m 0
 239 166 267 185 267 208 c 0
 267 231 239 250 225 250 c 0
 211 250 183 231 183 208 c 0
 183 185 211 166 225 166 c 0
125 83 m 0
 139 83 167 102 167 125 c 0
 167 148 139 167 125 167 c 0
 111 167 83 148 83 125 c 0
 83 102 111 83 125 83 c 0
325 83 m 0
 339 83 367 102 367 125 c 0
 367 148 339 167 325 167 c 0
 311 167 283 148 283 125 c 0
 283 102 311 83 325 83 c 0
75 0 m 0
 89 0 117 19 117 42 c 0
 117 65 89 84 75 84 c 0
 61 84 33 65 33 42 c 0
 33 19 61 0 75 0 c 0
375 0 m 0
 389 0 417 19 417 42 c 0
 417 65 389 84 375 84 c 0
 361 84 333 65 333 42 c 0
 333 19 361 0 375 0 c 0
EndSplineSet
EndChar

StartChar: y
Encoding: 121 121 89
Width: 500
Flags: HW
LayerCount: 2
Back
Fore
SplineSet
75 333 m 0
 89 333 117 352 117 375 c 0
 117 398 89 417 75 417 c 0
 61 417 33 398 33 375 c 0
 33 352 61 333 75 333 c 0
375 333 m 0
 389 333 417 352 417 375 c 0
 417 398 389 417 375 417 c 0
 361 417 333 398 333 375 c 0
 333 352 361 333 375 333 c 0
75 250 m 0
 89 250 117 269 117 292 c 0
 117 315 89 334 75 334 c 0
 61 334 33 315 33 292 c 0
 33 269 61 250 75 250 c 0
375 250 m 0
 389 250 417 269 417 292 c 0
 417 315 389 334 375 334 c 0
 361 334 333 315 333 292 c 0
 333 269 361 250 375 250 c 0
125 166 m 0
 139 166 167 185 167 208 c 0
 167 231 139 250 125 250 c 0
 111 250 83 231 83 208 c 0
 83 185 111 166 125 166 c 0
225 166 m 0
 239 166 267 185 267 208 c 0
 267 231 239 250 225 250 c 0
 211 250 183 231 183 208 c 0
 183 185 211 166 225 166 c 0
325 166 m 0
 339 166 367 185 367 208 c 0
 367 231 339 250 325 250 c 0
 311 250 283 231 283 208 c 0
 283 185 311 166 325 166 c 0
375 83 m 0
 389 83 417 102 417 125 c 0
 417 148 389 167 375 167 c 0
 361 167 333 148 333 125 c 0
 333 102 361 83 375 83 c 0
125 0 m 0
 139 0 167 19 167 42 c 0
 167 65 139 84 125 84 c 0
 111 84 83 65 83 42 c 0
 83 19 111 0 125 0 c 0
225 0 m 0
 239 0 267 19 267 42 c 0
 267 65 239 84 225 84 c 0
 211 84 183 65 183 42 c 0
 183 19 211 0 225 0 c 0
325 0 m 0
 339 0 367 19 367 42 c 0
 367 65 339 84 325 84 c 0
 311 84 283 65 283 42 c 0
 283 19 311 0 325 0 c 0
EndSplineSet
EndChar

StartChar: z
Encoding: 122 122 90
Width: 500
Flags: HW
LayerCount: 2
Back
Fore
SplineSet
75 333 m 0
 89 333 117 352 117 375 c 0
 117 398 89 417 75 417 c 0
 61 417 33 398 33 375 c 0
 33 352 61 333 75 333 c 0
175 333 m 0
 189 333 217 352 217 375 c 0
 217 398 189 417 175 417 c 0
 161 417 133 398 133 375 c 0
 133 352 161 333 175 333 c 0
275 333 m 0
 289 333 317 352 317 375 c 0
 317 398 289 417 275 417 c 0
 261 417 233 398 233 375 c 0
 233 352 261 333 275 333 c 0
375 333 m 0
 389 333 417 352 417 375 c 0
 417 398 389 417 375 417 c 0
 361 417 333 398 333 375 c 0
 333 352 361 333 375 333 c 0
325 250 m 0
 339 250 367 269 367 292 c 0
 367 315 339 334 325 334 c 0
 311 334 283 315 283 292 c 0
 283 269 311 250 325 250 c 0
225 166 m 0
 239 166 267 185 267 208 c 0
 267 231 239 250 225 250 c 0
 211 250 183 231 183 208 c 0
 183 185 211 166 225 166 c 0
125 83 m 0
 139 83 167 102 167 125 c 0
 167 148 139 167 125 167 c 0
 111 167 83 148 83 125 c 0
 83 102 111 83 125 83 c 0
75 0 m 0
 89 0 117 19 117 42 c 0
 117 65 89 84 75 84 c 0
 61 84 33 65 33 42 c 0
 33 19 61 0 75 0 c 0
175 0 m 0
 189 0 217 19 217 42 c 0
 217 65 189 84 175 84 c 0
 161 84 133 65 133 42 c 0
 133 19 161 0 175 0 c 0
275 0 m 0
 289 0 317 19 317 42 c 0
 317 65 289 84 275 84 c 0
 261 84 233 65 233 42 c 0
 233 19 261 0 275 0 c 0
375 0 m 0
 389 0 417 19 417 42 c 0
 417 65 389 84 375 84 c 0
 361 84 333 65 333 42 c 0
 333 19 361 0 375 0 c 0
EndSplineSet
EndChar

StartChar: braceleft
Encoding: 123 123 91
Width: 500
Flags: HW
LayerCount: 2
Back
Fore
SplineSet
275 500 m 0
 289 500 317 519 317 542 c 0
 317 565 289 584 275 584 c 0
 261 584 233 565 233 542 c 0
 233 519 261 500 275 500 c 0
375 500 m 0
 389 500 417 519 417 542 c 0
 417 565 389 584 375 584 c 0
 361 584 333 565 333 542 c 0
 333 519 361 500 375 500 c 0
225 416 m 0
 239 416 267 435 267 458 c 0
 267 481 239 500 225 500 c 0
 211 500 183 481 183 458 c 0
 183 435 211 416 225 416 c 0
225 333 m 0
 239 333 267 352 267 375 c 0
 267 398 239 417 225 417 c 0
 211 417 183 398 183 375 c 0
 183 352 211 333 225 333 c 0
75 250 m 0
 89 250 117 269 117 292 c 0
 117 315 89 334 75 334 c 0
 61 334 33 315 33 292 c 0
 33 269 61 250 75 250 c 0
175 250 m 0
 189 250 217 269 217 292 c 0
 217 315 189 334 175 334 c 0
 161 334 133 315 133 292 c 0
 133 269 161 250 175 250 c 0
225 166 m 0
 239 166 267 185 267 208 c 0
 267 231 239 250 225 250 c 0
 211 250 183 231 183 208 c 0
 183 185 211 166 225 166 c 0
225 83 m 0
 239 83 267 102 267 125 c 0
 267 148 239 167 225 167 c 0
 211 167 183 148 183 125 c 0
 183 102 211 83 225 83 c 0
275 0 m 0
 289 0 317 19 317 42 c 0
 317 65 289 84 275 84 c 0
 261 84 233 65 233 42 c 0
 233 19 261 0 275 0 c 0
375 0 m 0
 389 0 417 19 417 42 c 0
 417 65 389 84 375 84 c 0
 361 84 333 65 333 42 c 0
 333 19 361 0 375 0 c 0
EndSplineSet
EndChar

StartChar: bar
Encoding: 124 124 92
Width: 500
Flags: HW
LayerCount: 2
Back
Fore
SplineSet
225 500 m 0
 239 500 267 519 267 542 c 0
 267 565 239 584 225 584 c 0
 211 584 183 565 183 542 c 0
 183 519 211 500 225 500 c 0
225 416 m 0
 239 416 267 435 267 458 c 0
 267 481 239 500 225 500 c 0
 211 500 183 481 183 458 c 0
 183 435 211 416 225 416 c 0
225 333 m 0
 239 333 267 352 267 375 c 0
 267 398 239 417 225 417 c 0
 211 417 183 398 183 375 c 0
 183 352 211 333 225 333 c 0
225 250 m 0
 239 250 267 269 267 292 c 0
 267 315 239 334 225 334 c 0
 211 334 183 315 183 292 c 0
 183 269 211 250 225 250 c 0
225 166 m 0
 239 166 267 185 267 208 c 0
 267 231 239 250 225 250 c 0
 211 250 183 231 183 208 c 0
 183 185 211 166 225 166 c 0
225 83 m 0
 239 83 267 102 267 125 c 0
 267 148 239 167 225 167 c 0
 211 167 183 148 183 125 c 0
 183 102 211 83 225 83 c 0
225 0 m 0
 239 0 267 19 267 42 c 0
 267 65 239 84 225 84 c 0
 211 84 183 65 183 42 c 0
 183 19 211 0 225 0 c 0
EndSplineSet
EndChar

StartChar: braceright
Encoding: 125 125 93
Width: 500
Flags: HW
LayerCount: 2
Back
Fore
SplineSet
75 500 m 0
 89 500 117 519 117 542 c 0
 117 565 89 584 75 584 c 0
 61 584 33 565 33 542 c 0
 33 519 61 500 75 500 c 0
175 500 m 0
 189 500 217 519 217 542 c 0
 217 565 189 584 175 584 c 0
 161 584 133 565 133 542 c 0
 133 519 161 500 175 500 c 0
225 416 m 0
 239 416 267 435 267 458 c 0
 267 481 239 500 225 500 c 0
 211 500 183 481 183 458 c 0
 183 435 211 416 225 416 c 0
225 333 m 0
 239 333 267 352 267 375 c 0
 267 398 239 417 225 417 c 0
 211 417 183 398 183 375 c 0
 183 352 211 333 225 333 c 0
275 250 m 0
 289 250 317 269 317 292 c 0
 317 315 289 334 275 334 c 0
 261 334 233 315 233 292 c 0
 233 269 261 250 275 250 c 0
375 250 m 0
 389 250 417 269 417 292 c 0
 417 315 389 334 375 334 c 0
 361 334 333 315 333 292 c 0
 333 269 361 250 375 250 c 0
225 166 m 0
 239 166 267 185 267 208 c 0
 267 231 239 250 225 250 c 0
 211 250 183 231 183 208 c 0
 183 185 211 166 225 166 c 0
225 83 m 0
 239 83 267 102 267 125 c 0
 267 148 239 167 225 167 c 0
 211 167 183 148 183 125 c 0
 183 102 211 83 225 83 c 0
75 0 m 0
 89 0 117 19 117 42 c 0
 117 65 89 84 75 84 c 0
 61 84 33 65 33 42 c 0
 33 19 61 0 75 0 c 0
175 0 m 0
 189 0 217 19 217 42 c 0
 217 65 189 84 175 84 c 0
 161 84 133 65 133 42 c 0
 133 19 161 0 175 0 c 0
EndSplineSet
EndChar

StartChar: asciitilde
Encoding: 126 126 94
Width: 500
Flags: HW
LayerCount: 2
Back
Fore
SplineSet
175 500 m 0
 189 500 217 519 217 542 c 0
 217 565 189 584 175 584 c 0
 161 584 133 565 133 542 c 0
 133 519 161 500 175 500 c 0
375 500 m 0
 389 500 417 519 417 542 c 0
 417 565 389 584 375 584 c 0
 361 584 333 565 333 542 c 0
 333 519 361 500 375 500 c 0
125 416 m 0
 139 416 167 435 167 458 c 0
 167 481 139 500 125 500 c 0
 111 500 83 481 83 458 c 0
 83 435 111 416 125 416 c 0
225 416 m 0
 239 416 267 435 267 458 c 0
 267 481 239 500 225 500 c 0
 211 500 183 481 183 458 c 0
 183 435 211 416 225 416 c 0
325 416 m 0
 339 416 367 435 367 458 c 0
 367 481 339 500 325 500 c 0
 311 500 283 481 283 458 c 0
 283 435 311 416 325 416 c 0
75 333 m 0
 89 333 117 352 117 375 c 0
 117 398 89 417 75 417 c 0
 61 417 33 398 33 375 c 0
 33 352 61 333 75 333 c 0
275 333 m 0
 289 333 317 352 317 375 c 0
 317 398 289 417 275 417 c 0
 261 417 233 398 233 375 c 0
 233 352 261 333 275 333 c 0
EndSplineSet
EndChar

StartChar: registered
Encoding: 174 174 95
Width: 500
Flags: HW
LayerCount: 2
Back
Fore
SplineSet
225 500 m 0
 239 500 267 519 267 542 c 0
 267 565 239 584 225 584 c 0
 211 584 183 565 183 542 c 0
 183 519 211 500 225 500 c 0
325 500 m 0
 339 500 367 519 367 542 c 0
 367 565 339 584 325 584 c 0
 311 584 283 565 283 542 c 0
 283 519 311 500 325 500 c 0
175 416 m 0
 189 416 217 435 217 458 c 0
 217 481 189 500 175 500 c 0
 161 500 133 481 133 458 c 0
 133 435 161 416 175 416 c 0
375 416 m 0
 389 416 417 435 417 458 c 0
 417 481 389 500 375 500 c 0
 361 500 333 481 333 458 c 0
 333 435 361 416 375 416 c 0
175 333 m 0
 189 333 217 352 217 375 c 0
 217 398 189 417 175 417 c 0
 161 417 133 398 133 375 c 0
 133 352 161 333 175 333 c 0
75 250 m 0
 89 250 117 269 117 292 c 0
 117 315 89 334 75 334 c 0
 61 334 33 315 33 292 c 0
 33 269 61 250 75 250 c 0
175 250 m 0
 189 250 217 269 217 292 c 0
 217 315 189 334 175 334 c 0
 161 334 133 315 133 292 c 0
 133 269 161 250 175 250 c 0
275 250 m 0
 289 250 317 269 317 292 c 0
 317 315 289 334 275 334 c 0
 261 334 233 315 233 292 c 0
 233 269 261 250 275 250 c 0
175 166 m 0
 189 166 217 185 217 208 c 0
 217 231 189 250 175 250 c 0
 161 250 133 231 133 208 c 0
 133 185 161 166 175 166 c 0
175 83 m 0
 189 83 217 102 217 125 c 0
 217 148 189 167 175 167 c 0
 161 167 133 148 133 125 c 0
 133 102 161 83 175 83 c 0
75 0 m 0
 89 0 117 19 117 42 c 0
 117 65 89 84 75 84 c 0
 61 84 33 65 33 42 c 0
 33 19 61 0 75 0 c 0
175 0 m 0
 189 0 217 19 217 42 c 0
 217 65 189 84 175 84 c 0
 161 84 133 65 133 42 c 0
 133 19 161 0 175 0 c 0
275 0 m 0
 289 0 317 19 317 42 c 0
 317 65 289 84 275 84 c 0
 261 84 233 65 233 42 c 0
 233 19 261 0 275 0 c 0
375 0 m 0
 389 0 417 19 417 42 c 0
 417 65 389 84 375 84 c 0
 361 84 333 65 333 42 c 0
 333 19 361 0 375 0 c 0
EndSplineSet
EndChar

StartChar: Adieresis
Encoding: 196 196 96
Width: 500
Flags: HW
LayerCount: 2
Back
Fore
SplineSet
125 500 m 0
 139 500 167 519 167 542 c 0
 167 565 139 584 125 584 c 0
 111 584 83 565 83 542 c 0
 83 519 111 500 125 500 c 0
325 500 m 0
 339 500 367 519 367 542 c 0
 367 565 339 584 325 584 c 0
 311 584 283 565 283 542 c 0
 283 519 311 500 325 500 c 0
225 416 m 0
 239 416 267 435 267 458 c 0
 267 481 239 500 225 500 c 0
 211 500 183 481 183 458 c 0
 183 435 211 416 225 416 c 0
175 333 m 0
 189 333 217 352 217 375 c 0
 217 398 189 417 175 417 c 0
 161 417 133 398 133 375 c 0
 133 352 161 333 175 333 c 0
275 333 m 0
 289 333 317 352 317 375 c 0
 317 398 289 417 275 417 c 0
 261 417 233 398 233 375 c 0
 233 352 261 333 275 333 c 0
125 250 m 0
 139 250 167 269 167 292 c 0
 167 315 139 334 125 334 c 0
 111 334 83 315 83 292 c 0
 83 269 111 250 125 250 c 0
325 250 m 0
 339 250 367 269 367 292 c 0
 367 315 339 334 325 334 c 0
 311 334 283 315 283 292 c 0
 283 269 311 250 325 250 c 0
75 166 m 0
 89 166 117 185 117 208 c 0
 117 231 89 250 75 250 c 0
 61 250 33 231 33 208 c 0
 33 185 61 166 75 166 c 0
375 166 m 0
 389 166 417 185 417 208 c 0
 417 231 389 250 375 250 c 0
 361 250 333 231 333 208 c 0
 333 185 361 166 375 166 c 0
75 83 m 0
 89 83 117 102 117 125 c 0
 117 148 89 167 75 167 c 0
 61 167 33 148 33 125 c 0
 33 102 61 83 75 83 c 0
175 83 m 0
 189 83 217 102 217 125 c 0
 217 148 189 167 175 167 c 0
 161 167 133 148 133 125 c 0
 133 102 161 83 175 83 c 0
275 83 m 0
 289 83 317 102 317 125 c 0
 317 148 289 167 275 167 c 0
 261 167 233 148 233 125 c 0
 233 102 261 83 275 83 c 0
375 83 m 0
 389 83 417 102 417 125 c 0
 417 148 389 167 375 167 c 0
 361 167 333 148 333 125 c 0
 333 102 361 83 375 83 c 0
75 0 m 0
 89 0 117 19 117 42 c 0
 117 65 89 84 75 84 c 0
 61 84 33 65 33 42 c 0
 33 19 61 0 75 0 c 0
375 0 m 0
 389 0 417 19 417 42 c 0
 417 65 389 84 375 84 c 0
 361 84 333 65 333 42 c 0
 333 19 361 0 375 0 c 0
EndSplineSet
EndChar

StartChar: adieresis
Encoding: 228 228 97
Width: 500
Flags: HW
LayerCount: 2
Back
Fore
SplineSet
125 500 m 0
 139 500 167 519 167 542 c 0
 167 565 139 584 125 584 c 0
 111 584 83 565 83 542 c 0
 83 519 111 500 125 500 c 0
325 500 m 0
 339 500 367 519 367 542 c 0
 367 565 339 584 325 584 c 0
 311 584 283 565 283 542 c 0
 283 519 311 500 325 500 c 0
125 333 m 0
 139 333 167 352 167 375 c 0
 167 398 139 417 125 417 c 0
 111 417 83 398 83 375 c 0
 83 352 111 333 125 333 c 0
225 333 m 0
 239 333 267 352 267 375 c 0
 267 398 239 417 225 417 c 0
 211 417 183 398 183 375 c 0
 183 352 211 333 225 333 c 0
325 333 m 0
 339 333 367 352 367 375 c 0
 367 398 339 417 325 417 c 0
 311 417 283 398 283 375 c 0
 283 352 311 333 325 333 c 0
375 250 m 0
 389 250 417 269 417 292 c 0
 417 315 389 334 375 334 c 0
 361 334 333 315 333 292 c 0
 333 269 361 250 375 250 c 0
125 166 m 0
 139 166 167 185 167 208 c 0
 167 231 139 250 125 250 c 0
 111 250 83 231 83 208 c 0
 83 185 111 166 125 166 c 0
225 166 m 0
 239 166 267 185 267 208 c 0
 267 231 239 250 225 250 c 0
 211 250 183 231 183 208 c 0
 183 185 211 166 225 166 c 0
325 166 m 0
 339 166 367 185 367 208 c 0
 367 231 339 250 325 250 c 0
 311 250 283 231 283 208 c 0
 283 185 311 166 325 166 c 0
75 83 m 0
 89 83 117 102 117 125 c 0
 117 148 89 167 75 167 c 0
 61 167 33 148 33 125 c 0
 33 102 61 83 75 83 c 0
375 83 m 0
 389 83 417 102 417 125 c 0
 417 148 389 167 375 167 c 0
 361 167 333 148 333 125 c 0
 333 102 361 83 375 83 c 0
125 0 m 0
 139 0 167 19 167 42 c 0
 167 65 139 84 125 84 c 0
 111 84 83 65 83 42 c 0
 83 19 111 0 125 0 c 0
225 0 m 0
 239 0 267 19 267 42 c 0
 267 65 239 84 225 84 c 0
 211 84 183 65 183 42 c 0
 183 19 211 0 225 0 c 0
325 0 m 0
 339 0 367 19 367 42 c 0
 367 65 339 84 325 84 c 0
 311 84 283 65 283 42 c 0
 283 19 311 0 325 0 c 0
EndSplineSet
EndChar

StartChar: Aring
Encoding: 197 197 98
Width: 500
Flags: HW
LayerCount: 2
Back
Fore
SplineSet
225 500 m 0
 239 500 267 519 267 542 c 0
 267 565 239 584 225 584 c 0
 211 584 183 565 183 542 c 0
 183 519 211 500 225 500 c 0
175 416 m 0
 189 416 217 435 217 458 c 0
 217 481 189 500 175 500 c 0
 161 500 133 481 133 458 c 0
 133 435 161 416 175 416 c 0
275 416 m 0
 289 416 317 435 317 458 c 0
 317 481 289 500 275 500 c 0
 261 500 233 481 233 458 c 0
 233 435 261 416 275 416 c 0
225 333 m 0
 239 333 267 352 267 375 c 0
 267 398 239 417 225 417 c 0
 211 417 183 398 183 375 c 0
 183 352 211 333 225 333 c 0
175 250 m 0
 189 250 217 269 217 292 c 0
 217 315 189 334 175 334 c 0
 161 334 133 315 133 292 c 0
 133 269 161 250 175 250 c 0
275 250 m 0
 289 250 317 269 317 292 c 0
 317 315 289 334 275 334 c 0
 261 334 233 315 233 292 c 0
 233 269 261 250 275 250 c 0
125 166 m 0
 139 166 167 185 167 208 c 0
 167 231 139 250 125 250 c 0
 111 250 83 231 83 208 c 0
 83 185 111 166 125 166 c 0
325 166 m 0
 339 166 367 185 367 208 c 0
 367 231 339 250 325 250 c 0
 311 250 283 231 283 208 c 0
 283 185 311 166 325 166 c 0
75 83 m 0
 89 83 117 102 117 125 c 0
 117 148 89 167 75 167 c 0
 61 167 33 148 33 125 c 0
 33 102 61 83 75 83 c 0
175 83 m 0
 189 83 217 102 217 125 c 0
 217 148 189 167 175 167 c 0
 161 167 133 148 133 125 c 0
 133 102 161 83 175 83 c 0
275 83 m 0
 289 83 317 102 317 125 c 0
 317 148 289 167 275 167 c 0
 261 167 233 148 233 125 c 0
 233 102 261 83 275 83 c 0
375 83 m 0
 389 83 417 102 417 125 c 0
 417 148 389 167 375 167 c 0
 361 167 333 148 333 125 c 0
 333 102 361 83 375 83 c 0
75 0 m 0
 89 0 117 19 117 42 c 0
 117 65 89 84 75 84 c 0
 61 84 33 65 33 42 c 0
 33 19 61 0 75 0 c 0
375 0 m 0
 389 0 417 19 417 42 c 0
 417 65 389 84 375 84 c 0
 361 84 333 65 333 42 c 0
 333 19 361 0 375 0 c 0
EndSplineSet
EndChar

StartChar: aring
Encoding: 229 229 99
Width: 500
Flags: HW
LayerCount: 2
Back
Fore
SplineSet
225 500 m 0
 239 500 267 519 267 542 c 0
 267 565 239 584 225 584 c 0
 211 584 183 565 183 542 c 0
 183 519 211 500 225 500 c 0
175 416 m 0
 189 416 217 435 217 458 c 0
 217 481 189 500 175 500 c 0
 161 500 133 481 133 458 c 0
 133 435 161 416 175 416 c 0
275 416 m 0
 289 416 317 435 317 458 c 0
 317 481 289 500 275 500 c 0
 261 500 233 481 233 458 c 0
 233 435 261 416 275 416 c 0
225 333 m 0
 239 333 267 352 267 375 c 0
 267 398 239 417 225 417 c 0
 211 417 183 398 183 375 c 0
 183 352 211 333 225 333 c 0
125 250 m 0
 139 250 167 269 167 292 c 0
 167 315 139 334 125 334 c 0
 111 334 83 315 83 292 c 0
 83 269 111 250 125 250 c 0
225 250 m 0
 239 250 267 269 267 292 c 0
 267 315 239 334 225 334 c 0
 211 334 183 315 183 292 c 0
 183 269 211 250 225 250 c 0
325 250 m 0
 339 250 367 269 367 292 c 0
 367 315 339 334 325 334 c 0
 311 334 283 315 283 292 c 0
 283 269 311 250 325 250 c 0
75 166 m 0
 89 166 117 185 117 208 c 0
 117 231 89 250 75 250 c 0
 61 250 33 231 33 208 c 0
 33 185 61 166 75 166 c 0
325 166 m 0
 339 166 367 185 367 208 c 0
 367 231 339 250 325 250 c 0
 311 250 283 231 283 208 c 0
 283 185 311 166 325 166 c 0
75 83 m 0
 89 83 117 102 117 125 c 0
 117 148 89 167 75 167 c 0
 61 167 33 148 33 125 c 0
 33 102 61 83 75 83 c 0
325 83 m 0
 339 83 367 102 367 125 c 0
 367 148 339 167 325 167 c 0
 311 167 283 148 283 125 c 0
 283 102 311 83 325 83 c 0
125 0 m 0
 139 0 167 19 167 42 c 0
 167 65 139 84 125 84 c 0
 111 84 83 65 83 42 c 0
 83 19 111 0 125 0 c 0
225 0 m 0
 239 0 267 19 267 42 c 0
 267 65 239 84 225 84 c 0
 211 84 183 65 183 42 c 0
 183 19 211 0 225 0 c 0
375 0 m 0
 389 0 417 19 417 42 c 0
 417 65 389 84 375 84 c 0
 361 84 333 65 333 42 c 0
 333 19 361 0 375 0 c 0
EndSplineSet
EndChar

StartChar: Eacute
Encoding: 201 201 100
Width: 500
Flags: HW
LayerCount: 2
Back
Fore
SplineSet
275 500 m 0
 289 500 317 519 317 542 c 0
 317 565 289 584 275 584 c 0
 261 584 233 565 233 542 c 0
 233 519 261 500 275 500 c 0
225 416 m 0
 239 416 267 435 267 458 c 0
 267 481 239 500 225 500 c 0
 211 500 183 481 183 458 c 0
 183 435 211 416 225 416 c 0
75 333 m 0
 89 333 117 352 117 375 c 0
 117 398 89 417 75 417 c 0
 61 417 33 398 33 375 c 0
 33 352 61 333 75 333 c 0
175 333 m 0
 189 333 217 352 217 375 c 0
 217 398 189 417 175 417 c 0
 161 417 133 398 133 375 c 0
 133 352 161 333 175 333 c 0
275 333 m 0
 289 333 317 352 317 375 c 0
 317 398 289 417 275 417 c 0
 261 417 233 398 233 375 c 0
 233 352 261 333 275 333 c 0
375 333 m 0
 389 333 417 352 417 375 c 0
 417 398 389 417 375 417 c 0
 361 417 333 398 333 375 c 0
 333 352 361 333 375 333 c 0
75 250 m 0
 89 250 117 269 117 292 c 0
 117 315 89 334 75 334 c 0
 61 334 33 315 33 292 c 0
 33 269 61 250 75 250 c 0
75 166 m 0
 89 166 117 185 117 208 c 0
 117 231 89 250 75 250 c 0
 61 250 33 231 33 208 c 0
 33 185 61 166 75 166 c 0
175 166 m 0
 189 166 217 185 217 208 c 0
 217 231 189 250 175 250 c 0
 161 250 133 231 133 208 c 0
 133 185 161 166 175 166 c 0
275 166 m 0
 289 166 317 185 317 208 c 0
 317 231 289 250 275 250 c 0
 261 250 233 231 233 208 c 0
 233 185 261 166 275 166 c 0
75 83 m 0
 89 83 117 102 117 125 c 0
 117 148 89 167 75 167 c 0
 61 167 33 148 33 125 c 0
 33 102 61 83 75 83 c 0
75 0 m 0
 89 0 117 19 117 42 c 0
 117 65 89 84 75 84 c 0
 61 84 33 65 33 42 c 0
 33 19 61 0 75 0 c 0
175 0 m 0
 189 0 217 19 217 42 c 0
 217 65 189 84 175 84 c 0
 161 84 133 65 133 42 c 0
 133 19 161 0 175 0 c 0
275 0 m 0
 289 0 317 19 317 42 c 0
 317 65 289 84 275 84 c 0
 261 84 233 65 233 42 c 0
 233 19 261 0 275 0 c 0
375 0 m 0
 389 0 417 19 417 42 c 0
 417 65 389 84 375 84 c 0
 361 84 333 65 333 42 c 0
 333 19 361 0 375 0 c 0
EndSplineSet
EndChar

StartChar: eacute
Encoding: 233 233 101
Width: 500
Flags: HW
LayerCount: 2
Back
Fore
SplineSet
275 500 m 0
 289 500 317 519 317 542 c 0
 317 565 289 584 275 584 c 0
 261 584 233 565 233 542 c 0
 233 519 261 500 275 500 c 0
225 416 m 0
 239 416 267 435 267 458 c 0
 267 481 239 500 225 500 c 0
 211 500 183 481 183 458 c 0
 183 435 211 416 225 416 c 0
125 333 m 0
 139 333 167 352 167 375 c 0
 167 398 139 417 125 417 c 0
 111 417 83 398 83 375 c 0
 83 352 111 333 125 333 c 0
225 333 m 0
 239 333 267 352 267 375 c 0
 267 398 239 417 225 417 c 0
 211 417 183 398 183 375 c 0
 183 352 211 333 225 333 c 0
325 333 m 0
 339 333 367 352 367 375 c 0
 367 398 339 417 325 417 c 0
 311 417 283 398 283 375 c 0
 283 352 311 333 325 333 c 0
75 250 m 0
 89 250 117 269 117 292 c 0
 117 315 89 334 75 334 c 0
 61 334 33 315 33 292 c 0
 33 269 61 250 75 250 c 0
375 250 m 0
 389 250 417 269 417 292 c 0
 417 315 389 334 375 334 c 0
 361 334 333 315 333 292 c 0
 333 269 361 250 375 250 c 0
75 166 m 0
 89 166 117 185 117 208 c 0
 117 231 89 250 75 250 c 0
 61 250 33 231 33 208 c 0
 33 185 61 166 75 166 c 0
175 166 m 0
 189 166 217 185 217 208 c 0
 217 231 189 250 175 250 c 0
 161 250 133 231 133 208 c 0
 133 185 161 166 175 166 c 0
275 166 m 0
 289 166 317 185 317 208 c 0
 317 231 289 250 275 250 c 0
 261 250 233 231 233 208 c 0
 233 185 261 166 275 166 c 0
375 166 m 0
 389 166 417 185 417 208 c 0
 417 231 389 250 375 250 c 0
 361 250 333 231 333 208 c 0
 333 185 361 166 375 166 c 0
75 83 m 0
 89 83 117 102 117 125 c 0
 117 148 89 167 75 167 c 0
 61 167 33 148 33 125 c 0
 33 102 61 83 75 83 c 0
125 0 m 0
 139 0 167 19 167 42 c 0
 167 65 139 84 125 84 c 0
 111 84 83 65 83 42 c 0
 83 19 111 0 125 0 c 0
225 0 m 0
 239 0 267 19 267 42 c 0
 267 65 239 84 225 84 c 0
 211 84 183 65 183 42 c 0
 183 19 211 0 225 0 c 0
325 0 m 0
 339 0 367 19 367 42 c 0
 367 65 339 84 325 84 c 0
 311 84 283 65 283 42 c 0
 283 19 311 0 325 0 c 0
EndSplineSet
EndChar

StartChar: Odieresis
Encoding: 214 214 102
Width: 500
Flags: HW
LayerCount: 2
Back
Fore
SplineSet
75 500 m 0
 89 500 117 519 117 542 c 0
 117 565 89 584 75 584 c 0
 61 584 33 565 33 542 c 0
 33 519 61 500 75 500 c 0
375 500 m 0
 389 500 417 519 417 542 c 0
 417 565 389 584 375 584 c 0
 361 584 333 565 333 542 c 0
 333 519 361 500 375 500 c 0
175 416 m 0
 189 416 217 435 217 458 c 0
 217 481 189 500 175 500 c 0
 161 500 133 481 133 458 c 0
 133 435 161 416 175 416 c 0
275 416 m 0
 289 416 317 435 317 458 c 0
 317 481 289 500 275 500 c 0
 261 500 233 481 233 458 c 0
 233 435 261 416 275 416 c 0
125 333 m 0
 139 333 167 352 167 375 c 0
 167 398 139 417 125 417 c 0
 111 417 83 398 83 375 c 0
 83 352 111 333 125 333 c 0
325 333 m 0
 339 333 367 352 367 375 c 0
 367 398 339 417 325 417 c 0
 311 417 283 398 283 375 c 0
 283 352 311 333 325 333 c 0
75 250 m 0
 89 250 117 269 117 292 c 0
 117 315 89 334 75 334 c 0
 61 334 33 315 33 292 c 0
 33 269 61 250 75 250 c 0
375 250 m 0
 389 250 417 269 417 292 c 0
 417 315 389 334 375 334 c 0
 361 334 333 315 333 292 c 0
 333 269 361 250 375 250 c 0
75 166 m 0
 89 166 117 185 117 208 c 0
 117 231 89 250 75 250 c 0
 61 250 33 231 33 208 c 0
 33 185 61 166 75 166 c 0
375 166 m 0
 389 166 417 185 417 208 c 0
 417 231 389 250 375 250 c 0
 361 250 333 231 333 208 c 0
 333 185 361 166 375 166 c 0
125 83 m 0
 139 83 167 102 167 125 c 0
 167 148 139 167 125 167 c 0
 111 167 83 148 83 125 c 0
 83 102 111 83 125 83 c 0
325 83 m 0
 339 83 367 102 367 125 c 0
 367 148 339 167 325 167 c 0
 311 167 283 148 283 125 c 0
 283 102 311 83 325 83 c 0
175 0 m 0
 189 0 217 19 217 42 c 0
 217 65 189 84 175 84 c 0
 161 84 133 65 133 42 c 0
 133 19 161 0 175 0 c 0
275 0 m 0
 289 0 317 19 317 42 c 0
 317 65 289 84 275 84 c 0
 261 84 233 65 233 42 c 0
 233 19 261 0 275 0 c 0
EndSplineSet
EndChar

StartChar: odieresis
Encoding: 246 246 103
Width: 500
Flags: HW
LayerCount: 2
Back
Fore
SplineSet
125 500 m 0
 139 500 167 519 167 542 c 0
 167 565 139 584 125 584 c 0
 111 584 83 565 83 542 c 0
 83 519 111 500 125 500 c 0
325 500 m 0
 339 500 367 519 367 542 c 0
 367 565 339 584 325 584 c 0
 311 584 283 565 283 542 c 0
 283 519 311 500 325 500 c 0
125 333 m 0
 139 333 167 352 167 375 c 0
 167 398 139 417 125 417 c 0
 111 417 83 398 83 375 c 0
 83 352 111 333 125 333 c 0
225 333 m 0
 239 333 267 352 267 375 c 0
 267 398 239 417 225 417 c 0
 211 417 183 398 183 375 c 0
 183 352 211 333 225 333 c 0
325 333 m 0
 339 333 367 352 367 375 c 0
 367 398 339 417 325 417 c 0
 311 417 283 398 283 375 c 0
 283 352 311 333 325 333 c 0
75 250 m 0
 89 250 117 269 117 292 c 0
 117 315 89 334 75 334 c 0
 61 334 33 315 33 292 c 0
 33 269 61 250 75 250 c 0
375 250 m 0
 389 250 417 269 417 292 c 0
 417 315 389 334 375 334 c 0
 361 334 333 315 333 292 c 0
 333 269 361 250 375 250 c 0
75 166 m 0
 89 166 117 185 117 208 c 0
 117 231 89 250 75 250 c 0
 61 250 33 231 33 208 c 0
 33 185 61 166 75 166 c 0
375 166 m 0
 389 166 417 185 417 208 c 0
 417 231 389 250 375 250 c 0
 361 250 333 231 333 208 c 0
 333 185 361 166 375 166 c 0
75 83 m 0
 89 83 117 102 117 125 c 0
 117 148 89 167 75 167 c 0
 61 167 33 148 33 125 c 0
 33 102 61 83 75 83 c 0
375 83 m 0
 389 83 417 102 417 125 c 0
 417 148 389 167 375 167 c 0
 361 167 333 148 333 125 c 0
 333 102 361 83 375 83 c 0
125 0 m 0
 139 0 167 19 167 42 c 0
 167 65 139 84 125 84 c 0
 111 84 83 65 83 42 c 0
 83 19 111 0 125 0 c 0
225 0 m 0
 239 0 267 19 267 42 c 0
 267 65 239 84 225 84 c 0
 211 84 183 65 183 42 c 0
 183 19 211 0 225 0 c 0
325 0 m 0
 339 0 367 19 367 42 c 0
 367 65 339 84 325 84 c 0
 311 84 283 65 283 42 c 0
 283 19 311 0 325 0 c 0
EndSplineSet
EndChar

StartChar: Udieresis
Encoding: 220 220 104
Width: 500
Flags: HW
LayerCount: 2
Back
Fore
SplineSet
75 500 m 0
 89 500 117 519 117 542 c 0
 117 565 89 584 75 584 c 0
 61 584 33 565 33 542 c 0
 33 519 61 500 75 500 c 0
375 500 m 0
 389 500 417 519 417 542 c 0
 417 565 389 584 375 584 c 0
 361 584 333 565 333 542 c 0
 333 519 361 500 375 500 c 0
75 333 m 0
 89 333 117 352 117 375 c 0
 117 398 89 417 75 417 c 0
 61 417 33 398 33 375 c 0
 33 352 61 333 75 333 c 0
375 333 m 0
 389 333 417 352 417 375 c 0
 417 398 389 417 375 417 c 0
 361 417 333 398 333 375 c 0
 333 352 361 333 375 333 c 0
75 250 m 0
 89 250 117 269 117 292 c 0
 117 315 89 334 75 334 c 0
 61 334 33 315 33 292 c 0
 33 269 61 250 75 250 c 0
375 250 m 0
 389 250 417 269 417 292 c 0
 417 315 389 334 375 334 c 0
 361 334 333 315 333 292 c 0
 333 269 361 250 375 250 c 0
75 166 m 0
 89 166 117 185 117 208 c 0
 117 231 89 250 75 250 c 0
 61 250 33 231 33 208 c 0
 33 185 61 166 75 166 c 0
375 166 m 0
 389 166 417 185 417 208 c 0
 417 231 389 250 375 250 c 0
 361 250 333 231 333 208 c 0
 333 185 361 166 375 166 c 0
75 83 m 0
 89 83 117 102 117 125 c 0
 117 148 89 167 75 167 c 0
 61 167 33 148 33 125 c 0
 33 102 61 83 75 83 c 0
375 83 m 0
 389 83 417 102 417 125 c 0
 417 148 389 167 375 167 c 0
 361 167 333 148 333 125 c 0
 333 102 361 83 375 83 c 0
125 0 m 0
 139 0 167 19 167 42 c 0
 167 65 139 84 125 84 c 0
 111 84 83 65 83 42 c 0
 83 19 111 0 125 0 c 0
225 0 m 0
 239 0 267 19 267 42 c 0
 267 65 239 84 225 84 c 0
 211 84 183 65 183 42 c 0
 183 19 211 0 225 0 c 0
325 0 m 0
 339 0 367 19 367 42 c 0
 367 65 339 84 325 84 c 0
 311 84 283 65 283 42 c 0
 283 19 311 0 325 0 c 0
EndSplineSet
EndChar

StartChar: udieresis
Encoding: 252 252 105
Width: 500
Flags: HW
LayerCount: 2
Back
Fore
SplineSet
125 500 m 0
 139 500 167 519 167 542 c 0
 167 565 139 584 125 584 c 0
 111 584 83 565 83 542 c 0
 83 519 111 500 125 500 c 0
325 500 m 0
 339 500 367 519 367 542 c 0
 367 565 339 584 325 584 c 0
 311 584 283 565 283 542 c 0
 283 519 311 500 325 500 c 0
75 333 m 0
 89 333 117 352 117 375 c 0
 117 398 89 417 75 417 c 0
 61 417 33 398 33 375 c 0
 33 352 61 333 75 333 c 0
375 333 m 0
 389 333 417 352 417 375 c 0
 417 398 389 417 375 417 c 0
 361 417 333 398 333 375 c 0
 333 352 361 333 375 333 c 0
75 250 m 0
 89 250 117 269 117 292 c 0
 117 315 89 334 75 334 c 0
 61 334 33 315 33 292 c 0
 33 269 61 250 75 250 c 0
375 250 m 0
 389 250 417 269 417 292 c 0
 417 315 389 334 375 334 c 0
 361 334 333 315 333 292 c 0
 333 269 361 250 375 250 c 0
75 166 m 0
 89 166 117 185 117 208 c 0
 117 231 89 250 75 250 c 0
 61 250 33 231 33 208 c 0
 33 185 61 166 75 166 c 0
375 166 m 0
 389 166 417 185 417 208 c 0
 417 231 389 250 375 250 c 0
 361 250 333 231 333 208 c 0
 333 185 361 166 375 166 c 0
75 83 m 0
 89 83 117 102 117 125 c 0
 117 148 89 167 75 167 c 0
 61 167 33 148 33 125 c 0
 33 102 61 83 75 83 c 0
375 83 m 0
 389 83 417 102 417 125 c 0
 417 148 389 167 375 167 c 0
 361 167 333 148 333 125 c 0
 333 102 361 83 375 83 c 0
175 0 m 0
 189 0 217 19 217 42 c 0
 217 65 189 84 175 84 c 0
 161 84 133 65 133 42 c 0
 133 19 161 0 175 0 c 0
275 0 m 0
 289 0 317 19 317 42 c 0
 317 65 289 84 275 84 c 0
 261 84 233 65 233 42 c 0
 233 19 261 0 275 0 c 0
375 0 m 0
 389 0 417 19 417 42 c 0
 417 65 389 84 375 84 c 0
 361 84 333 65 333 42 c 0
 333 19 361 0 375 0 c 0
EndSplineSet
EndChar

StartChar: AE
Encoding: 198 198 106
Width: 500
Flags: HW
LayerCount: 2
Back
Fore
SplineSet
175 500 m 0
 189 500 217 519 217 542 c 0
 217 565 189 584 175 584 c 0
 161 584 133 565 133 542 c 0
 133 519 161 500 175 500 c 0
275 500 m 0
 289 500 317 519 317 542 c 0
 317 565 289 584 275 584 c 0
 261 584 233 565 233 542 c 0
 233 519 261 500 275 500 c 0
375 500 m 0
 389 500 417 519 417 542 c 0
 417 565 389 584 375 584 c 0
 361 584 333 565 333 542 c 0
 333 519 361 500 375 500 c 0
125 416 m 0
 139 416 167 435 167 458 c 0
 167 481 139 500 125 500 c 0
 111 500 83 481 83 458 c 0
 83 435 111 416 125 416 c 0
275 416 m 0
 289 416 317 435 317 458 c 0
 317 481 289 500 275 500 c 0
 261 500 233 481 233 458 c 0
 233 435 261 416 275 416 c 0
75 333 m 0
 89 333 117 352 117 375 c 0
 117 398 89 417 75 417 c 0
 61 417 33 398 33 375 c 0
 33 352 61 333 75 333 c 0
275 333 m 0
 289 333 317 352 317 375 c 0
 317 398 289 417 275 417 c 0
 261 417 233 398 233 375 c 0
 233 352 261 333 275 333 c 0
75 250 m 0
 89 250 117 269 117 292 c 0
 117 315 89 334 75 334 c 0
 61 334 33 315 33 292 c 0
 33 269 61 250 75 250 c 0
175 250 m 0
 189 250 217 269 217 292 c 0
 217 315 189 334 175 334 c 0
 161 334 133 315 133 292 c 0
 133 269 161 250 175 250 c 0
275 250 m 0
 289 250 317 269 317 292 c 0
 317 315 289 334 275 334 c 0
 261 334 233 315 233 292 c 0
 233 269 261 250 275 250 c 0
375 250 m 0
 389 250 417 269 417 292 c 0
 417 315 389 334 375 334 c 0
 361 334 333 315 333 292 c 0
 333 269 361 250 375 250 c 0
75 166 m 0
 89 166 117 185 117 208 c 0
 117 231 89 250 75 250 c 0
 61 250 33 231 33 208 c 0
 33 185 61 166 75 166 c 0
275 166 m 0
 289 166 317 185 317 208 c 0
 317 231 289 250 275 250 c 0
 261 250 233 231 233 208 c 0
 233 185 261 166 275 166 c 0
75 83 m 0
 89 83 117 102 117 125 c 0
 117 148 89 167 75 167 c 0
 61 167 33 148 33 125 c 0
 33 102 61 83 75 83 c 0
275 83 m 0
 289 83 317 102 317 125 c 0
 317 148 289 167 275 167 c 0
 261 167 233 148 233 125 c 0
 233 102 261 83 275 83 c 0
75 0 m 0
 89 0 117 19 117 42 c 0
 117 65 89 84 75 84 c 0
 61 84 33 65 33 42 c 0
 33 19 61 0 75 0 c 0
275 0 m 0
 289 0 317 19 317 42 c 0
 317 65 289 84 275 84 c 0
 261 84 233 65 233 42 c 0
 233 19 261 0 275 0 c 0
375 0 m 0
 389 0 417 19 417 42 c 0
 417 65 389 84 375 84 c 0
 361 84 333 65 333 42 c 0
 333 19 361 0 375 0 c 0
EndSplineSet
EndChar

StartChar: ae
Encoding: 230 230 107
Width: 500
Flags: HW
LayerCount: 2
Back
Fore
SplineSet
75 333 m 0
 89 333 117 352 117 375 c 0
 117 398 89 417 75 417 c 0
 61 417 33 398 33 375 c 0
 33 352 61 333 75 333 c 0
175 333 m 0
 189 333 217 352 217 375 c 0
 217 398 189 417 175 417 c 0
 161 417 133 398 133 375 c 0
 133 352 161 333 175 333 c 0
275 333 m 0
 289 333 317 352 317 375 c 0
 317 398 289 417 275 417 c 0
 261 417 233 398 233 375 c 0
 233 352 261 333 275 333 c 0
375 333 m 0
 389 333 417 352 417 375 c 0
 417 398 389 417 375 417 c 0
 361 417 333 398 333 375 c 0
 333 352 361 333 375 333 c 0
225 250 m 0
 239 250 267 269 267 292 c 0
 267 315 239 334 225 334 c 0
 211 334 183 315 183 292 c 0
 183 269 211 250 225 250 c 0
375 250 m 0
 389 250 417 269 417 292 c 0
 417 315 389 334 375 334 c 0
 361 334 333 315 333 292 c 0
 333 269 361 250 375 250 c 0
125 166 m 0
 139 166 167 185 167 208 c 0
 167 231 139 250 125 250 c 0
 111 250 83 231 83 208 c 0
 83 185 111 166 125 166 c 0
225 166 m 0
 239 166 267 185 267 208 c 0
 267 231 239 250 225 250 c 0
 211 250 183 231 183 208 c 0
 183 185 211 166 225 166 c 0
325 166 m 0
 339 166 367 185 367 208 c 0
 367 231 339 250 325 250 c 0
 311 250 283 231 283 208 c 0
 283 185 311 166 325 166 c 0
75 83 m 0
 89 83 117 102 117 125 c 0
 117 148 89 167 75 167 c 0
 61 167 33 148 33 125 c 0
 33 102 61 83 75 83 c 0
225 83 m 0
 239 83 267 102 267 125 c 0
 267 148 239 167 225 167 c 0
 211 167 183 148 183 125 c 0
 183 102 211 83 225 83 c 0
75 0 m 0
 89 0 117 19 117 42 c 0
 117 65 89 84 75 84 c 0
 61 84 33 65 33 42 c 0
 33 19 61 0 75 0 c 0
175 0 m 0
 189 0 217 19 217 42 c 0
 217 65 189 84 175 84 c 0
 161 84 133 65 133 42 c 0
 133 19 161 0 175 0 c 0
275 0 m 0
 289 0 317 19 317 42 c 0
 317 65 289 84 275 84 c 0
 261 84 233 65 233 42 c 0
 233 19 261 0 275 0 c 0
375 0 m 0
 389 0 417 19 417 42 c 0
 417 65 389 84 375 84 c 0
 361 84 333 65 333 42 c 0
 333 19 361 0 375 0 c 0
EndSplineSet
EndChar

StartChar: Oslash
Encoding: 216 216 108
Width: 500
Flags: HW
LayerCount: 2
Back
Fore
SplineSet
175 500 m 0
 189 500 217 519 217 542 c 0
 217 565 189 584 175 584 c 0
 161 584 133 565 133 542 c 0
 133 519 161 500 175 500 c 0
275 500 m 0
 289 500 317 519 317 542 c 0
 317 565 289 584 275 584 c 0
 261 584 233 565 233 542 c 0
 233 519 261 500 275 500 c 0
125 416 m 0
 139 416 167 435 167 458 c 0
 167 481 139 500 125 500 c 0
 111 500 83 481 83 458 c 0
 83 435 111 416 125 416 c 0
325 416 m 0
 339 416 367 435 367 458 c 0
 367 481 339 500 325 500 c 0
 311 500 283 481 283 458 c 0
 283 435 311 416 325 416 c 0
75 333 m 0
 89 333 117 352 117 375 c 0
 117 398 89 417 75 417 c 0
 61 417 33 398 33 375 c 0
 33 352 61 333 75 333 c 0
275 333 m 0
 289 333 317 352 317 375 c 0
 317 398 289 417 275 417 c 0
 261 417 233 398 233 375 c 0
 233 352 261 333 275 333 c 0
375 333 m 0
 389 333 417 352 417 375 c 0
 417 398 389 417 375 417 c 0
 361 417 333 398 333 375 c 0
 333 352 361 333 375 333 c 0
75 250 m 0
 89 250 117 269 117 292 c 0
 117 315 89 334 75 334 c 0
 61 334 33 315 33 292 c 0
 33 269 61 250 75 250 c 0
225 250 m 0
 239 250 267 269 267 292 c 0
 267 315 239 334 225 334 c 0
 211 334 183 315 183 292 c 0
 183 269 211 250 225 250 c 0
375 250 m 0
 389 250 417 269 417 292 c 0
 417 315 389 334 375 334 c 0
 361 334 333 315 333 292 c 0
 333 269 361 250 375 250 c 0
75 166 m 0
 89 166 117 185 117 208 c 0
 117 231 89 250 75 250 c 0
 61 250 33 231 33 208 c 0
 33 185 61 166 75 166 c 0
175 166 m 0
 189 166 217 185 217 208 c 0
 217 231 189 250 175 250 c 0
 161 250 133 231 133 208 c 0
 133 185 161 166 175 166 c 0
375 166 m 0
 389 166 417 185 417 208 c 0
 417 231 389 250 375 250 c 0
 361 250 333 231 333 208 c 0
 333 185 361 166 375 166 c 0
125 83 m 0
 139 83 167 102 167 125 c 0
 167 148 139 167 125 167 c 0
 111 167 83 148 83 125 c 0
 83 102 111 83 125 83 c 0
325 83 m 0
 339 83 367 102 367 125 c 0
 367 148 339 167 325 167 c 0
 311 167 283 148 283 125 c 0
 283 102 311 83 325 83 c 0
175 0 m 0
 189 0 217 19 217 42 c 0
 217 65 189 84 175 84 c 0
 161 84 133 65 133 42 c 0
 133 19 161 0 175 0 c 0
275 0 m 0
 289 0 317 19 317 42 c 0
 317 65 289 84 275 84 c 0
 261 84 233 65 233 42 c 0
 233 19 261 0 275 0 c 0
EndSplineSet
EndChar

StartChar: oslash
Encoding: 248 248 109
Width: 500
Flags: HW
LayerCount: 2
Back
Fore
SplineSet
125 333 m 0
 139 333 167 352 167 375 c 0
 167 398 139 417 125 417 c 0
 111 417 83 398 83 375 c 0
 83 352 111 333 125 333 c 0
225 333 m 0
 239 333 267 352 267 375 c 0
 267 398 239 417 225 417 c 0
 211 417 183 398 183 375 c 0
 183 352 211 333 225 333 c 0
325 333 m 0
 339 333 367 352 367 375 c 0
 367 398 339 417 325 417 c 0
 311 417 283 398 283 375 c 0
 283 352 311 333 325 333 c 0
75 250 m 0
 89 250 117 269 117 292 c 0
 117 315 89 334 75 334 c 0
 61 334 33 315 33 292 c 0
 33 269 61 250 75 250 c 0
275 250 m 0
 289 250 317 269 317 292 c 0
 317 315 289 334 275 334 c 0
 261 334 233 315 233 292 c 0
 233 269 261 250 275 250 c 0
375 250 m 0
 389 250 417 269 417 292 c 0
 417 315 389 334 375 334 c 0
 361 334 333 315 333 292 c 0
 333 269 361 250 375 250 c 0
75 166 m 0
 89 166 117 185 117 208 c 0
 117 231 89 250 75 250 c 0
 61 250 33 231 33 208 c 0
 33 185 61 166 75 166 c 0
225 166 m 0
 239 166 267 185 267 208 c 0
 267 231 239 250 225 250 c 0
 211 250 183 231 183 208 c 0
 183 185 211 166 225 166 c 0
375 166 m 0
 389 166 417 185 417 208 c 0
 417 231 389 250 375 250 c 0
 361 250 333 231 333 208 c 0
 333 185 361 166 375 166 c 0
75 83 m 0
 89 83 117 102 117 125 c 0
 117 148 89 167 75 167 c 0
 61 167 33 148 33 125 c 0
 33 102 61 83 75 83 c 0
175 83 m 0
 189 83 217 102 217 125 c 0
 217 148 189 167 175 167 c 0
 161 167 133 148 133 125 c 0
 133 102 161 83 175 83 c 0
375 83 m 0
 389 83 417 102 417 125 c 0
 417 148 389 167 375 167 c 0
 361 167 333 148 333 125 c 0
 333 102 361 83 375 83 c 0
125 0 m 0
 139 0 167 19 167 42 c 0
 167 65 139 84 125 84 c 0
 111 84 83 65 83 42 c 0
 83 19 111 0 125 0 c 0
225 0 m 0
 239 0 267 19 267 42 c 0
 267 65 239 84 225 84 c 0
 211 84 183 65 183 42 c 0
 183 19 211 0 225 0 c 0
325 0 m 0
 339 0 367 19 367 42 c 0
 367 65 339 84 325 84 c 0
 311 84 283 65 283 42 c 0
 283 19 311 0 325 0 c 0
EndSplineSet
EndChar

StartChar: section
Encoding: 167 167 110
Width: 500
Flags: HW
LayerCount: 2
Back
Fore
SplineSet
225 500 m 0
 239 500 267 519 267 542 c 0
 267 565 239 584 225 584 c 0
 211 584 183 565 183 542 c 0
 183 519 211 500 225 500 c 0
325 500 m 0
 339 500 367 519 367 542 c 0
 367 565 339 584 325 584 c 0
 311 584 283 565 283 542 c 0
 283 519 311 500 325 500 c 0
175 416 m 0
 189 416 217 435 217 458 c 0
 217 481 189 500 175 500 c 0
 161 500 133 481 133 458 c 0
 133 435 161 416 175 416 c 0
175 333 m 0
 189 333 217 352 217 375 c 0
 217 398 189 417 175 417 c 0
 161 417 133 398 133 375 c 0
 133 352 161 333 175 333 c 0
275 333 m 0
 289 333 317 352 317 375 c 0
 317 398 289 417 275 417 c 0
 261 417 233 398 233 375 c 0
 233 352 261 333 275 333 c 0
125 250 m 0
 139 250 167 269 167 292 c 0
 167 315 139 334 125 334 c 0
 111 334 83 315 83 292 c 0
 83 269 111 250 125 250 c 0
325 250 m 0
 339 250 367 269 367 292 c 0
 367 315 339 334 325 334 c 0
 311 334 283 315 283 292 c 0
 283 269 311 250 325 250 c 0
175 166 m 0
 189 166 217 185 217 208 c 0
 217 231 189 250 175 250 c 0
 161 250 133 231 133 208 c 0
 133 185 161 166 175 166 c 0
275 166 m 0
 289 166 317 185 317 208 c 0
 317 231 289 250 275 250 c 0
 261 250 233 231 233 208 c 0
 233 185 261 166 275 166 c 0
275 83 m 0
 289 83 317 102 317 125 c 0
 317 148 289 167 275 167 c 0
 261 167 233 148 233 125 c 0
 233 102 261 83 275 83 c 0
125 0 m 0
 139 0 167 19 167 42 c 0
 167 65 139 84 125 84 c 0
 111 84 83 65 83 42 c 0
 83 19 111 0 125 0 c 0
225 0 m 0
 239 0 267 19 267 42 c 0
 267 65 239 84 225 84 c 0
 211 84 183 65 183 42 c 0
 183 19 211 0 225 0 c 0
EndSplineSet
EndChar

StartChar: degree
Encoding: 176 176 111
Width: 500
Flags: HW
LayerCount: 2
Back
Fore
SplineSet
175 500 m 0
 189 500 217 519 217 542 c 0
 217 565 189 584 175 584 c 0
 161 584 133 565 133 542 c 0
 133 519 161 500 175 500 c 0
275 500 m 0
 289 500 317 519 317 542 c 0
 317 565 289 584 275 584 c 0
 261 584 233 565 233 542 c 0
 233 519 261 500 275 500 c 0
125 416 m 0
 139 416 167 435 167 458 c 0
 167 481 139 500 125 500 c 0
 111 500 83 481 83 458 c 0
 83 435 111 416 125 416 c 0
325 416 m 0
 339 416 367 435 367 458 c 0
 367 481 339 500 325 500 c 0
 311 500 283 481 283 458 c 0
 283 435 311 416 325 416 c 0
175 333 m 0
 189 333 217 352 217 375 c 0
 217 398 189 417 175 417 c 0
 161 417 133 398 133 375 c 0
 133 352 161 333 175 333 c 0
275 333 m 0
 289 333 317 352 317 375 c 0
 317 398 289 417 275 417 c 0
 261 417 233 398 233 375 c 0
 233 352 261 333 275 333 c 0
EndSplineSet
EndChar

StartChar: ccedilla
Encoding: 231 231 112
Width: 500
Flags: HW
LayerCount: 2
Back
Fore
SplineSet
125 416 m 0
 139 416 167 435 167 458 c 0
 167 481 139 500 125 500 c 0
 111 500 83 481 83 458 c 0
 83 435 111 416 125 416 c 0
225 416 m 0
 239 416 267 435 267 458 c 0
 267 481 239 500 225 500 c 0
 211 500 183 481 183 458 c 0
 183 435 211 416 225 416 c 0
325 416 m 0
 339 416 367 435 367 458 c 0
 367 481 339 500 325 500 c 0
 311 500 283 481 283 458 c 0
 283 435 311 416 325 416 c 0
75 333 m 0
 89 333 117 352 117 375 c 0
 117 398 89 417 75 417 c 0
 61 417 33 398 33 375 c 0
 33 352 61 333 75 333 c 0
375 333 m 0
 389 333 417 352 417 375 c 0
 417 398 389 417 375 417 c 0
 361 417 333 398 333 375 c 0
 333 352 361 333 375 333 c 0
75 250 m 0
 89 250 117 269 117 292 c 0
 117 315 89 334 75 334 c 0
 61 334 33 315 33 292 c 0
 33 269 61 250 75 250 c 0
75 166 m 0
 89 166 117 185 117 208 c 0
 117 231 89 250 75 250 c 0
 61 250 33 231 33 208 c 0
 33 185 61 166 75 166 c 0
125 83 m 0
 139 83 167 102 167 125 c 0
 167 148 139 167 125 167 c 0
 111 167 83 148 83 125 c 0
 83 102 111 83 125 83 c 0
225 83 m 0
 239 83 267 102 267 125 c 0
 267 148 239 167 225 167 c 0
 211 167 183 148 183 125 c 0
 183 102 211 83 225 83 c 0
325 83 m 0
 339 83 367 102 367 125 c 0
 367 148 339 167 325 167 c 0
 311 167 283 148 283 125 c 0
 283 102 311 83 325 83 c 0
225 0 m 0
 239 0 267 19 267 42 c 0
 267 65 239 84 225 84 c 0
 211 84 183 65 183 42 c 0
 183 19 211 0 225 0 c 0
EndSplineSet
EndChar

StartChar: dieresis
Encoding: 168 168 113
Width: 500
Flags: HW
LayerCount: 2
Back
Fore
SplineSet
125 500 m 0
 139 500 167 519 167 542 c 0
 167 565 139 584 125 584 c 0
 111 584 83 565 83 542 c 0
 83 519 111 500 125 500 c 0
325 500 m 0
 339 500 367 519 367 542 c 0
 367 565 339 584 325 584 c 0
 311 584 283 565 283 542 c 0
 283 519 311 500 325 500 c 0
EndSplineSet
EndChar

StartChar: germandbls
Encoding: 223 223 114
Width: 500
Flags: HW
LayerCount: 2
Back
Fore
SplineSet
125 500 m 0
 139 500 167 519 167 542 c 0
 167 565 139 584 125 584 c 0
 111 584 83 565 83 542 c 0
 83 519 111 500 125 500 c 0
225 500 m 0
 239 500 267 519 267 542 c 0
 267 565 239 584 225 584 c 0
 211 584 183 565 183 542 c 0
 183 519 211 500 225 500 c 0
75 416 m 0
 89 416 117 435 117 458 c 0
 117 481 89 500 75 500 c 0
 61 500 33 481 33 458 c 0
 33 435 61 416 75 416 c 0
275 416 m 0
 289 416 317 435 317 458 c 0
 317 481 289 500 275 500 c 0
 261 500 233 481 233 458 c 0
 233 435 261 416 275 416 c 0
75 333 m 0
 89 333 117 352 117 375 c 0
 117 398 89 417 75 417 c 0
 61 417 33 398 33 375 c 0
 33 352 61 333 75 333 c 0
225 333 m 0
 239 333 267 352 267 375 c 0
 267 398 239 417 225 417 c 0
 211 417 183 398 183 375 c 0
 183 352 211 333 225 333 c 0
75 250 m 0
 89 250 117 269 117 292 c 0
 117 315 89 334 75 334 c 0
 61 334 33 315 33 292 c 0
 33 269 61 250 75 250 c 0
175 250 m 0
 189 250 217 269 217 292 c 0
 217 315 189 334 175 334 c 0
 161 334 133 315 133 292 c 0
 133 269 161 250 175 250 c 0
275 250 m 0
 289 250 317 269 317 292 c 0
 317 315 289 334 275 334 c 0
 261 334 233 315 233 292 c 0
 233 269 261 250 275 250 c 0
75 166 m 0
 89 166 117 185 117 208 c 0
 117 231 89 250 75 250 c 0
 61 250 33 231 33 208 c 0
 33 185 61 166 75 166 c 0
325 166 m 0
 339 166 367 185 367 208 c 0
 367 231 339 250 325 250 c 0
 311 250 283 231 283 208 c 0
 283 185 311 166 325 166 c 0
75 83 m 0
 89 83 117 102 117 125 c 0
 117 148 89 167 75 167 c 0
 61 167 33 148 33 125 c 0
 33 102 61 83 75 83 c 0
325 83 m 0
 339 83 367 102 367 125 c 0
 367 148 339 167 325 167 c 0
 311 167 283 148 283 125 c 0
 283 102 311 83 325 83 c 0
75 0 m 0
 89 0 117 19 117 42 c 0
 117 65 89 84 75 84 c 0
 61 84 33 65 33 42 c 0
 33 19 61 0 75 0 c 0
175 0 m 0
 189 0 217 19 217 42 c 0
 217 65 189 84 175 84 c 0
 161 84 133 65 133 42 c 0
 133 19 161 0 175 0 c 0
275 0 m 0
 289 0 317 19 317 42 c 0
 317 65 289 84 275 84 c 0
 261 84 233 65 233 42 c 0
 233 19 261 0 275 0 c 0
EndSplineSet
EndChar

StartChar: agrave
Encoding: 224 224 115
Width: 500
Flags: HW
LayerCount: 2
Back
Fore
SplineSet
175 500 m 0
 189 500 217 519 217 542 c 0
 217 565 189 584 175 584 c 0
 161 584 133 565 133 542 c 0
 133 519 161 500 175 500 c 0
225 416 m 0
 239 416 267 435 267 458 c 0
 267 481 239 500 225 500 c 0
 211 500 183 481 183 458 c 0
 183 435 211 416 225 416 c 0
125 333 m 0
 139 333 167 352 167 375 c 0
 167 398 139 417 125 417 c 0
 111 417 83 398 83 375 c 0
 83 352 111 333 125 333 c 0
225 333 m 0
 239 333 267 352 267 375 c 0
 267 398 239 417 225 417 c 0
 211 417 183 398 183 375 c 0
 183 352 211 333 225 333 c 0
325 333 m 0
 339 333 367 352 367 375 c 0
 367 398 339 417 325 417 c 0
 311 417 283 398 283 375 c 0
 283 352 311 333 325 333 c 0
375 250 m 0
 389 250 417 269 417 292 c 0
 417 315 389 334 375 334 c 0
 361 334 333 315 333 292 c 0
 333 269 361 250 375 250 c 0
125 166 m 0
 139 166 167 185 167 208 c 0
 167 231 139 250 125 250 c 0
 111 250 83 231 83 208 c 0
 83 185 111 166 125 166 c 0
225 166 m 0
 239 166 267 185 267 208 c 0
 267 231 239 250 225 250 c 0
 211 250 183 231 183 208 c 0
 183 185 211 166 225 166 c 0
325 166 m 0
 339 166 367 185 367 208 c 0
 367 231 339 250 325 250 c 0
 311 250 283 231 283 208 c 0
 283 185 311 166 325 166 c 0
75 83 m 0
 89 83 117 102 117 125 c 0
 117 148 89 167 75 167 c 0
 61 167 33 148 33 125 c 0
 33 102 61 83 75 83 c 0
375 83 m 0
 389 83 417 102 417 125 c 0
 417 148 389 167 375 167 c 0
 361 167 333 148 333 125 c 0
 333 102 361 83 375 83 c 0
125 0 m 0
 139 0 167 19 167 42 c 0
 167 65 139 84 125 84 c 0
 111 84 83 65 83 42 c 0
 83 19 111 0 125 0 c 0
225 0 m 0
 239 0 267 19 267 42 c 0
 267 65 239 84 225 84 c 0
 211 84 183 65 183 42 c 0
 183 19 211 0 225 0 c 0
325 0 m 0
 339 0 367 19 367 42 c 0
 367 65 339 84 325 84 c 0
 311 84 283 65 283 42 c 0
 283 19 311 0 325 0 c 0
EndSplineSet
EndChar

StartChar: lessequal
Encoding: 8804 8804 116
Width: 500
Flags: HW
LayerCount: 2
Back
Fore
SplineSet
275 500 m 0
 289 500 317 519 317 542 c 0
 317 565 289 584 275 584 c 0
 261 584 233 565 233 542 c 0
 233 519 261 500 275 500 c 0
225 416 m 0
 239 416 267 435 267 458 c 0
 267 481 239 500 225 500 c 0
 211 500 183 481 183 458 c 0
 183 435 211 416 225 416 c 0
175 333 m 0
 189 333 217 352 217 375 c 0
 217 398 189 417 175 417 c 0
 161 417 133 398 133 375 c 0
 133 352 161 333 175 333 c 0
225 250 m 0
 239 250 267 269 267 292 c 0
 267 315 239 334 225 334 c 0
 211 334 183 315 183 292 c 0
 183 269 211 250 225 250 c 0
275 166 m 0
 289 166 317 185 317 208 c 0
 317 231 289 250 275 250 c 0
 261 250 233 231 233 208 c 0
 233 185 261 166 275 166 c 0
75 0 m 0
 89 0 117 19 117 42 c 0
 117 65 89 84 75 84 c 0
 61 84 33 65 33 42 c 0
 33 19 61 0 75 0 c 0
175 0 m 0
 189 0 217 19 217 42 c 0
 217 65 189 84 175 84 c 0
 161 84 133 65 133 42 c 0
 133 19 161 0 175 0 c 0
275 0 m 0
 289 0 317 19 317 42 c 0
 317 65 289 84 275 84 c 0
 261 84 233 65 233 42 c 0
 233 19 261 0 275 0 c 0
375 0 m 0
 389 0 417 19 417 42 c 0
 417 65 389 84 375 84 c 0
 361 84 333 65 333 42 c 0
 333 19 361 0 375 0 c 0
EndSplineSet
EndChar

StartChar: logicalor
Encoding: 8744 8744 117
Width: 500
Flags: HW
LayerCount: 2
Back
Fore
SplineSet
75 333 m 0
 89 333 117 352 117 375 c 0
 117 398 89 417 75 417 c 0
 61 417 33 398 33 375 c 0
 33 352 61 333 75 333 c 0
375 333 m 0
 389 333 417 352 417 375 c 0
 417 398 389 417 375 417 c 0
 361 417 333 398 333 375 c 0
 333 352 361 333 375 333 c 0
125 250 m 0
 139 250 167 269 167 292 c 0
 167 315 139 334 125 334 c 0
 111 334 83 315 83 292 c 0
 83 269 111 250 125 250 c 0
325 250 m 0
 339 250 367 269 367 292 c 0
 367 315 339 334 325 334 c 0
 311 334 283 315 283 292 c 0
 283 269 311 250 325 250 c 0
175 166 m 0
 189 166 217 185 217 208 c 0
 217 231 189 250 175 250 c 0
 161 250 133 231 133 208 c 0
 133 185 161 166 175 166 c 0
275 166 m 0
 289 166 317 185 317 208 c 0
 317 231 289 250 275 250 c 0
 261 250 233 231 233 208 c 0
 233 185 261 166 275 166 c 0
225 83 m 0
 239 83 267 102 267 125 c 0
 267 148 239 167 225 167 c 0
 211 167 183 148 183 125 c 0
 183 102 211 83 225 83 c 0
EndSplineSet
EndChar

StartChar: logicaland
Encoding: 8743 8743 118
Width: 500
Flags: HW
LayerCount: 2
Back
Fore
SplineSet
225 416 m 0
 239 416 267 435 267 458 c 0
 267 481 239 500 225 500 c 0
 211 500 183 481 183 458 c 0
 183 435 211 416 225 416 c 0
175 333 m 0
 189 333 217 352 217 375 c 0
 217 398 189 417 175 417 c 0
 161 417 133 398 133 375 c 0
 133 352 161 333 175 333 c 0
275 333 m 0
 289 333 317 352 317 375 c 0
 317 398 289 417 275 417 c 0
 261 417 233 398 233 375 c 0
 233 352 261 333 275 333 c 0
125 250 m 0
 139 250 167 269 167 292 c 0
 167 315 139 334 125 334 c 0
 111 334 83 315 83 292 c 0
 83 269 111 250 125 250 c 0
325 250 m 0
 339 250 367 269 367 292 c 0
 367 315 339 334 325 334 c 0
 311 334 283 315 283 292 c 0
 283 269 311 250 325 250 c 0
75 166 m 0
 89 166 117 185 117 208 c 0
 117 231 89 250 75 250 c 0
 61 250 33 231 33 208 c 0
 33 185 61 166 75 166 c 0
375 166 m 0
 389 166 417 185 417 208 c 0
 417 231 389 250 375 250 c 0
 361 250 333 231 333 208 c 0
 333 185 361 166 375 166 c 0
EndSplineSet
EndChar

StartChar: notequal
Encoding: 8800 8800 119
Width: 500
Flags: HW
LayerCount: 2
Back
Fore
SplineSet
375 500 m 0
 389 500 417 519 417 542 c 0
 417 565 389 584 375 584 c 0
 361 584 333 565 333 542 c 0
 333 519 361 500 375 500 c 0
325 416 m 0
 339 416 367 435 367 458 c 0
 367 481 339 500 325 500 c 0
 311 500 283 481 283 458 c 0
 283 435 311 416 325 416 c 0
75 333 m 0
 89 333 117 352 117 375 c 0
 117 398 89 417 75 417 c 0
 61 417 33 398 33 375 c 0
 33 352 61 333 75 333 c 0
175 333 m 0
 189 333 217 352 217 375 c 0
 217 398 189 417 175 417 c 0
 161 417 133 398 133 375 c 0
 133 352 161 333 175 333 c 0
275 333 m 0
 289 333 317 352 317 375 c 0
 317 398 289 417 275 417 c 0
 261 417 233 398 233 375 c 0
 233 352 261 333 275 333 c 0
375 333 m 0
 389 333 417 352 417 375 c 0
 417 398 389 417 375 417 c 0
 361 417 333 398 333 375 c 0
 333 352 361 333 375 333 c 0
225 250 m 0
 239 250 267 269 267 292 c 0
 267 315 239 334 225 334 c 0
 211 334 183 315 183 292 c 0
 183 269 211 250 225 250 c 0
75 166 m 0
 89 166 117 185 117 208 c 0
 117 231 89 250 75 250 c 0
 61 250 33 231 33 208 c 0
 33 185 61 166 75 166 c 0
175 166 m 0
 189 166 217 185 217 208 c 0
 217 231 189 250 175 250 c 0
 161 250 133 231 133 208 c 0
 133 185 161 166 175 166 c 0
275 166 m 0
 289 166 317 185 317 208 c 0
 317 231 289 250 275 250 c 0
 261 250 233 231 233 208 c 0
 233 185 261 166 275 166 c 0
375 166 m 0
 389 166 417 185 417 208 c 0
 417 231 389 250 375 250 c 0
 361 250 333 231 333 208 c 0
 333 185 361 166 375 166 c 0
125 83 m 0
 139 83 167 102 167 125 c 0
 167 148 139 167 125 167 c 0
 111 167 83 148 83 125 c 0
 83 102 111 83 125 83 c 0
75 0 m 0
 89 0 117 19 117 42 c 0
 117 65 89 84 75 84 c 0
 61 84 33 65 33 42 c 0
 33 19 61 0 75 0 c 0
EndSplineSet
EndChar

StartChar: divide
Encoding: 247 247 120
Width: 500
Flags: HW
LayerCount: 2
Back
Fore
SplineSet
225 416 m 0
 239 416 267 435 267 458 c 0
 267 481 239 500 225 500 c 0
 211 500 183 481 183 458 c 0
 183 435 211 416 225 416 c 0
75 250 m 0
 89 250 117 269 117 292 c 0
 117 315 89 334 75 334 c 0
 61 334 33 315 33 292 c 0
 33 269 61 250 75 250 c 0
175 250 m 0
 189 250 217 269 217 292 c 0
 217 315 189 334 175 334 c 0
 161 334 133 315 133 292 c 0
 133 269 161 250 175 250 c 0
275 250 m 0
 289 250 317 269 317 292 c 0
 317 315 289 334 275 334 c 0
 261 334 233 315 233 292 c 0
 233 269 261 250 275 250 c 0
375 250 m 0
 389 250 417 269 417 292 c 0
 417 315 389 334 375 334 c 0
 361 334 333 315 333 292 c 0
 333 269 361 250 375 250 c 0
225 83 m 0
 239 83 267 102 267 125 c 0
 267 148 239 167 225 167 c 0
 211 167 183 148 183 125 c 0
 183 102 211 83 225 83 c 0
EndSplineSet
EndChar

StartChar: multiply
Encoding: 215 215 121
Width: 500
Flags: HW
LayerCount: 2
Back
Fore
SplineSet
125 416 m 0
 139 416 167 435 167 458 c 0
 167 481 139 500 125 500 c 0
 111 500 83 481 83 458 c 0
 83 435 111 416 125 416 c 0
325 416 m 0
 339 416 367 435 367 458 c 0
 367 481 339 500 325 500 c 0
 311 500 283 481 283 458 c 0
 283 435 311 416 325 416 c 0
175 333 m 0
 189 333 217 352 217 375 c 0
 217 398 189 417 175 417 c 0
 161 417 133 398 133 375 c 0
 133 352 161 333 175 333 c 0
275 333 m 0
 289 333 317 352 317 375 c 0
 317 398 289 417 275 417 c 0
 261 417 233 398 233 375 c 0
 233 352 261 333 275 333 c 0
225 250 m 0
 239 250 267 269 267 292 c 0
 267 315 239 334 225 334 c 0
 211 334 183 315 183 292 c 0
 183 269 211 250 225 250 c 0
175 166 m 0
 189 166 217 185 217 208 c 0
 217 231 189 250 175 250 c 0
 161 250 133 231 133 208 c 0
 133 185 161 166 175 166 c 0
275 166 m 0
 289 166 317 185 317 208 c 0
 317 231 289 250 275 250 c 0
 261 250 233 231 233 208 c 0
 233 185 261 166 275 166 c 0
125 83 m 0
 139 83 167 102 167 125 c 0
 167 148 139 167 125 167 c 0
 111 167 83 148 83 125 c 0
 83 102 111 83 125 83 c 0
325 83 m 0
 339 83 367 102 367 125 c 0
 367 148 339 167 325 167 c 0
 311 167 283 148 283 125 c 0
 283 102 311 83 325 83 c 0
EndSplineSet
EndChar

StartChar: uni203E
Encoding: 8254 8254 122
Width: 500
Flags: HW
LayerCount: 2
Back
Fore
SplineSet
75 500 m 0
 89 500 117 519 117 542 c 0
 117 565 89 584 75 584 c 0
 61 584 33 565 33 542 c 0
 33 519 61 500 75 500 c 0
175 500 m 0
 189 500 217 519 217 542 c 0
 217 565 189 584 175 584 c 0
 161 584 133 565 133 542 c 0
 133 519 161 500 175 500 c 0
275 500 m 0
 289 500 317 519 317 542 c 0
 317 565 289 584 275 584 c 0
 261 584 233 565 233 542 c 0
 233 519 261 500 275 500 c 0
375 500 m 0
 389 500 417 519 417 542 c 0
 417 565 389 584 375 584 c 0
 361 584 333 565 333 542 c 0
 333 519 361 500 375 500 c 0
EndSplineSet
EndChar

StartChar: uni237A
Encoding: 9082 9082 123
Width: 500
Flags: HW
LayerCount: 2
Back
Fore
SplineSet
125 333 m 0
 139 333 167 352 167 375 c 0
 167 398 139 417 125 417 c 0
 111 417 83 398 83 375 c 0
 83 352 111 333 125 333 c 0
225 333 m 0
 239 333 267 352 267 375 c 0
 267 398 239 417 225 417 c 0
 211 417 183 398 183 375 c 0
 183 352 211 333 225 333 c 0
375 333 m 0
 389 333 417 352 417 375 c 0
 417 398 389 417 375 417 c 0
 361 417 333 398 333 375 c 0
 333 352 361 333 375 333 c 0
75 250 m 0
 89 250 117 269 117 292 c 0
 117 315 89 334 75 334 c 0
 61 334 33 315 33 292 c 0
 33 269 61 250 75 250 c 0
275 250 m 0
 289 250 317 269 317 292 c 0
 317 315 289 334 275 334 c 0
 261 334 233 315 233 292 c 0
 233 269 261 250 275 250 c 0
75 166 m 0
 89 166 117 185 117 208 c 0
 117 231 89 250 75 250 c 0
 61 250 33 231 33 208 c 0
 33 185 61 166 75 166 c 0
275 166 m 0
 289 166 317 185 317 208 c 0
 317 231 289 250 275 250 c 0
 261 250 233 231 233 208 c 0
 233 185 261 166 275 166 c 0
75 83 m 0
 89 83 117 102 117 125 c 0
 117 148 89 167 75 167 c 0
 61 167 33 148 33 125 c 0
 33 102 61 83 75 83 c 0
275 83 m 0
 289 83 317 102 317 125 c 0
 317 148 289 167 275 167 c 0
 261 167 233 148 233 125 c 0
 233 102 261 83 275 83 c 0
125 0 m 0
 139 0 167 19 167 42 c 0
 167 65 139 84 125 84 c 0
 111 84 83 65 83 42 c 0
 83 19 111 0 125 0 c 0
225 0 m 0
 239 0 267 19 267 42 c 0
 267 65 239 84 225 84 c 0
 211 84 183 65 183 42 c 0
 183 19 211 0 225 0 c 0
375 0 m 0
 389 0 417 19 417 42 c 0
 417 65 389 84 375 84 c 0
 361 84 333 65 333 42 c 0
 333 19 361 0 375 0 c 0
EndSplineSet
EndChar

StartChar: perpendicular
Encoding: 8869 8869 124
Width: 500
Flags: HW
LayerCount: 2
Back
Fore
SplineSet
225 250 m 0
 239 250 267 269 267 292 c 0
 267 315 239 334 225 334 c 0
 211 334 183 315 183 292 c 0
 183 269 211 250 225 250 c 0
225 166 m 0
 239 166 267 185 267 208 c 0
 267 231 239 250 225 250 c 0
 211 250 183 231 183 208 c 0
 183 185 211 166 225 166 c 0
225 83 m 0
 239 83 267 102 267 125 c 0
 267 148 239 167 225 167 c 0
 211 167 183 148 183 125 c 0
 183 102 211 83 225 83 c 0
75 0 m 0
 89 0 117 19 117 42 c 0
 117 65 89 84 75 84 c 0
 61 84 33 65 33 42 c 0
 33 19 61 0 75 0 c 0
175 0 m 0
 189 0 217 19 217 42 c 0
 217 65 189 84 175 84 c 0
 161 84 133 65 133 42 c 0
 133 19 161 0 175 0 c 0
275 0 m 0
 289 0 317 19 317 42 c 0
 317 65 289 84 275 84 c 0
 261 84 233 65 233 42 c 0
 233 19 261 0 275 0 c 0
375 0 m 0
 389 0 417 19 417 42 c 0
 417 65 389 84 375 84 c 0
 361 84 333 65 333 42 c 0
 333 19 361 0 375 0 c 0
EndSplineSet
EndChar

StartChar: intersection
Encoding: 8745 8745 125
Width: 500
Flags: HW
LayerCount: 2
Back
Fore
SplineSet
175 333 m 0
 189 333 217 352 217 375 c 0
 217 398 189 417 175 417 c 0
 161 417 133 398 133 375 c 0
 133 352 161 333 175 333 c 0
275 333 m 0
 289 333 317 352 317 375 c 0
 317 398 289 417 275 417 c 0
 261 417 233 398 233 375 c 0
 233 352 261 333 275 333 c 0
125 250 m 0
 139 250 167 269 167 292 c 0
 167 315 139 334 125 334 c 0
 111 334 83 315 83 292 c 0
 83 269 111 250 125 250 c 0
325 250 m 0
 339 250 367 269 367 292 c 0
 367 315 339 334 325 334 c 0
 311 334 283 315 283 292 c 0
 283 269 311 250 325 250 c 0
125 166 m 0
 139 166 167 185 167 208 c 0
 167 231 139 250 125 250 c 0
 111 250 83 231 83 208 c 0
 83 185 111 166 125 166 c 0
325 166 m 0
 339 166 367 185 367 208 c 0
 367 231 339 250 325 250 c 0
 311 250 283 231 283 208 c 0
 283 185 311 166 325 166 c 0
125 83 m 0
 139 83 167 102 167 125 c 0
 167 148 139 167 125 167 c 0
 111 167 83 148 83 125 c 0
 83 102 111 83 125 83 c 0
325 83 m 0
 339 83 367 102 367 125 c 0
 367 148 339 167 325 167 c 0
 311 167 283 148 283 125 c 0
 283 102 311 83 325 83 c 0
125 0 m 0
 139 0 167 19 167 42 c 0
 167 65 139 84 125 84 c 0
 111 84 83 65 83 42 c 0
 83 19 111 0 125 0 c 0
325 0 m 0
 339 0 367 19 367 42 c 0
 367 65 339 84 325 84 c 0
 311 84 283 65 283 42 c 0
 283 19 311 0 325 0 c 0
EndSplineSet
EndChar

StartChar: uni230A
Encoding: 8970 8970 126
Width: 500
Flags: HW
LayerCount: 2
Back
Fore
SplineSet
125 500 m 0
 139 500 167 519 167 542 c 0
 167 565 139 584 125 584 c 0
 111 584 83 565 83 542 c 0
 83 519 111 500 125 500 c 0
125 416 m 0
 139 416 167 435 167 458 c 0
 167 481 139 500 125 500 c 0
 111 500 83 481 83 458 c 0
 83 435 111 416 125 416 c 0
125 333 m 0
 139 333 167 352 167 375 c 0
 167 398 139 417 125 417 c 0
 111 417 83 398 83 375 c 0
 83 352 111 333 125 333 c 0
125 250 m 0
 139 250 167 269 167 292 c 0
 167 315 139 334 125 334 c 0
 111 334 83 315 83 292 c 0
 83 269 111 250 125 250 c 0
125 166 m 0
 139 166 167 185 167 208 c 0
 167 231 139 250 125 250 c 0
 111 250 83 231 83 208 c 0
 83 185 111 166 125 166 c 0
125 83 m 0
 139 83 167 102 167 125 c 0
 167 148 139 167 125 167 c 0
 111 167 83 148 83 125 c 0
 83 102 111 83 125 83 c 0
125 0 m 0
 139 0 167 19 167 42 c 0
 167 65 139 84 125 84 c 0
 111 84 83 65 83 42 c 0
 83 19 111 0 125 0 c 0
225 0 m 0
 239 0 267 19 267 42 c 0
 267 65 239 84 225 84 c 0
 211 84 183 65 183 42 c 0
 183 19 211 0 225 0 c 0
325 0 m 0
 339 0 367 19 367 42 c 0
 367 65 339 84 325 84 c 0
 311 84 283 65 283 42 c 0
 283 19 311 0 325 0 c 0
EndSplineSet
EndChar

StartChar: gradient
Encoding: 8711 8711 127
Width: 500
Flags: HW
LayerCount: 2
Back
Fore
SplineSet
75 416 m 0
 89 416 117 435 117 458 c 0
 117 481 89 500 75 500 c 0
 61 500 33 481 33 458 c 0
 33 435 61 416 75 416 c 0
175 416 m 0
 189 416 217 435 217 458 c 0
 217 481 189 500 175 500 c 0
 161 500 133 481 133 458 c 0
 133 435 161 416 175 416 c 0
275 416 m 0
 289 416 317 435 317 458 c 0
 317 481 289 500 275 500 c 0
 261 500 233 481 233 458 c 0
 233 435 261 416 275 416 c 0
375 416 m 0
 389 416 417 435 417 458 c 0
 417 481 389 500 375 500 c 0
 361 500 333 481 333 458 c 0
 333 435 361 416 375 416 c 0
75 333 m 0
 89 333 117 352 117 375 c 0
 117 398 89 417 75 417 c 0
 61 417 33 398 33 375 c 0
 33 352 61 333 75 333 c 0
375 333 m 0
 389 333 417 352 417 375 c 0
 417 398 389 417 375 417 c 0
 361 417 333 398 333 375 c 0
 333 352 361 333 375 333 c 0
125 250 m 0
 139 250 167 269 167 292 c 0
 167 315 139 334 125 334 c 0
 111 334 83 315 83 292 c 0
 83 269 111 250 125 250 c 0
325 250 m 0
 339 250 367 269 367 292 c 0
 367 315 339 334 325 334 c 0
 311 334 283 315 283 292 c 0
 283 269 311 250 325 250 c 0
175 166 m 0
 189 166 217 185 217 208 c 0
 217 231 189 250 175 250 c 0
 161 250 133 231 133 208 c 0
 133 185 161 166 175 166 c 0
275 166 m 0
 289 166 317 185 317 208 c 0
 317 231 289 250 275 250 c 0
 261 250 233 231 233 208 c 0
 233 185 261 166 275 166 c 0
225 83 m 0
 239 83 267 102 267 125 c 0
 267 148 239 167 225 167 c 0
 211 167 183 148 183 125 c 0
 183 102 211 83 225 83 c 0
EndSplineSet
EndChar

StartChar: Delta
Encoding: 8710 8710 128
Width: 500
Flags: HW
LayerCount: 2
Back
Fore
SplineSet
225 416 m 0
 239 416 267 435 267 458 c 0
 267 481 239 500 225 500 c 0
 211 500 183 481 183 458 c 0
 183 435 211 416 225 416 c 0
175 333 m 0
 189 333 217 352 217 375 c 0
 217 398 189 417 175 417 c 0
 161 417 133 398 133 375 c 0
 133 352 161 333 175 333 c 0
275 333 m 0
 289 333 317 352 317 375 c 0
 317 398 289 417 275 417 c 0
 261 417 233 398 233 375 c 0
 233 352 261 333 275 333 c 0
125 250 m 0
 139 250 167 269 167 292 c 0
 167 315 139 334 125 334 c 0
 111 334 83 315 83 292 c 0
 83 269 111 250 125 250 c 0
325 250 m 0
 339 250 367 269 367 292 c 0
 367 315 339 334 325 334 c 0
 311 334 283 315 283 292 c 0
 283 269 311 250 325 250 c 0
75 166 m 0
 89 166 117 185 117 208 c 0
 117 231 89 250 75 250 c 0
 61 250 33 231 33 208 c 0
 33 185 61 166 75 166 c 0
375 166 m 0
 389 166 417 185 417 208 c 0
 417 231 389 250 375 250 c 0
 361 250 333 231 333 208 c 0
 333 185 361 166 375 166 c 0
75 83 m 0
 89 83 117 102 117 125 c 0
 117 148 89 167 75 167 c 0
 61 167 33 148 33 125 c 0
 33 102 61 83 75 83 c 0
175 83 m 0
 189 83 217 102 217 125 c 0
 217 148 189 167 175 167 c 0
 161 167 133 148 133 125 c 0
 133 102 161 83 175 83 c 0
275 83 m 0
 289 83 317 102 317 125 c 0
 317 148 289 167 275 167 c 0
 261 167 233 148 233 125 c 0
 233 102 261 83 275 83 c 0
375 83 m 0
 389 83 417 102 417 125 c 0
 417 148 389 167 375 167 c 0
 361 167 333 148 333 125 c 0
 333 102 361 83 375 83 c 0
EndSplineSet
EndChar

StartChar: uni2218
Encoding: 8728 8728 129
Width: 500
Flags: HW
LayerCount: 2
Back
Fore
SplineSet
175 333 m 0
 189 333 217 352 217 375 c 0
 217 398 189 417 175 417 c 0
 161 417 133 398 133 375 c 0
 133 352 161 333 175 333 c 0
275 333 m 0
 289 333 317 352 317 375 c 0
 317 398 289 417 275 417 c 0
 261 417 233 398 233 375 c 0
 233 352 261 333 275 333 c 0
125 250 m 0
 139 250 167 269 167 292 c 0
 167 315 139 334 125 334 c 0
 111 334 83 315 83 292 c 0
 83 269 111 250 125 250 c 0
325 250 m 0
 339 250 367 269 367 292 c 0
 367 315 339 334 325 334 c 0
 311 334 283 315 283 292 c 0
 283 269 311 250 325 250 c 0
175 166 m 0
 189 166 217 185 217 208 c 0
 217 231 189 250 175 250 c 0
 161 250 133 231 133 208 c 0
 133 185 161 166 175 166 c 0
275 166 m 0
 289 166 317 185 317 208 c 0
 317 231 289 250 275 250 c 0
 261 250 233 231 233 208 c 0
 233 185 261 166 275 166 c 0
EndSplineSet
EndChar

StartChar: uni2395
Encoding: 9109 9109 130
Width: 500
Flags: HW
LayerCount: 2
Back
Fore
SplineSet
75 500 m 0
 89 500 117 519 117 542 c 0
 117 565 89 584 75 584 c 0
 61 584 33 565 33 542 c 0
 33 519 61 500 75 500 c 0
175 500 m 0
 189 500 217 519 217 542 c 0
 217 565 189 584 175 584 c 0
 161 584 133 565 133 542 c 0
 133 519 161 500 175 500 c 0
275 500 m 0
 289 500 317 519 317 542 c 0
 317 565 289 584 275 584 c 0
 261 584 233 565 233 542 c 0
 233 519 261 500 275 500 c 0
375 500 m 0
 389 500 417 519 417 542 c 0
 417 565 389 584 375 584 c 0
 361 584 333 565 333 542 c 0
 333 519 361 500 375 500 c 0
75 416 m 0
 89 416 117 435 117 458 c 0
 117 481 89 500 75 500 c 0
 61 500 33 481 33 458 c 0
 33 435 61 416 75 416 c 0
375 416 m 0
 389 416 417 435 417 458 c 0
 417 481 389 500 375 500 c 0
 361 500 333 481 333 458 c 0
 333 435 361 416 375 416 c 0
75 333 m 0
 89 333 117 352 117 375 c 0
 117 398 89 417 75 417 c 0
 61 417 33 398 33 375 c 0
 33 352 61 333 75 333 c 0
375 333 m 0
 389 333 417 352 417 375 c 0
 417 398 389 417 375 417 c 0
 361 417 333 398 333 375 c 0
 333 352 361 333 375 333 c 0
75 250 m 0
 89 250 117 269 117 292 c 0
 117 315 89 334 75 334 c 0
 61 334 33 315 33 292 c 0
 33 269 61 250 75 250 c 0
375 250 m 0
 389 250 417 269 417 292 c 0
 417 315 389 334 375 334 c 0
 361 334 333 315 333 292 c 0
 333 269 361 250 375 250 c 0
75 166 m 0
 89 166 117 185 117 208 c 0
 117 231 89 250 75 250 c 0
 61 250 33 231 33 208 c 0
 33 185 61 166 75 166 c 0
375 166 m 0
 389 166 417 185 417 208 c 0
 417 231 389 250 375 250 c 0
 361 250 333 231 333 208 c 0
 333 185 361 166 375 166 c 0
75 83 m 0
 89 83 117 102 117 125 c 0
 117 148 89 167 75 167 c 0
 61 167 33 148 33 125 c 0
 33 102 61 83 75 83 c 0
375 83 m 0
 389 83 417 102 417 125 c 0
 417 148 389 167 375 167 c 0
 361 167 333 148 333 125 c 0
 333 102 361 83 375 83 c 0
75 0 m 0
 89 0 117 19 117 42 c 0
 117 65 89 84 75 84 c 0
 61 84 33 65 33 42 c 0
 33 19 61 0 75 0 c 0
175 0 m 0
 189 0 217 19 217 42 c 0
 217 65 189 84 175 84 c 0
 161 84 133 65 133 42 c 0
 133 19 161 0 175 0 c 0
275 0 m 0
 289 0 317 19 317 42 c 0
 317 65 289 84 275 84 c 0
 261 84 233 65 233 42 c 0
 233 19 261 0 275 0 c 0
375 0 m 0
 389 0 417 19 417 42 c 0
 417 65 389 84 375 84 c 0
 361 84 333 65 333 42 c 0
 333 19 361 0 375 0 c 0
EndSplineSet
EndChar

StartChar: uni22A4
Encoding: 8868 8868 131
Width: 500
Flags: HW
LayerCount: 2
Back
Fore
SplineSet
75 250 m 0
 89 250 117 269 117 292 c 0
 117 315 89 334 75 334 c 0
 61 334 33 315 33 292 c 0
 33 269 61 250 75 250 c 0
175 250 m 0
 189 250 217 269 217 292 c 0
 217 315 189 334 175 334 c 0
 161 334 133 315 133 292 c 0
 133 269 161 250 175 250 c 0
275 250 m 0
 289 250 317 269 317 292 c 0
 317 315 289 334 275 334 c 0
 261 334 233 315 233 292 c 0
 233 269 261 250 275 250 c 0
375 250 m 0
 389 250 417 269 417 292 c 0
 417 315 389 334 375 334 c 0
 361 334 333 315 333 292 c 0
 333 269 361 250 375 250 c 0
225 166 m 0
 239 166 267 185 267 208 c 0
 267 231 239 250 225 250 c 0
 211 250 183 231 183 208 c 0
 183 185 211 166 225 166 c 0
225 83 m 0
 239 83 267 102 267 125 c 0
 267 148 239 167 225 167 c 0
 211 167 183 148 183 125 c 0
 183 102 211 83 225 83 c 0
225 0 m 0
 239 0 267 19 267 42 c 0
 267 65 239 84 225 84 c 0
 211 84 183 65 183 42 c 0
 183 19 211 0 225 0 c 0
EndSplineSet
EndChar

StartChar: uni22C6
Encoding: 8902 8902 132
Width: 500
Flags: HW
LayerCount: 2
Back
Fore
SplineSet
225 416 m 0
 239 416 267 435 267 458 c 0
 267 481 239 500 225 500 c 0
 211 500 183 481 183 458 c 0
 183 435 211 416 225 416 c 0
125 333 m 0
 139 333 167 352 167 375 c 0
 167 398 139 417 125 417 c 0
 111 417 83 398 83 375 c 0
 83 352 111 333 125 333 c 0
225 333 m 0
 239 333 267 352 267 375 c 0
 267 398 239 417 225 417 c 0
 211 417 183 398 183 375 c 0
 183 352 211 333 225 333 c 0
325 333 m 0
 339 333 367 352 367 375 c 0
 367 398 339 417 325 417 c 0
 311 417 283 398 283 375 c 0
 283 352 311 333 325 333 c 0
175 250 m 0
 189 250 217 269 217 292 c 0
 217 315 189 334 175 334 c 0
 161 334 133 315 133 292 c 0
 133 269 161 250 175 250 c 0
275 250 m 0
 289 250 317 269 317 292 c 0
 317 315 289 334 275 334 c 0
 261 334 233 315 233 292 c 0
 233 269 261 250 275 250 c 0
175 166 m 0
 189 166 217 185 217 208 c 0
 217 231 189 250 175 250 c 0
 161 250 133 231 133 208 c 0
 133 185 161 166 175 166 c 0
275 166 m 0
 289 166 317 185 317 208 c 0
 317 231 289 250 275 250 c 0
 261 250 233 231 233 208 c 0
 233 185 261 166 275 166 c 0
125 83 m 0
 139 83 167 102 167 125 c 0
 167 148 139 167 125 167 c 0
 111 167 83 148 83 125 c 0
 83 102 111 83 125 83 c 0
325 83 m 0
 339 83 367 102 367 125 c 0
 367 148 339 167 325 167 c 0
 311 167 283 148 283 125 c 0
 283 102 311 83 325 83 c 0
EndSplineSet
EndChar

